<svg width="25" height="25" viewBox="0 0 25 25" fill="none" xmlns="http://www.w3.org/2000/svg">
    <path d="M12.356 1C9.993 1 8.06 2.958 8.06 5.345v1.79H4.716A.703.703 0 0 0 4 7.853v11.221c0 1.982 1.6 3.581 3.581 3.581h9.55c1.981 0 3.58-1.6 3.58-3.581V7.852a.703.703 0 0 0-.715-.716h-3.343v-1.79C16.653 2.957 14.72 1 12.356 1zM9.491 5.345c0-1.6 1.29-2.913 2.865-2.913 1.576 0 2.865 1.313 2.865 2.913v1.79h-5.73v-1.79zm9.789 3.247v10.505a2.14 2.14 0 0 1-2.149 2.148h-9.55a2.14 2.14 0 0 1-2.149-2.148V8.592H8.06v1.241c0 .406.31.716.716.716.406 0 .716-.31.716-.716V8.592h5.73v1.241c0 .406.31.716.716.716.406 0 .716-.31.716-.716V8.592h2.627z" fill="#3565FF"/>
</svg>
