<svg width="114" height="27" viewBox="0 0 114 27" fill="none" xmlns="http://www.w3.org/2000/svg">
    <g clip-path="url(#jhdp352z9a)" fill="#3565FF">
        <path d="M15.968 25.23h-2.222l-.602-2.922c-.866 1.753-1.884 3.287-5.01 3.287-5.648 0-7.682-5.004-7.682-12.236C.452 7.734 1.808.502 8.662.502c6.064 0 7.005 5.515 7.268 8.255l-4.255.767c-.415-2.703-.716-4.675-2.976-4.675-1.317 0-1.92.62-2.334 1.716-.565 1.607-.603 5.113-.603 7.05 0 5.844.791 7.633 2.975 7.633 1.469 0 2.712-.62 2.75-4.82H8.36v-4.055h7.607V25.23zM16.796.867h5.16v19.87h6.364v4.493H16.796V.867zM35.078 16.026l1.355-6.721c.301-1.498.452-2.85.603-3.872.113 2.192.3 3.105.527 4.09l1.394 6.503h-3.88zM34.7.866 28.939 25.23h4.632l.98-5.26h4.97l1.017 5.26h5.197L40.048.867h-5.347zM46.148.867h7.08l1.92 10.264c.453 2.264.641 4.785.792 6.977.188-2.667.753-6.173 1.054-7.489L59.141.867h6.93V25.23h-4.934V11.35c0-1.57.038-2.593.263-7.378-.225 1.57-.828 5.88-1.092 7.16l-3.05 14.098h-3.239l-2.937-14.318c-.339-1.68-.716-4.64-.98-6.94.039 1.899.151 4.894.151 6.794V25.23h-4.105V.867zM74.629 4.848c.978 0 1.544.366 1.958 1.57.49 1.462.49 4.896.49 6.394 0 .328 0 4.601-.302 6.282-.226 1.278-.64 2.155-2.033 2.155-1.28 0-1.733-.804-1.996-1.79-.452-1.717-.452-4.091-.452-6.173 0-3.068.075-5.698.527-6.904.414-1.095 1.017-1.534 1.808-1.534zm.113-4.346c-5.913 0-7.909 4.822-7.909 12.273 0 3.908.49 7.488 2.109 10.044.302.475 1.77 2.777 5.687 2.777 6.213 0 7.908-5.187 7.908-12.383 0-7.378-1.732-12.711-7.795-12.711zM88.59.867v15.524c0 3.031.263 4.748 2.56 4.748 2.449 0 2.486-2.155 2.486-5.004V.867h4.368v15.268c0 4.31-.264 9.46-7.192 9.46-5.724 0-7.382-2.813-7.382-9.058V.867h5.16zM103.87 4.702h1.431c1.657 0 2.787.84 2.787 3.36 0 2.302-.791 3.58-2.787 3.58h-1.431v-6.94zM98.824 25.23h5.046v-9.57h1.619l2.825 9.57h5.423l-3.804-10.556c1.168-.694 3.277-1.973 3.277-6.575 0-.913 0-3.799-2.336-5.917-1.317-1.169-2.862-1.315-5.573-1.315h-6.477V25.23z"/>
    </g>
    <defs>
        <clipPath id="jhdp352z9a">
            <path fill="#fff" transform="translate(.426)" d="M0 0h113.337v26.097H0z"/>
        </clipPath>
    </defs>
</svg>
