<svg width="135" height="28" viewBox="0 0 135 28" fill="none" xmlns="http://www.w3.org/2000/svg">
    <path d="M6.043 19.502c0-1.306.354-2.388.965-3.15a3.103 3.103 0 0 1 2.466-1.192c.63-.001.96.036 1.565.23l.141.043v.388l-.175.023c-1.098.154-1.444.85-1.455 1.495.001.789.691 1.427 1.46 1.428a1.65 1.65 0 0 0 1.617-1.648c-.002-1.557-1.335-2.579-3.31-2.59-3.133.008-5.623 2.194-5.63 5.631.007 3.33 2.793 6.813 8.89 6.824 6.647-.009 9.697-4.264 9.706-8.172.006-3.71-2.903-6.245-5.295-8.412-2.311-2.09-3.58-3.322-3.578-5.7 0-.855.255-1.646.8-2.224.543-.58 1.367-.928 2.443-.926 1.151-.004 2.14.344 3.073 1.226.916.863 1.798 2.22 2.84 4.27l.395-.068-.414-6.123h-.454L21.082 2.4l-.174-.154C19.88 1.35 18.86.61 16.747.604c-3.292.009-5.592 2.23-5.598 5.256-.004 3.183 2.243 5.08 4.39 7.13 2.69 2.558 4.018 3.992 4.012 6.951 0 1.601-.592 3.09-1.686 4.177-1.093 1.086-2.687 1.765-4.66 1.764-2.419 0-4.218-.68-5.408-1.829-1.19-1.15-1.756-2.755-1.754-4.551zM25.93 24.076l-.113.566h9.401l.116-.582-3.106-.627 4.097-19.526 3.314.69 2.296 5.958.312-.078.507-7.008H26.76l-1.88 7.018.355.08 4.422-6.043 3.728-.628-4.102 19.553-3.353.627zM61.727 4.656l2.456-.614.134-.573h-6.232l-.14.604 2.02.652-6.69 9.988-2.906-9.859 2.81-.807.134-.578h-7.957l-.143.611 2.025.757 3.528 10.586-1.7 8.024-3.044.627-.132.568h8.802l.138-.587-2.786-.626 1.743-8.362 7.94-10.41zM75.087 23.373l-7.04.728 4.098-19.437 3.044-.628.133-.567h-8.71l-.136.588 2.723.626-3.955 18.762-2.982.628-.132.569h15.773l2.15-7.051-.353-.08-4.614 5.862zM84.466 23.447l-3.076.627-.132.568h8.834l.137-.587-2.817-.626 3.956-18.765 3.075-.628.133-.567h-8.368c-2.124-.001-3.746.39-4.82 1.128-1.07.74-1.62 1.81-1.625 3.28.013 1.88 1.145 2.512 2.12 2.527a1.48 1.48 0 0 0 1.49-1.46c-.001-.714-.566-1.37-1.29-1.372-.367 0-.797.162-1.251.606l-.06.058h-.562l.014-.216c.136-1.993 2.301-3.648 6.078-3.638h2.192l-4.028 19.065zM113.433 10.487l.356.08 4.422-6.042 3.727-.629-4.101 19.553-3.353.627-.114.566h9.402l.117-.582-3.107-.627 4.096-19.527 3.316.692 2.295 5.957.312-.078.506-7.008h-15.993l-1.881 7.018zM94.485 19.502c0-1.307.354-2.387.965-3.149a3.105 3.105 0 0 1 2.466-1.193c.63 0 .96.036 1.565.23l.142.044v.387l-.176.023c-1.097.154-1.443.85-1.455 1.494.002.789.692 1.428 1.46 1.429a1.65 1.65 0 0 0 1.617-1.648c-.002-1.557-1.335-2.578-3.31-2.59-3.133.009-5.622 2.194-5.63 5.632.008 3.329 2.793 6.813 8.891 6.823 6.647-.009 9.695-4.263 9.705-8.172.006-3.71-2.902-6.244-5.295-8.412-2.312-2.089-3.58-3.322-3.578-5.701 0-.854.256-1.645.8-2.223.543-.58 1.367-.928 2.444-.926 1.151-.004 2.139.344 3.073 1.226.916.863 1.798 2.22 2.839 4.27l.395-.068-.414-6.123h-.454l-1.009 1.546-.174-.154c-1.031-.899-2.05-1.637-4.162-1.642-3.293.007-5.593 2.229-5.599 5.255-.003 3.182 2.243 5.08 4.389 7.13 2.691 2.558 4.019 3.992 4.013 6.95.001 1.603-.591 3.092-1.686 4.178-1.093 1.087-2.686 1.765-4.661 1.764-2.418 0-4.217-.679-5.407-1.829-1.19-1.15-1.755-2.754-1.754-4.552z" fill="#3565FF"/>
</svg>
