<svg width="21" height="17" viewBox="0 0 21 17" fill="none" xmlns="http://www.w3.org/2000/svg">
    <path d="M10.5 0a8.262 8.262 0 0 0-.944.041 8.345 8.345 0 0 0-2.46.657c-.006.003-.015-.003-.021 0-3.116 1.344-5.106 4.455-5.106 7.798H0l2.953 3.94 2.953-3.94H3.937c0-2.561 1.551-4.969 3.938-5.992 2.442-1.08 5.362-.504 7.239 1.375l1.394-1.396C14.898.872 12.712.01 10.5.001zm7.547 4.556-2.953 3.94h1.968c0 2.56-1.55 4.968-3.937 5.992-2.442 1.08-5.362.504-7.239-1.375l-1.395 1.395c2.45 2.451 6.216 3.19 9.414 1.786.005-.003.015.003.02 0 3.116-1.344 5.106-4.455 5.106-7.798H21l-2.953-3.94z" fill="#3565FF"/>
</svg>
