<svg width="185" height="41" viewBox="0 0 185 41" fill="none" xmlns="http://www.w3.org/2000/svg">
    <path d="M2.62 2.043h3.323V18.83H31.09V2.043h3.322v37.001H31.09V21.628H5.943v17.416H2.62V2.043zM64.164 2.043h3.724l16.418 37.001H80.65l-4.76-11.02-19.906.011-4.742 11.01h-3.542L64.164 2.042zm10.58 23.28L65.928 5.222l-8.77 20.113 17.586-.012zM98.663 2.043h4.515l23.746 31.44.175-.012V2.043h3.233v37.001h-3.279l-24.947-33.14-.213.003v33.137h-3.23V2.043zM162.041 19.55 147.655 2.042h4.061l12.336 15.087 12.235-15.087h3.774l-14.122 17.228 16.334 19.773h-4.061l-14.338-17.28-14.061 17.28h-3.735l15.963-19.495z" fill="#3565FF"/>
</svg>
