<svg width="142" height="21" viewBox="0 0 142 21" fill="none" xmlns="http://www.w3.org/2000/svg">
    <g clip-path="url(#jl0ulbnnya)" fill="#3565FF">
        <path d="m31.078 17.396-1.179-4.12-.495-2.22c.073-.02.014-.167.01-.19-.418-3.519-3.092-3.123-4.828-2.519 0 0-.092.088-.09-.027.006-.143.008-1.569.008-1.953 0-.091.079-.118.079-.118 2.169-.967 5.308-.885 7.239.096 1.449.739 2.293 1.857 3.09 5.214.22.928.47 2.206 1.168 4.98.336 1.333.69 1.83 1.412 1.69.09-.017.092.03.092.11-.003.632-.003 1.69-.003 1.764 0 .22 0 .22-.073.217-.092-.003-1.995.002-1.995.002-.868-.005-1.926-.005-3.3-1.225l-1.135-1.7z"/>
        <path d="M31.078 17.396c.032.1-.108.198-.2.242-2.999 1.734-4.089-3.4-1.168-4.39.119-.033.189.028.189.028l-.495-2.22c-1.56.349-4.013 1.066-5.075 2.085-2.377 2.28-1.352 5.953 1.257 6.904 1.458.53 4.47.95 6.628-.948l-1.136-1.7zM51.462 5.287c1.652 0 2.993-1.1 2.993-2.456 0-1.357-1.341-2.456-2.993-2.456-1.655 0-2.994 1.099-2.994 2.456s1.339 2.456 2.994 2.456zM64.82 11.966c.093-.025.455-.017.425-.536-.078-1.324-.403-2.228-.784-2.756-.72-.991-2.036-1.027-2.715.443-.397.857-.476 2.417-.422 3.458.02.325.07.341.363.27l.235 1.958c-.103.055-.23.009-.081.412.938 2.564 2.285 2.912 4.086 2.808.932-.052 1.976-.547 2.344-.742.365-.197.308.039.308.179v1.733c0 .28.025.38-.462.558-2.46.915-5.692 1.132-8.202-.124-2.109-1.054-4.028-3.837-3.863-6.873.262-4.832 3.217-7.445 7.65-7.3 3.49.116 6.159 2.718 6.483 6.542.014.16.011.404-.138.489l-5.226-.52z"/>
        <path d="M64.82 11.966c-.616.19-3.133.879-3.133.879l.235 1.958c.1-.057 8.126-2.318 8.126-2.318l-5.227-.52zM21.582 19.202c-.003.662.149.915.2 1.024.043.1-.086.086-.086.086h-5.227s-.103.005-.07-.085c.062-.179.189-.5.189-1.025l-.006-.687V10.76c-.002-.462-.284-1.453-1.384-1.456-.912.008-1.76.849-1.763 2.013v2.437l-.003 4.863.003.585c-.003.662.149.915.2 1.024.043.1-.087.086-.087.086H8.322s-.103.005-.07-.085c.061-.179.186-.5.188-1.025v-8.434c-.002-.464-.283-1.453-1.387-1.459-.908.009-1.76.85-1.76 2.014v7.486l-.005.393c0 .662.151.915.2 1.024.043.1-.084.086-.084.086H.177s-.105.005-.073-.085c.065-.179.187-.5.192-1.025v-.462c0-1.706-.003-9.197-.005-9.887.005-.45-.136-.772-.203-.948-.04-.09.048-.131.048-.131S2.06 6.897 5.21 5.419a.061.061 0 0 1 .084.063v2.396c0 .06.065.093.114.041.027-.027.06-.071.102-.12 1.728-2.676 7.107-3.11 7.953.093.016.055.076.05.11 0 1.066-1.45 2.134-2.182 4.33-2.182 4.294 0 3.675 3.72 3.672 6.011l.003 6.794.005.687zM43.962 19.212c-.003.66.149.915.197 1.025.046.099-.083.085-.083.085H38.58s-.106.003-.073-.085c.062-.181.186-.5.19-1.025l.002-.395-.003-9.651c0-.385-.254-1.102-.303-1.23-.032-.07.073-.097.073-.097s2.277-1.181 5.414-2.657c.032-.013.084.006.084.064V6.68c0 .192.019.794.019.873 0 .063.064.096.11.044.027-.03.063-.071.103-.123 1.171-2.335 3.031-2.261 4.446-2.047.18.027.156.088.108.33-.092.461-.717 3.074-.77 3.266-.044.162-.087.234-.28.192-1.776-.379-3.736.21-3.736 2.459v.324c0 1.64 0 5.651.002 6.821l-.005.393zM54.261 19.212c-.002.66.149.915.198 1.025.046.099-.084.085-.084.085h-5.503s-.105.006-.076-.085c.065-.181.19-.5.193-1.025l.002-.077V7.998c0-.274 0-.277.192-.365l.065-.03s1.817-.912 4.848-2.363c.033-.016.16.006.157.063 0 .44.006 12.676.008 13.857v.052zM86.177 17.786c-1.262.654-3.147.865-4.272-.588-1.12-1.448-1.671-2.714-1.668-4.788.003-4.714 3.223-5.333 5.667-3.945V6.042c-1.379-.712-3.198-.835-4.567-.69-4.075.443-6.454 3.912-6.457 7.86-.003 4.302 2.701 9.45 11.297 7.057v-2.483zM92.931 18.667S92.912-.036 92.921.06c0 0-3.8 1.783-5.787 2.747.197.165.614.885.614 3.256v6.002c.002 1.717 0 5.008-.025 7.613-.002.285-.18.684-.18.711h5.74c-.057 0-.352-1.722-.352-1.722zM102.641 17.55c.033.104-.021.137-.116.186-.654.424-1.776.517-2.436-.107-.622-.747-.947-1.601-.684-2.67.208-.656.87-1.802 1.976-2.003l-.354-2.148c.003.039 0 .036-.111.06-.335.086-.514.119-1.095.218-1.225.206-2.61.629-3.761 1.54-3.286 2.594-1.744 6.41.924 7.53 1.558.655 4.308 1.036 6.579-.89l-.922-1.716z"/>
        <path d="m102.641 17.55-1.219-4.574s0-.033-.041-.02l-.354-2.148c-.243-3.838-3.277-3.483-4.962-2.843 0 0-.094.09-.09-.03.004-.149.01-1.63.01-2.028-.004-.096.078-.12.078-.12 2.144-.957 5.421-.827 7.314.137 1.66.843 2.485 2.393 2.817 3.725 0 0 1.49 6.906 1.658 7.654.135.598.519 1.12 1.119 1.118.238 0 .271.046.273.296.003.605.006 1.536.003 1.665-.003.157-.013.214-.13.214l-2.06.003c-1.057-.005-1.928-.008-3.494-1.332l-.922-1.717zM113.236 5.096c1.714 0 3.104-1.14 3.104-2.55 0-1.406-1.39-2.546-3.104-2.546-1.717 0-3.107 1.14-3.107 2.547 0 1.409 1.39 2.549 3.107 2.549zM115.938 19.212v.3c0 .434.192.76.238.876.003.014-.013.022-.013.022h-5.941s-.019-.008-.014-.022c.041-.107.236-.448.236-.876v-.324l.002-11.558c0-.266.122-.277.122-.277s2.009-1.044 5.281-2.58a.062.062 0 0 1 .087.063l.002 14.376zM127.613 9.105c-1.293-.02-1.617-.102-2.299.143-.849.33-1.433 1.016-1.449 2.063V19.51c0 .423.187.742.23.855.005.01-.011.019-.011.019h-5.773s-.016-.009-.013-.022c.04-.102.229-.434.229-.852V8.816c-.029-.392-.186-.868-.232-.991-.033-.069.073-.094.073-.094s2.231-1.05 5.411-2.538c.029-.017.086.003.083.063v1.3c0 .192.022.804.022.887 0 .06.065.093.114.041.027-.03.059-.071.102-.124 1.282-2.412 3.375-2.107 4.44-1.936.184.027.157.088.108.332-.094.467-.697 2.959-.751 3.154-.046.165-.087.2-.284.195zM136.381 12.29c.089-.028.451-.02.421-.539-.078-1.324-.403-2.225-.784-2.752-.719-.995-2.036-1.03-2.715.442-.394.854-.473 2.417-.419 3.456.016.324.071.34.36.272l.235 1.956c-.1.057-.23.01-.081.415.938 2.563 2.288 2.909 4.086 2.807.933-.052 1.976-.55 2.344-.744.368-.198.311.041.311.181v1.733c0 .278.022.377-.462.558-2.464.912-5.695 1.13-8.202-.126-2.109-1.052-4.028-3.838-3.866-6.87.262-4.836 3.22-7.448 7.649-7.3 3.494.115 6.16 2.714 6.485 6.538.013.16.013.404-.136.49l-5.226-.517z"/>
        <path d="M136.381 12.29c-.617.187-3.137.879-3.137.879l.235 1.956c.1-.055 8.128-2.319 8.128-2.319l-5.226-.516z"/>
    </g>
    <defs>
        <clipPath id="jl0ulbnnya">
            <path fill="#fff" transform="translate(.077)" d="M0 0h141.671v20.878H0z"/>
        </clipPath>
    </defs>
</svg>
