<svg width="25" height="25" viewBox="0 0 25 25" fill="none" xmlns="http://www.w3.org/2000/svg">
    <path d="M15.91 13.738c1.313-.982 2.163-2.498 2.338-4.171a6.086 6.086 0 0 0-1.42-4.598C15.75 3.716 14.211 3 12.595 3c-1.615 0-3.154.716-4.233 1.969a6.086 6.086 0 0 0-1.42 4.598c.175 1.673 1.025 3.19 2.338 4.17a8.701 8.701 0 0 0-3.837 3.302A9.243 9.243 0 0 0 4 22h1.75c0-2.548 1.304-4.902 3.422-6.177a6.608 6.608 0 0 1 6.846 0c2.118 1.274 3.423 3.629 3.423 6.177h1.75a9.243 9.243 0 0 0-1.444-4.96 8.7 8.7 0 0 0-3.836-3.302zM8.68 8.966a4.19 4.19 0 0 1 1.153-2.9 3.857 3.857 0 0 1 2.784-1.201c1.044 0 2.045.432 2.783 1.201a4.19 4.19 0 0 1 1.153 2.9 4.19 4.19 0 0 1-1.153 2.9 3.858 3.858 0 0 1-2.783 1.202 3.858 3.858 0 0 1-2.784-1.202 4.19 4.19 0 0 1-1.153-2.9z" fill="#3565FF"/>
</svg>
