<svg width="25" height="25" viewBox="0 0 25 25" fill="none" xmlns="http://www.w3.org/2000/svg">
    <path d="m20.685 19.154-3.252-3.268a7.754 7.754 0 0 0 1.966-5.15c0-4.265-3.455-7.736-7.7-7.736C7.456 3 4 6.47 4 10.735c0 4.265 3.455 7.736 7.7 7.736a7.65 7.65 0 0 0 4.079-1.182l3.381 3.397c.202.203.478.314.753.314.276 0 .552-.11.754-.314.44-.424.44-1.108.018-1.532zM6.15 10.735c0-3.064 2.48-5.575 5.55-5.575 3.068 0 5.53 2.51 5.53 5.575 0 3.065-2.48 5.576-5.53 5.576-3.05 0-5.55-2.493-5.55-5.576z" fill="#3565FF"/>
</svg>
