<svg width="139" height="139" viewBox="0 0 139 139" fill="none" xmlns="http://www.w3.org/2000/svg">
    <circle cx="69.5" cy="69.5" r="69.5" fill="#3565FF"/>
    <path d="m36.893 68.93 3.378-1.068-2.264-7.133 8.532-2.698-.988-3.112-8.533 2.698-1.139-3.588 9.29-2.938-.96-3.026-12.67 4.007 5.354 16.858zM51.712 64.243l3.162-1-1.928-6.073c-.645-2.032 1.444-2.883 3.718-3.602l-.982-3.09c-2.187.691-3.448 1.899-3.704 3.644l-.672-2.118-3.162 1 3.569 11.24zM66.186 60.046c3.53-1.116 5.231-4.39 4.12-7.89-1.106-3.48-4.379-5.157-7.908-4.04-3.53 1.116-5.217 4.361-4.112 7.84 1.112 3.502 4.37 5.207 7.9 4.09zm-.879-2.766c-1.624.514-3.197-.464-3.794-2.344-.59-1.859.139-3.54 1.763-4.054 1.646-.52 3.212.435 3.802 2.294.597 1.88-.125 3.583-1.77 4.104zM74.32 57.093l3.206-1.014L75.7 50.33c-.59-1.858 0-3.377 1.56-3.87 1.385-.438 2.524.296 3.045 1.938l1.963 6.181 3.249-1.027-1.826-5.749c-.59-1.859 0-3.377 1.56-3.87 1.385-.439 2.524.295 3.046 1.938l1.962 6.181 3.27-1.034-2.017-6.354c-1.091-3.437-3.047-4.792-5.862-3.902-1.733.548-3.078 1.64-3.696 3.523-1.08-1.227-2.498-1.564-4.295-.996-1.798.569-2.814 1.723-3.188 3.173l-.514-1.621-3.205 1.013 3.568 11.24zM38.715 93.143c.706-1.079 1.12-2.328.805-3.845l5.305-1.678-.905-2.853-6.014 1.925c-.68-.712-1.38-1.418-1.71-2.456-.452-1.426.136-2.35 1.5-2.781 1.43-.452 2.643.14 3.09 1.473l3.291-1.041c-1.158-3.273-3.8-4.84-7.546-3.655-3.4 1.076-4.84 3.6-3.899 6.56.384 1.211 1.082 2.132 1.81 2.996l-1.777.562.906 2.853 2.729-.863c.07.144.146.31.201.483.515 1.621-.395 2.884-1.624 3.891l.933 2.94 12.192-3.856-1.036-3.264-8.25 2.61zM55.482 91.408l3.378-1.068-5.422-17.075-2.338.74-4.94 5.082 1.153 3.632 4.085-4.17 4.084 12.86zM67.882 87.867c3.963-1.253 5.817-5.621 3.909-11.63-1.578-4.97-4.873-7.615-9.42-6.177-3.509 1.11-5.483 4.35-4.412 7.722 1.132 3.566 4.064 4.993 7.724 3.836 1.516-.48 2.723-1.48 3.244-2.691.523 2.998-.22 5.088-1.995 5.65-1.56.492-2.832.086-3.397-1.09l-3.48 1.123c1.34 3.168 4.232 4.394 7.827 3.257zM65.03 78.59c-1.646.52-3.144-.218-3.63-1.753-.488-1.534.338-2.985 2.006-3.512 1.624-.514 3.115.204 3.595 1.717.494 1.556-.303 3.021-1.971 3.548zM79.108 84.27c1.17-.37 1.768-1.487 1.397-2.655-.37-1.167-1.504-1.736-2.673-1.366-1.191.377-1.812 1.5-1.441 2.668.37 1.167 1.526 1.729 2.717 1.352zM89.517 81.025c3.963-1.254 5.817-5.622 3.909-11.63-1.578-4.971-4.873-7.615-9.42-6.177-3.509 1.11-5.483 4.35-4.412 7.721 1.132 3.567 4.064 4.994 7.724 3.836 1.516-.479 2.723-1.48 3.244-2.69.523 2.997-.22 5.087-1.995 5.649-1.56.493-2.832.087-3.396-1.09l-3.48 1.124c1.34 3.168 4.23 4.394 7.826 3.257zm-2.85-9.278c-1.647.52-3.145-.219-3.632-1.753-.487-1.535.34-2.985 2.007-3.513 1.624-.513 3.115.204 3.595 1.717.494 1.556-.303 3.022-1.97 3.549zM104.828 76.182c3.963-1.253 5.817-5.62 3.91-11.63-1.579-4.97-4.873-7.615-9.42-6.177-3.51 1.11-5.483 4.35-4.412 7.722 1.132 3.566 4.064 4.994 7.723 3.836 1.516-.48 2.724-1.48 3.245-2.691.523 2.998-.22 5.088-1.995 5.65-1.56.493-2.832.086-3.397-1.09l-3.48 1.124c1.34 3.167 4.231 4.393 7.826 3.256zm-2.85-9.277c-1.646.52-3.144-.22-3.631-1.754-.487-1.534.339-2.985 2.006-3.512 1.625-.514 3.115.204 3.596 1.717.494 1.556-.304 3.021-1.971 3.549z" fill="#fff"/>
</svg>
