<svg width="121" height="30" viewBox="0 0 121 30" fill="none" xmlns="http://www.w3.org/2000/svg">
    <path d="M43.001 9.23V6.576h-11.11V9.23h3.867v10.48H31.89v2.655h11.111V19.71h-4.219V9.23h4.22zM61.46 9.335h-4.43v4.332s2.39-.07 4.36-.07c1.969 0 2.46-.42 2.46-2.375 0-2.236-2.39-1.887-2.39-1.887z" fill="#3565FF"/>
    <path d="M48.662 2.908v23.264h22.994V2.908H48.662zm18.353 15.649v3.633h-3.164v-3.423s0-2.655-1.828-2.655c-1.829 0-4.993.07-4.993.07v6.078h-3.094V6.61h9.142s3.937-.21 3.937 4.053c0 4.261-2.39 4.471-2.39 4.471s2.39.14 2.39 3.423zM75.876 6.61v2.585h2.18v10.55h-2.18v2.584h13.431v-5.1h-2.672v2.516h-5.696v-4.262h4.219v-2.585h-4.22V9.195h5.486v2.515h2.883v-5.1H75.876zM107.59 9.266h-4.782v10.479h4.993c2.391 0 2.461-3.074 2.461-3.074v-4.052c0-3.563-2.672-3.353-2.672-3.353z" fill="#3565FF"/>
    <path d="M94.44 2.908v23.264h22.995V2.908H94.44zm13.501 19.562c-5.765 0-8.368.07-8.368.07V6.68h6.822s7.031-.768 7.031 5.52V16.6s.281 5.869-5.485 5.869zM2.672 2.908v23.264h22.995V2.908H2.672zM20.956 22.33h-3.938l-2.532-11.388L11.744 22.4H7.876L4.642 6.68h3.164l2.18 11.947 2.813-11.946 3.445.07 2.813 12.086 2.11-12.156h3.023L20.956 22.33z" fill="#3565FF"/>
</svg>
