<svg width="124" height="25" viewBox="0 0 124 25" fill="none" xmlns="http://www.w3.org/2000/svg">
    <g clip-path="url(#a19gewgd9a)">
        <path d="M12.765 24.085 14.914 3.39c.12-1.061.332-1.238.696-1.238h.211V.973h-3.48v1.18h.212c.484 0 .726.324.666 1.238l-1.241 12.38-1.423-12.38c-.121-.973.121-1.238.666-1.238h.06V.973H6.44v1.18h.242c.454 0 .454.177.545 1.238l.364 3.154-1.12 10.023L5.197 3.39c-.151-1.061.06-1.238.545-1.238h.06V.973H.9v1.18h.243c.514 0 .544.177.665 1.238l2.18 20.694h3.147l1.241-10.642 1.271 10.642h3.118zm20.854-13.56c0-1.444 0-1.946.938-1.946.636 0 .636.236.636 1.445v12.351c0 .442-.152.53-.394.53h-.15v1.18h4.872v-1.18h-.212c-.333 0-.423-.117-.423-.589V9.376c0-2.123-.455-2.949-2.604-2.949-1.24 0-2.148.383-2.723 1.71-.243-1.18-.878-1.71-2.543-1.71-1.362 0-2.088.413-2.633 1.71v-1.71l-4.177.324v1.18h.181c.273 0 .485.206.485.855v13.441c0 .531-.121.679-.485.679h-.18v1.179h4.66v-1.18h-.181c-.243 0-.303-.088-.303-.442V10.525c0-1.444-.03-1.946.908-1.946.635 0 .635.236.635 1.445v12.351c0 .442-.151.53-.363.53h-.212v1.18h4.783v-1.18h-.061c-.333 0-.454-.117-.454-.589V10.525zm34.05 13.56h5.842v-1.18h-.394c-.514 0-.665-.206-.665-1.237v-8.903h3.087v8.902c0 1.032-.151 1.239-.636 1.239h-.454v1.179h5.811v-1.18h-.484c-.515 0-.605-.206-.605-1.238V3.392c0-1.061.09-1.238.605-1.238h.484V.973h-5.81v1.18h.453c.485 0 .636.177.636 1.238v7.988h-3.087V3.391c0-1.061.151-1.238.665-1.238h.394V.973H67.67v1.18h.515c.484 0 .636.177.636 1.238v18.866c0 .501-.151.649-.636.649h-.515v1.179zm44.13 0h4.631v-1.18h-.151c-.303 0-.333-.088-.333-.442V10.525c0-1.444.03-1.946.968-1.946.696 0 .696.236.696 1.445v12.351c0 .442-.12.53-.332.53h-.212v1.18h4.903v-1.18h-.212c-.333 0-.393-.117-.393-.589V9.376c0-2.123-.545-2.949-2.664-2.949-1.392 0-2.179.413-2.754 1.71V.62l-4.449.354v1.179h.454c.302 0 .484.177.484.825v19.25c0 .53-.091.678-.484.678h-.152v1.179zm-92.497.206c3.875 0 4.42-3.154 4.42-8.932 0-5.807-.576-8.932-4.42-8.932-3.843 0-4.418 3.125-4.418 8.932 0 5.778.544 8.932 4.418 8.932zm29.33-.206h4.66v-1.18h-.212c-.272 0-.272-.088-.272-.442V10.525c0-1.444 0-1.946.968-1.946.666 0 .697.236.697 1.445v12.351c0 .442-.181.53-.364.53h-.212v1.18h4.904v-1.18h-.212c-.333 0-.423-.117-.423-.589V9.376c0-2.123-.515-2.949-2.665-2.949-1.36 0-2.178.413-2.693 1.71v-1.71l-4.48.324v1.18h.485c.273 0 .484.206.484.855v13.441c0 .531-.12.679-.484.679h-.181v1.179zm42.948.206c1.605 0 2.21-.766 2.543-1.68.302 1.356.635 1.68 2.451 1.68 2.119 0 2.391-1.238 2.361-3.655h-.999c0 1.74-.03 1.916-.363 1.916-.303 0-.303-.147-.303-1.12V9.964c0-2.33-.786-3.538-3.571-3.538-2.21 0-4.389.649-4.268 2.978.06 1.061.485 2.181 1.635 2.122 1.059-.059 1.543-.619 1.543-1.474 0-.59-.454-1.562-1.18-2.093.272-.118.696-.236 1.392-.236.787 0 .938.59.938 1.71v3.213c-4.025 1.326-4.872 1.857-4.872 6.78 0 3.538.878 4.864 2.693 4.864zm-6.93 0c2.995 0 3.691-.884 3.54-5.718h-1.24c0 3.832-.122 4.126-1.514 4.126-1.665 0-1.665-.707-1.665-7.28v-.532h4.843c0-6.632-.757-8.46-3.965-8.46-2.906 0-4.419 1.74-4.419 9.05 0 6.957 1.15 8.844 4.42 8.814zm-40.226 0c2.936 0 3.753-.884 3.632-5.718h-1.24c0 3.832-.182 4.126-1.605 4.126-1.785 0-1.695-.707-1.695-7.28v-.532h4.692c0-6.632-.636-8.46-3.784-8.46-2.935 0-4.449 1.74-4.449 9.05 0 6.957 1.15 8.844 4.449 8.814zm55.178-.206h4.842v-1.18h-.363c-.303 0-.424-.147-.424-.618V.62l-4.51.354v1.179h.515c.303 0 .424.118.424.59v19.603c0 .442-.031.56-.242.56H99.6v1.179zm-35.353.206c2.21 0 3.36-1.415 3.36-3.537 0-4.982-4.63-7.87-4.63-11.438 0-1.09.393-1.415 1.18-1.415 1.15 0 1.331.472 1.543 2.152l.181 1.65h1.332V6.575h-1.059c-.06.65-.211.885-.273.796-.332-.383-1.12-.943-2.42-.943-1.938 0-3.632.855-3.632 3.655 0 4.363 4.6 7.694 4.6 11.026 0 1.444-.332 1.68-1.392 1.68-1.06 0-1.331-.472-1.543-2.653l-.152-1.445h-1.392v5.395h1.21c.092-.59.304-.973.485-.796.393.442.817 1.002 2.602 1.002zm41.103-3.861c0 2.8.424 3.861 3.269 3.861 1.997 0 2.452-.766 2.452-2.918v-2.919h-1.211v3.066c0 1.032-.091 1.15-.484 1.15-.394 0-.484-.118-.484-1.032V7.901h2.209V6.574h-2.179V2.153h-1.241c-.878 3.92-1.634 4.421-2.815 4.421h-.333v1.297h.817V20.43zm-86.05 2.358c-.847 0-.847-.472-.847-7.429 0-6.986 0-7.458.847-7.458.848 0 .848.472.848 7.458 0 6.987 0 7.429-.848 7.429zM59.225 7.312c3.026-2.182 3.632-3.833 2.633-5.336-.545-.825-1.786-1.356-2.694-.619-1.09.884-.817 2.417 1.211 3.302-.363.412-1.21 1.209-1.907 1.887l.757.766zm33.808 14.915c-.726 0-.726-.736-.726-3.065 0-4.245 0-4.805 1.452-5.572v7.282c0 1.09-.15 1.355-.726 1.355zM43.516 13.65c.06-5.512.152-5.777.939-5.777.756 0 .696.295.696 5.777h-1.635zm40.256 0c.09-5.512.151-5.777.938-5.777.787 0 .666.295.666 5.777h-1.604z" fill="#3565FF"/>
    </g>
    <defs>
        <clipPath id="a19gewgd9a">
            <path fill="#fff" d="M0 0h123.03v24.606H0z"/>
        </clipPath>
    </defs>
</svg>
