<svg width="51" height="50" viewBox="0 0 51 50" fill="none" xmlns="http://www.w3.org/2000/svg">
    <circle cx="25.899" cy="25" r="25" fill="#F6EDEB"/>
    <path d="M24.371 41.306c-4.817 0-8.734-3.917-8.734-8.734 0-1.94.774-3.588 1.522-5.18.762-1.624 1.482-3.16 1.482-5.036 0-3.16 2.57-5.73 5.73-5.73 3.16 0 5.73 2.57 5.73 5.73 0 1.876.72 3.408 1.482 5.035.748 1.594 1.522 3.24 1.522 5.18 0 4.814-3.918 8.735-8.734 8.735zm0-22.995a4.051 4.051 0 0 0-4.045 4.045c0 2.25-.836 4.032-1.644 5.75-.7 1.492-1.361 2.9-1.361 4.463a7.058 7.058 0 0 0 7.05 7.05c3.887 0 7.05-3.163 7.05-7.05 0-1.566-.66-2.974-1.36-4.463-.81-1.721-1.645-3.5-1.645-5.75a4.048 4.048 0 0 0-4.045-4.046z" fill="#3565FF"/>
    <path d="M28.325 32.915a3.944 3.944 0 1 1-7.888 0 3.944 3.944 0 0 1 7.888 0zM24.384 17.7a.706.706 0 0 1-.704-.703v-1.97c0-.388.317-.705.704-.705.387 0 .704.317.704.704v1.97a.706.706 0 0 1-.704.705z" fill="#3565FF"/>
    <path d="M28.117 18.546c-1.722 0-3.035-.367-3.13-.394l-.78-.226.198-.788c.043-.179 1.128-4.382 4.47-6.313 3.341-1.93 7.525-.764 7.7-.714l.781.226-.202.788c-.043.179-1.128 4.382-4.47 6.313-1.498.865-3.166 1.108-4.567 1.108zM26.31 16.71c1.25.202 3.621.37 5.531-.73 1.92-1.11 2.954-3.245 3.402-4.427-1.25-.202-3.62-.37-5.534.73-1.91 1.106-2.947 3.245-3.399 4.427z" fill="#3565FF"/>
</svg>
