<svg width="51" height="50" viewBox="0 0 51 50" fill="none" xmlns="http://www.w3.org/2000/svg">
    <circle cx="25.064" cy="25" r="25" fill="#F6EDEB"/>
    <path d="M35.881 10.891a1.034 1.034 0 0 0-.462-.71.974.974 0 0 0-.823-.107c-11.09 3.571-17.179 8.1-18.098 13.465-.73 4.265 2.011 7.737 3.604 9.346a53.831 53.831 0 0 1-5 5.322c-.273.24-.4.611-.335.974s.313.663.65.787a.98.98 0 0 0 .986-.189 54.14 54.14 0 0 0 5.315-5.64c1.7.74 3.523 1.135 5.369 1.167a8.455 8.455 0 0 0 5.265-1.69c4.23-3.255 5.414-10.901 3.53-22.725zM31.16 31.956c-2.72 2.099-6.435 1.115-8.095.505a66.909 66.909 0 0 0 7.217-11.455c.162-.33.141-.722-.054-1.032a.993.993 0 0 0-.893-.467 1 1 0 0 0-.84.563 64.591 64.591 0 0 1-7.107 11.22c-1.327-1.379-3.467-4.17-2.916-7.392.74-4.314 6.131-8.275 15.618-11.487 1.475 10.176.474 16.922-2.93 19.545z" fill="#3565FF"/>
</svg>
