<svg width="51" height="50" viewBox="0 0 51 50" fill="none" xmlns="http://www.w3.org/2000/svg">
    <circle cx="25.746" cy="25" r="25" fill="#F6EDEB"/>
    <path d="M21.104 11.867a.992.992 0 0 0-.299.061c-5.33 1.975-8.39 7.154-8.39 13.046 0 7.67 6.23 13.91 13.899 13.91 5.892 0 11.08-3.072 13.056-8.401a.99.99 0 0 0-1.297-1.256c-1.35.542-2.833.823-4.397.823-6.457 0-12.428-5.981-12.428-12.438 0-1.564.271-3.047.813-4.396a.988.988 0 0 0-.957-1.35zm-1.534 2.872c-.192.93-.299 1.89-.299 2.873 0 7.647 6.757 14.414 14.404 14.414.983 0 1.943-.117 2.873-.309-2.065 3.311-5.813 5.19-10.234 5.19-6.601 0-11.923-5.333-11.923-11.933 0-4.422 1.867-8.17 5.179-10.235z" fill="#3565FF"/>
</svg>
