<svg width="117" height="95" viewBox="0 0 117 95" fill="none" xmlns="http://www.w3.org/2000/svg">
    <path d="m50.254 11.276 14.075 8.741 13.846-9.254L85.4 24.096l15.203-2.19-2.992 13.635 12.206 6.895-12.052 8.184 3.972 13.849-16.092.996-5.22 15.087-15.826-5.687-11.852 11.93-11.19-11.385-14.963 6.01-2.357-14.214-14.398-2.217 8.064-11.468-8.556-11.03 14.67-4.55.801-15.142 16.479 2.414 8.958-13.937z" fill="#EDE0DD"/>
    <path d="m39.29 49.98 1.827-.413-1.424-6.31 6.153 5.244 1.92-.434-2.06-9.13-1.815.41 1.408 6.238-6.125-5.175-1.943.439 2.06 9.13zm12.286-2.575c1.042-.235 1.592-.851 1.724-1.681.34.797 1.113 1.115 2.39.507l-.28-1.241c-.469.155-.602 0-.716-.503l-.464-2.06c-.325-1.44-1.525-2.068-3.304-1.666-1.756.396-2.59 1.494-2.26 2.958l1.709-.386c-.12-.526.198-.918.866-1.069.725-.163 1.154.048 1.256.554l.042.187-1.39.486c-1.642.58-2.457 1.489-2.206 2.601.208.925 1.064 1.666 2.633 1.313zm.06-1.367c-.538.121-.886-.058-.97-.433-.1-.445.436-.738 1.505-1.127l.58-.205c.08.843-.283 1.577-1.114 1.765zm5.176-.011 1.732-.391-.51-2.26.382-.491 2.75 2.16 2.143-.484-3.938-2.95 2.33-3.084-2.224.502-1.86 2.498-1.159-5.139-1.732.391 2.086 9.248zm9.667-1.984c1.487-.335 2.456-1.44 2.345-2.805l-1.745.394c.025.437-.299.855-.907.992-.902.203-1.428-.22-1.687-.985l4.238-.956-.127-.562c-.438-1.943-1.959-2.904-3.574-2.54-1.862.42-2.848 2.045-2.423 3.93.428 1.896 2.019 2.952 3.88 2.532zm-2.222-3.472c-.053-.726.213-1.29 1.032-1.475.738-.167 1.261.244 1.45.915l-2.482.56zm8.771 1.995c.96-.217 1.546-.73 1.827-1.446l.18.796 1.744-.393-2.086-9.248-1.744.394.892 3.956c-.561-.525-1.31-.738-2.27-.521-1.534.346-2.31 1.923-1.887 3.796.43 1.908 1.81 3.011 3.344 2.666zm.26-1.633c-.867.195-1.64-.394-1.869-1.412-.227-1.007.22-1.858 1.087-2.053.854-.193 1.624.384 1.851 1.39.23 1.019-.215 1.882-1.07 2.075zM44.672 63.117l1.826-.412-1.658-7.352 3.254-.734-.401-1.779-8.323 1.878.401 1.779 3.243-.732 1.658 7.352zm4.725-1.066 1.71-.386-.742-3.289c-.249-1.1.89-1.456 2.118-1.733l-.377-1.674c-1.183.267-1.9.847-2.114 1.756l-.259-1.147-1.709.386 1.373 6.087zm9.673-8.579-1.732.39.702 3.115c.227 1.006-.152 1.78-.994 1.97-.75.17-1.316-.268-1.517-1.158l-.755-3.348-1.756.396.777 3.442c.42 1.861 1.376 2.666 2.898 2.323.971-.22 1.558-.782 1.82-1.53l.198.878 1.732-.39-1.373-6.088zm6.786 4.854-.346-1.534c-1.272.41-1.34.327-1.567-.68l-.447-1.978 1.592-.359-.356-1.58-1.592.36-.37-1.64-1.732.391.37 1.639-1.3.293.356 1.58 1.3-.293.647 2.868c.353 1.729 1.293 1.59 3.445.933zm1.489-.324 1.732-.39-.707-3.138c-.225-.995.157-1.757 1-1.947.749-.17 1.31.245 1.51 1.135l.761 3.371 1.756-.396-.78-3.453c-.422-1.873-1.373-2.655-2.895-2.311-.971.219-1.558.782-1.822 1.518l-.909-4.027-1.732.39 2.086 9.248zm10.28-2.122c1.767-.398 2.664-1.388 2.392-2.594-.597-2.645-4.2-.516-4.468-1.698-.097-.433.211-.81.855-.956.703-.158 1.206.11 1.376.699l1.709-.386c-.41-1.322-1.624-1.91-3.251-1.542-1.791.404-2.694 1.42-2.417 2.648.581 2.576 4.197.444 4.477 1.685.081.363-.231.778-.898.928-.726.164-1.33-.057-1.485-.637l-1.72.388c.336 1.327 1.627 1.872 3.43 1.465z" fill="#3565FF"/>
</svg>
