<svg width="51" height="50" viewBox="0 0 51 50" fill="none" xmlns="http://www.w3.org/2000/svg">
    <circle cx="25.823" cy="25" r="25" fill="#F6EDEB"/>
    <path fill-rule="evenodd" clip-rule="evenodd" d="M25.693 10.944c-.813 0-1.675.526-1.984 1.414l-2.454 7.216-7.332-.048c-.955 0-1.739.666-1.996 1.446-.257.78-.023 1.778.743 2.349.027.02.055.038.084.055l6.04 3.635-2.193 7.915c-.294.906.09 1.853.75 2.34.661.49 1.684.576 2.462.026l5.867-4.08 5.915 4.08c.779.55 1.802.464 2.462-.025.66-.488 1.045-1.435.75-2.341l-2.216-7.47L38.7 23.35a.624.624 0 0 0 .04-.03c.765-.57 1-1.569.743-2.349-.257-.78-1.04-1.445-1.996-1.445l-7.333.047-2.454-7.216a2.138 2.138 0 0 0-1.983-1.414l-.023.002zm0 2.056c.033 0 .02-.041.045.033l2.69 7.911c.144.418.538.697.98.695l8.067-.052c.079 0 .034 0 .046.037.02.033.029.021-.02.052l-6.695 4.497c-.373.25-.54.714-.413 1.144l2.441 8.216v.025c.025.078.021.035-.02.056-.03.02.02.045-.052 0L26.25 31.12a1.027 1.027 0 0 0-1.168 0l-6.462 4.494c-.065.045-.022.02-.051 0-.029-.02-.041.022-.02-.056l.02-.04 2.417-8.71v-.001a1.028 1.028 0 0 0-.462-1.157l-6.633-3.987c-.021-.02-.021-.02-.021-.046.02-.034-.035-.037.045-.037l8.068.052c.442.003.836-.277.98-.695l2.69-7.91c.027-.074.02-.034.046-.034l-.005.007z" fill="#3565FF"/>
</svg>
