<?xml version="1.0" standalone="no"?>
<!DOCTYPE svg PUBLIC "-//W3C//DTD SVG 1.1//EN" "http://www.w3.org/Graphics/SVG/1.1/DTD/svg11.dtd" >
<svg xmlns="http://www.w3.org/2000/svg" xmlns:xlink="http://www.w3.org/1999/xlink" version="1.1">
<metadata>
Created by FontForge 20190801 at Thu Dec 20 07:09:33 2018
 By www-data
Copyright (c) 2018 by Kenneth Knutsen Good Type Foundry. All rights reserved.
</metadata>
<defs>
<font id="GoodSansLight" horiz-adv-x="0" >
  <font-face 
    font-family="GoodSansLight"
    font-weight="300"
    font-stretch="normal"
    units-per-em="1000"
    panose-1="0 0 4 0 0 0 0 0 0 0"
    ascent="800"
    descent="-200"
    x-height="520"
    cap-height="790"
    bbox="-959 -299 1342 1106"
    underline-thickness="50"
    underline-position="-100"
    unicode-range="U+0020-25CA"
  />
<missing-glyph horiz-adv-x="941" 
d="M471 -15q171 4 288 119t122 292q-5 173 -122 289t-288 121q-173 -5 -290 -122q-116 -117 -121 -288q4 -171 119 -289q115 -117 292 -122v0zM471 70q-139 3 -231 95t-95 231q3 139 95 230q92 92 231 95q138 -3 230 -95q92 -91 95 -230q-3 -139 -95 -231t-230 -95v0z
M365 445q31 1 52 21t22 52q-1 30 -22 50t-52 21q-32 -1 -52 -21q-21 -20 -22 -50q1 -32 22 -52q20 -20 52 -21v0zM584 445q31 1 52 21q20 20 21 52q-1 30 -21 50q-21 20 -52 21q-31 -1 -51 -21t-21 -50q1 -32 21 -52t51 -21v0zM471 158q103 1 173 56q70 56 73 157l-72 10
q0 -46 -39 -86q-40 -40 -135 -43q-96 3 -135 43t-40 86l-72 -10q3 -99 72 -156q69 -56 175 -57v0z" />
    <glyph glyph-name=".notdef" horiz-adv-x="941" 
d="M471 -15q171 4 288 119t122 292q-5 173 -122 289t-288 121q-173 -5 -290 -122q-116 -117 -121 -288q4 -171 119 -289q115 -117 292 -122v0zM471 70q-139 3 -231 95t-95 231q3 139 95 230q92 92 231 95q138 -3 230 -95q92 -91 95 -230q-3 -139 -95 -231t-230 -95v0z
M365 445q31 1 52 21t22 52q-1 30 -22 50t-52 21q-32 -1 -52 -21q-21 -20 -22 -50q1 -32 22 -52q20 -20 52 -21v0zM584 445q31 1 52 21q20 20 21 52q-1 30 -21 50q-21 20 -52 21q-31 -1 -51 -21t-21 -50q1 -32 21 -52t51 -21v0zM471 158q103 1 173 56q70 56 73 157l-72 10
q0 -46 -39 -86q-40 -40 -135 -43q-96 3 -135 43t-40 86l-72 -10q3 -99 72 -156q69 -56 175 -57v0z" />
    <glyph glyph-name=".null" 
 />
    <glyph glyph-name="nonmarkingreturn" horiz-adv-x="333" 
 />
    <glyph glyph-name="space" unicode=" " horiz-adv-x="300" 
 />
    <glyph glyph-name="exclam" unicode="!" horiz-adv-x="249" 
d="M84 267h81l1 523h-83zM125 -11q26 1 45 19t20 46q-1 28 -19 46q-18 17 -46 18q-28 -1 -46 -18q-18 -18 -19 -46q1 -28 19 -46t46 -19v0z" />
    <glyph glyph-name="quotedbl" unicode="&#x22;" horiz-adv-x="379" 
d="M80 574h41l20 216h-81zM258 574h41l20 216h-81z" />
    <glyph glyph-name="numbersign" unicode="#" horiz-adv-x="976" 
d="M208 0h88l53 233l208 1l-53 -234h87l53 234h183v79h-165l43 186h172v80h-154l48 211h-87l-48 -211l-208 -1l48 212h-88l-48 -212h-191v-80h173l-42 -185h-181v-80h163zM367 313l43 185l208 1l-43 -186h-208z" />
    <glyph glyph-name="dollar" unicode="$" horiz-adv-x="772" 
d="M691 225q-5 124 -86 165q-82 42 -186 51v282q77 -9 121 -52q43 -43 49 -114h92q-2 103 -72 170q-71 66 -190 77v86h-81v-86q-115 -12 -182 -71t-68 -148q4 -122 78 -165t172 -53v-299q-82 12 -127 61q-46 48 -49 128h-95q2 -120 74 -189q72 -70 197 -82v-86h81v85
q133 11 202 77q70 65 70 163v0zM180 571q0 65 40 104q41 39 118 48v-271q-68 9 -112 34q-44 26 -46 85v0zM419 66v290q76 -8 127 -35q51 -26 53 -95q0 -70 -46 -111q-47 -42 -134 -49v0z" />
    <glyph glyph-name="percent" unicode="%" horiz-adv-x="1153" 
d="M282 423q82 2 132 55t51 139q-1 86 -51 139q-50 52 -132 54q-82 -2 -132 -54q-50 -53 -51 -139q1 -86 51 -139t132 -55v0zM355 0l549 790h-105l-549 -790h105zM282 495q-47 1 -75 34t-29 88q1 54 29 88q28 33 75 34q47 -1 75 -34q28 -34 29 -88q-1 -55 -29 -88t-75 -34v0
zM871 -10q82 1 132 54t51 139q-1 86 -51 139t-132 55q-82 -2 -132 -55t-51 -139q1 -86 51 -138q50 -53 132 -55v0zM871 61q-47 1 -75 34q-28 34 -29 88q1 55 29 88t75 34q47 -1 75 -34t29 -88q-1 -54 -29 -88q-28 -33 -75 -34v0z" />
    <glyph glyph-name="ampersand" unicode="&#x26;" horiz-adv-x="862" 
d="M355 -16q78 0 144 23q65 22 117 65l79 -72h131l-149 134q44 56 70 129t32 161h-92q-5 -71 -23 -129q-18 -59 -50 -103l-212 190q99 39 155 96q56 56 57 135q-1 90 -60 141t-158 52q-111 -1 -175 -54q-64 -54 -65 -151q1 -48 27 -96t70 -95q-79 -36 -122 -87
q-44 -52 -45 -115q1 -106 73 -164q72 -59 196 -60v0zM336 442q-42 41 -65 80q-24 39 -24 76q1 60 39 94q39 33 109 33q59 0 93 -32q35 -32 36 -89q0 -55 -48 -94q-48 -40 -140 -68v0zM364 66q-86 1 -136 37q-49 36 -50 93q-1 44 32 82q32 38 106 70l237 -218
q-76 -63 -189 -64v0z" />
    <glyph glyph-name="quotesingle" unicode="'" horiz-adv-x="201" 
d="M80 574h41l20 216h-81z" />
    <glyph glyph-name="parenleft" unicode="(" horiz-adv-x="448" 
d="M260 -103h89q-77 97 -122 228q-45 132 -46 276q1 136 46 262t122 221h-89q-76 -93 -118 -219t-43 -264q1 -148 43 -279q42 -132 118 -225v0z" />
    <glyph glyph-name="parenright" unicode=")" horiz-adv-x="487" 
d="M227 -103q76 93 118 225q42 131 43 279q-1 138 -43 264t-118 219h-90q77 -95 122 -221t46 -262q-1 -144 -46 -276q-45 -131 -122 -228h90z" />
    <glyph glyph-name="asterisk" unicode="*" horiz-adv-x="632" 
d="M275 352h83l-18 173l134 -113l47 69l-165 89l165 88l-47 69l-134 -112l18 175h-83l17 -175l-133 112l-47 -69l164 -88l-164 -89l47 -69l133 113z" />
    <glyph glyph-name="plus" unicode="+" horiz-adv-x="717" 
d="M320 97h78v209h221v78h-222v213h-78v-214h-220v-78h221v-208z" />
    <glyph glyph-name="comma" unicode="," horiz-adv-x="246" 
d="M48 -103h57l89 208h-96z" />
    <glyph glyph-name="hyphen" unicode="-" horiz-adv-x="697" 
d="M99 331h500v82h-500v-82z" />
    <glyph glyph-name="period" unicode="." horiz-adv-x="246" 
d="M124 -11q26 1 45 19q18 18 19 46q-1 28 -19 46q-18 17 -45 18q-28 -1 -47 -18q-18 -18 -19 -46q1 -28 19 -46q19 -18 47 -19v0z" />
    <glyph glyph-name="slash" unicode="/" horiz-adv-x="849" 
d="M203 0l549 790h-106l-549 -790h106z" />
    <glyph glyph-name="zero" unicode="0" horiz-adv-x="763" 
d="M384 -16q150 1 233 110q82 108 83 305q-1 193 -83 300q-83 106 -233 107q-153 -1 -237 -107q-84 -107 -85 -300q1 -197 85 -305q84 -109 237 -110v0zM384 66q-109 1 -169 90q-60 88 -61 248q1 152 61 235q60 84 169 85q107 -1 165 -85q58 -83 59 -235q-1 -160 -59 -248
q-58 -89 -165 -90v0z" />
    <glyph glyph-name="one" unicode="1" horiz-adv-x="450" 
d="M272 0h87v790h-59l-264 -148v-97l236 131v-676z" />
    <glyph glyph-name="two" unicode="2" horiz-adv-x="682" 
d="M73 0h554v86h-449q48 138 230 214q182 75 206 261q-1 114 -70 179t-199 66q-143 -1 -213 -80q-70 -80 -58 -224h92q-15 105 30 163q46 58 146 59q88 -1 134 -45t46 -122q-28 -132 -224 -217q-197 -86 -225 -293v-47z" />
    <glyph glyph-name="three" unicode="3" horiz-adv-x="670" 
d="M338 -16q126 2 200 72t76 185q-2 110 -71 170q-70 61 -180 61l242 261v57h-531v-82h393l-240 -268l46 -49q14 6 34 9q19 3 37 3q84 -1 133 -45q49 -43 50 -117q-1 -80 -52 -127t-138 -48q-86 1 -137 54q-52 53 -56 143h-88q2 -124 78 -201q75 -76 204 -78v0z" />
    <glyph glyph-name="four" unicode="4" horiz-adv-x="719" 
d="M473 0h82v223h118v82h-118v485h-128l-380 -502v-65h426v-223zM164 305l309 412v-412h-309z" />
    <glyph glyph-name="five" unicode="5" horiz-adv-x="686" 
d="M340 -16q128 2 204 75q75 73 77 196q-2 118 -72 189q-71 72 -189 74q-51 0 -94 -14q-44 -14 -77 -39l26 243h380v82h-453l-45 -412l57 -24q31 37 78 60q46 22 98 23q92 -1 145 -49q53 -47 54 -126q-1 -88 -52 -141q-51 -54 -138 -55q-78 1 -126 48q-48 46 -54 122h-93
q3 -114 76 -182t198 -70v0z" />
    <glyph glyph-name="six" unicode="6" horiz-adv-x="702" 
d="M359 -16q120 2 194 76q75 74 77 196q-2 111 -72 178q-71 67 -190 69q-70 -1 -127 -31q-57 -31 -84 -83q8 161 61 247q53 87 143 88q70 -1 115 -40t56 -109l92 1q-14 110 -82 169q-67 60 -177 61q-138 -1 -215 -111q-78 -111 -79 -313q0 -192 72 -295q71 -102 216 -103v0z
M361 66q-80 1 -129 50t-50 128q1 80 51 129q49 50 130 51q79 -1 127 -50q48 -50 49 -129q-1 -80 -50 -129t-128 -50v0z" />
    <glyph glyph-name="seven" unicode="7" horiz-adv-x="641" 
d="M181 0h104l328 739v51h-584v-82h477z" />
    <glyph glyph-name="eight" unicode="8" horiz-adv-x="691" 
d="M346 -16q126 2 202 65q75 64 77 170q-1 70 -42 126q-42 56 -108 79q51 22 84 71q32 49 33 108q-2 91 -68 147q-67 55 -178 56q-112 -1 -179 -56q-66 -56 -68 -147q1 -59 33 -108q33 -49 84 -71q-66 -23 -108 -79q-41 -56 -42 -126q2 -106 77 -170q76 -63 203 -65v0z
M346 456q-70 1 -112 40t-43 102q1 57 43 92q42 34 112 35q69 -1 111 -35q42 -35 43 -92q-1 -63 -43 -102t-111 -40v0zM346 65q-84 1 -133 42q-50 41 -51 110q1 72 51 116q49 44 133 45q84 -1 133 -45t50 -116q-1 -69 -50 -110t-133 -42v0z" />
    <glyph glyph-name="nine" unicode="9" horiz-adv-x="701" 
d="M335 -16q138 1 216 114q79 114 80 329q0 180 -73 279q-72 99 -217 100q-120 -3 -194 -74q-75 -71 -77 -181q2 -123 73 -193q70 -70 189 -71q70 1 127 32q57 30 84 82q-8 -161 -61 -247q-53 -87 -143 -88q-70 1 -115 40t-56 109l-92 -1q14 -110 82 -169q67 -60 177 -61v0z
M337 366q-79 1 -127 51q-48 49 -49 128q1 80 50 129t128 50q80 -1 129 -50t50 -128q-1 -80 -51 -129q-49 -50 -130 -51v0z" />
    <glyph glyph-name="colon" unicode=":" horiz-adv-x="246" 
d="M124 361q26 1 45 19q18 18 19 46q-1 28 -19 46q-18 17 -45 18q-28 -1 -47 -18q-18 -18 -19 -46q1 -28 19 -46q19 -18 47 -19v0zM124 -11q26 1 45 19q18 18 19 46q-1 28 -19 46q-18 17 -45 18q-28 -1 -47 -18q-18 -18 -19 -46q1 -28 19 -46q19 -18 47 -19v0z" />
    <glyph glyph-name="semicolon" unicode=";" horiz-adv-x="248" 
d="M124 361q26 1 45 19q18 18 19 46q-1 28 -19 46q-18 17 -45 18q-28 -1 -47 -18q-18 -18 -19 -46q1 -28 19 -46q19 -18 47 -19v0zM27 -103h56l89 208h-95z" />
    <glyph glyph-name="less" unicode="&#x3c;" horiz-adv-x="697" 
d="M599 16v83l-416 181l416 181v83l-500 -215v-98z" />
    <glyph glyph-name="equal" unicode="=" horiz-adv-x="717" 
d="M99 406l520 1v79l-520 -1v-79zM99 199l520 1v78l-520 -1v-78z" />
    <glyph glyph-name="greater" unicode="&#x3e;" horiz-adv-x="697" 
d="M99 16l500 215v98l-500 215v-83l415 -181l-415 -181v-83z" />
    <glyph glyph-name="question" unicode="?" horiz-adv-x="645" 
d="M258 241h84q13 106 117 160q104 55 119 185q-1 106 -68 163q-66 56 -188 57q-137 -1 -205 -78q-69 -77 -58 -217h92q-14 101 30 157q44 55 138 56q81 -1 126 -38q44 -37 45 -104q-15 -99 -117 -148q-102 -48 -115 -193v0zM297 -11q26 1 45 19q18 18 19 46q-1 28 -18 46
q-18 17 -46 18q-28 -1 -47 -18q-18 -18 -19 -46q1 -28 19 -46q19 -18 47 -19v0z" />
    <glyph glyph-name="at" unicode="@" horiz-adv-x="1234" 
d="M624 -240q97 1 198 41q101 41 172 107l-56 54q-59 -56 -145 -90t-169 -35q-198 3 -319 125q-122 122 -125 323q3 204 125 328q121 124 319 127q192 -4 310 -108q118 -105 122 -277q0 -112 -37 -182q-36 -69 -95 -71q-38 1 -59 37t-19 100l26 301h-86l-6 -78
q-23 45 -64 69q-41 25 -100 25q-110 -2 -179 -76q-68 -75 -80 -198q-9 -124 48 -200q58 -76 168 -78q74 0 125 38q51 39 79 106q13 -55 47 -86q34 -32 92 -32q98 3 159 87q60 84 62 218q-4 216 -144 347t-369 134q-236 -5 -379 -150q-144 -144 -148 -381q4 -235 147 -378
q144 -143 380 -147v0zM587 78q-72 1 -112 57q-39 55 -33 146q10 91 59 145q49 55 122 56q74 -1 113 -56q39 -54 32 -145q-9 -91 -58 -146q-50 -56 -123 -57v0z" />
    <glyph glyph-name="A" unicode="A" horiz-adv-x="850" 
d="M19 0h98l92 211h432l93 -211h97l-350 790h-112zM245 293l181 409l179 -409h-360z" />
    <glyph glyph-name="B" unicode="B" horiz-adv-x="763" 
d="M562 408q50 19 79 64q28 45 29 110q-1 96 -65 151q-64 56 -178 57h-336v-790h362q112 1 180 59q68 57 70 153q0 77 -37 128q-36 52 -104 68v0zM179 708h223q85 0 131 -35t46 -99q-1 -67 -45 -101q-45 -35 -127 -35h-228v270zM431 82h-252v279h256q84 0 129 -33
q45 -32 46 -97q0 -71 -47 -110q-46 -38 -132 -39v0z" />
    <glyph glyph-name="C" unicode="C" horiz-adv-x="866" 
d="M453 -16q135 2 232 81t123 211h-92q-20 -94 -93 -151q-74 -57 -178 -59q-133 2 -213 94q-81 92 -83 244q2 145 84 232q81 86 216 88q96 -2 167 -56q72 -53 91 -140h92q-23 126 -116 201t-232 77q-176 -3 -284 -114q-107 -111 -110 -293q3 -185 111 -299
q108 -113 285 -116v0z" />
    <glyph glyph-name="D" unicode="D" horiz-adv-x="859" 
d="M91 0h307q185 2 293 106q109 104 111 290q-2 188 -109 290q-108 103 -295 104h-307v-790zM179 80v630h219q148 -1 230 -83q81 -81 82 -230q-1 -151 -82 -233q-82 -83 -230 -84h-219z" />
    <glyph glyph-name="E" unicode="E" horiz-adv-x="750" 
d="M91 0h582v82h-494v282h454v80h-454v264h489v82h-577v-790z" />
    <glyph glyph-name="F" unicode="F" horiz-adv-x="715" 
d="M91 0h88v365h454v81h-454v264h489v80h-577v-790z" />
    <glyph glyph-name="G" unicode="G" horiz-adv-x="883" 
d="M444 -16q105 0 175 41q69 40 106 115l1 -140h80v406h-368v-79h280q-4 -109 -78 -184q-73 -74 -195 -77q-135 2 -214 94q-80 92 -82 244q2 145 83 232q81 86 217 88q96 -2 167 -50q72 -48 91 -126h92q-24 117 -117 187q-93 69 -231 71q-178 -3 -284 -114
q-107 -111 -110 -293q3 -185 107 -299q105 -113 280 -116v0z" />
    <glyph glyph-name="H" unicode="H" horiz-adv-x="838" 
d="M91 0h88v365h481v-365h87v790h-87v-343h-481v343h-88v-790z" />
    <glyph glyph-name="I" unicode="I" horiz-adv-x="270" 
d="M91 0h88v790h-88v-790z" />
    <glyph glyph-name="J" unicode="J" horiz-adv-x="656" 
d="M299 -13q134 0 202 72q68 71 68 213v518h-87v-512q0 -209 -183 -209q-91 0 -137 49q-45 49 -45 147h-87q0 -278 269 -278v0z" />
    <glyph glyph-name="K" unicode="K" horiz-adv-x="809" 
d="M91 0h88v220l171 163l314 -383h119l-369 444l363 346h-124l-474 -451v451h-88v-790z" />
    <glyph glyph-name="L" unicode="L" horiz-adv-x="698" 
d="M91 0h579v79h-491v711h-88v-790z" />
    <glyph glyph-name="M" unicode="M" horiz-adv-x="1052" 
d="M91 0h88v682l297 -682h100l298 682v-682h87v790h-143l-292 -698l-292 698h-143v-790z" />
    <glyph glyph-name="N" unicode="N" horiz-adv-x="856" 
d="M91 0h88v681l472 -681h113v790h-87v-677l-469 677h-117v-790z" />
    <glyph glyph-name="O" unicode="O" horiz-adv-x="904" 
d="M455 -16q177 3 283 116q106 114 109 299q-3 182 -109 293t-283 114q-180 -3 -287 -114q-108 -111 -111 -293q3 -185 111 -299q107 -113 287 -116v0zM455 66q-139 3 -221 95q-83 92 -85 243q2 143 85 230q82 88 221 90q136 -2 217 -90q81 -87 83 -230q-2 -151 -83 -243
t-217 -95v0z" />
    <glyph glyph-name="P" unicode="P" horiz-adv-x="741" 
d="M91 0h88v337h254q130 1 195 61t65 167t-65 165q-65 59 -195 60h-342v-790zM179 419v289h235q96 -1 142 -38q45 -38 45 -106q0 -69 -44 -107q-45 -37 -138 -38h-240z" />
    <glyph glyph-name="Q" unicode="Q" horiz-adv-x="905" 
d="M911 0l-141 139q37 53 57 118q20 66 20 142q-3 182 -109 293t-283 114q-180 -3 -287 -114q-108 -111 -111 -293q3 -185 111 -299q107 -113 287 -116q79 0 145 25q67 25 118 71l80 -80h113zM455 66q-139 3 -221 95q-83 92 -85 243q2 143 85 230q82 88 221 90
q136 -2 217 -90q81 -87 83 -230q0 -58 -13 -108t-38 -91l-197 195h-112l259 -258q-38 -36 -89 -56q-50 -20 -110 -20v0z" />
    <glyph glyph-name="R" unicode="R" horiz-adv-x="762" 
d="M91 0h88v340h246q90 2 124 -23q33 -26 41 -109q6 -62 8 -116q2 -55 17 -92h89v7q-17 42 -18 97t-11 138q-9 60 -34 91q-26 32 -73 43q58 21 91 71t34 118q0 107 -65 165q-65 59 -195 60h-342v-790zM179 419v289h236q96 -1 141 -38q45 -38 45 -106q0 -69 -44 -107
q-44 -37 -137 -38h-241z" />
    <glyph glyph-name="S" unicode="S" horiz-adv-x="759" 
d="M384 -16q150 2 228 70q78 67 79 171q-32 216 -255 214q-224 -3 -256 132q0 73 51 113t147 41q96 -1 150 -44q54 -44 61 -124h92q-2 112 -84 180q-82 67 -216 69q-133 -2 -212 -62q-79 -61 -81 -159q32 -223 256 -218q223 4 255 -141q0 -76 -54 -118q-55 -42 -157 -43
q-106 1 -164 51t-62 141h-95q2 -131 87 -201q86 -71 230 -72v0z" />
    <glyph glyph-name="T" unicode="T" horiz-adv-x="753" 
d="M333 0h87v704h324v86h-735v-86h324v-704z" />
    <glyph glyph-name="U" unicode="U" horiz-adv-x="835" 
d="M418 -13q157 0 244 90q86 89 87 254v459h-87v-458q-1 -125 -64 -193q-64 -69 -180 -70q-116 1 -180 70q-64 68 -65 193v458h-87v-459q1 -162 88 -251q86 -90 244 -93v0z" />
    <glyph glyph-name="V" unicode="V" horiz-adv-x="834" 
d="M361 0h112l342 790h-96l-302 -699l-302 699h-96z" />
    <glyph glyph-name="W" unicode="W" horiz-adv-x="1213" 
d="M293 0h112l194 665l209 -665h112l261 790h-98l-217 -693l-213 693h-110l-197 -690l-215 690h-99z" />
    <glyph glyph-name="X" unicode="X" horiz-adv-x="838" 
d="M31 0h112l275 329l276 -329h112l-329 394l330 396h-112l-276 -330l-275 330h-113l330 -395z" />
    <glyph glyph-name="Y" unicode="Y" horiz-adv-x="803" 
d="M358 0h87v306l340 484h-102l-281 -402l-282 402h-101l339 -484v-306z" />
    <glyph glyph-name="Z" unicode="Z" horiz-adv-x="804" 
d="M63 0h671v84h-544l557 655v51h-690v-84h555l-549 -639v-67z" />
    <glyph glyph-name="bracketleft" unicode="[" horiz-adv-x="499" 
d="M99 -124l301 1v81h-214v864l214 1v81h-301v-1028z" />
    <glyph glyph-name="backslash" unicode="\" horiz-adv-x="849" 
d="M646 0h106l-549 790h-106z" />
    <glyph glyph-name="bracketright" unicode="]" horiz-adv-x="499" 
d="M400 -124v1028h-301v-81l214 -1v-864h-214v-81z" />
    <glyph glyph-name="asciicircum" unicode="^" horiz-adv-x="749" 
d="M99 400h87l189 335l188 -335h87l-209 390h-131z" />
    <glyph glyph-name="underscore" unicode="_" horiz-adv-x="743" 
d="M99 -80l545 1v79l-545 -1v-79z" />
    <glyph glyph-name="a" unicode="a" horiz-adv-x="612" 
d="M243 -16q72 0 121 31q49 30 70 87q2 -65 34 -91q31 -27 97 -7l1 60q-30 -3 -40 9q-10 13 -9 45v231q0 88 -54 137q-53 49 -159 50q-103 -1 -159 -50q-55 -50 -56 -140h79q0 55 35 85q34 31 99 31q68 0 100 -29q31 -30 30 -84v-35l-128 -14q-233 -24 -233 -163
q0 -61 43 -106t129 -47v0zM262 54q-59 2 -82 28q-24 26 -23 56q0 40 41 63t124 32l109 10q-3 -81 -50 -134q-48 -53 -119 -55v0z" />
    <glyph glyph-name="b" unicode="b" horiz-adv-x="627" 
d="M335 -16q105 2 169 78t66 200q-2 122 -66 197t-169 77q-56 0 -100 -27t-72 -75v356h-86v-790h86v86q28 -48 72 -75t100 -27v0zM321 58q-73 2 -117 57q-45 55 -46 146q1 90 46 145q44 55 117 56q73 -1 118 -56q44 -55 45 -145q-1 -91 -45 -146q-45 -55 -118 -57v0z" />
    <glyph glyph-name="c" unicode="c" horiz-adv-x="596" 
d="M319 -16q92 2 152 52t73 130h-86q-8 -47 -46 -77t-96 -31q-76 1 -123 57q-47 55 -48 146q1 91 48 145q47 55 123 56q57 -1 95 -31q37 -31 47 -79h86q-14 80 -74 131t-151 53q-118 -2 -189 -77t-73 -198q2 -124 73 -199q71 -76 189 -78v0z" />
    <glyph glyph-name="d" unicode="d" horiz-adv-x="627" 
d="M292 -16q57 0 100 27q44 27 72 75v-86h86v790h-86v-356q-28 48 -72 75q-43 27 -100 27q-105 -2 -169 -77t-66 -197q2 -124 66 -200t169 -78v0zM306 58q-73 2 -117 57q-45 55 -46 146q1 90 46 145q44 55 117 56q73 -1 117 -56q45 -55 46 -145q-1 -91 -46 -146
q-44 -55 -117 -57v0z" />
    <glyph glyph-name="e" unicode="e" horiz-adv-x="607" 
d="M319 -16q91 2 151 48q59 47 72 114h-85q-9 -34 -45 -61q-37 -27 -95 -29q-76 1 -121 49q-44 48 -50 127h403v38q-3 131 -69 199q-67 67 -161 67q-117 -2 -189 -77q-71 -75 -73 -198q2 -124 73 -199q72 -76 189 -78v0zM147 302q10 74 53 116q44 43 116 44q63 -1 103 -44
t44 -116h-316z" />
    <glyph glyph-name="f" unicode="f" horiz-adv-x="404" 
d="M143 0h86v445h153v75h-153v82q0 62 26 90q26 27 83 26h43v71l-33 1q-106 5 -156 -43q-50 -49 -49 -161v-66h-124v-75h124v-445z" />
    <glyph glyph-name="g" unicode="g" horiz-adv-x="628" 
d="M311 -216q112 0 176 61q63 61 64 184v491h-86v-79q-26 45 -69 70q-42 25 -102 25q-110 -2 -172 -76q-62 -75 -63 -199q1 -123 63 -196q62 -72 172 -74q60 0 102 23q43 24 69 68v-53q0 -89 -41 -132t-112 -43q-66 0 -109 25t-50 75h-86q9 -83 74 -127q65 -43 170 -43v0z
M307 63q-73 1 -117 55q-45 53 -46 144q1 91 46 146q44 55 117 56q74 -1 118 -56t45 -146q-1 -91 -45 -144q-44 -54 -118 -55v0z" />
    <glyph glyph-name="h" unicode="h" horiz-adv-x="606" 
d="M77 0h86v258q1 92 46 147q44 56 120 57q60 0 91 -38q32 -37 32 -106v-318h86v320q0 109 -48 162q-47 54 -142 54q-65 -1 -111 -29q-46 -29 -74 -78v361h-86v-790z" />
    <glyph glyph-name="i" unicode="i" horiz-adv-x="237" 
d="M119 604q26 1 45 19t20 46q-1 28 -19 46q-18 17 -46 18q-28 -1 -46 -18q-18 -18 -19 -46q1 -28 19 -46t46 -19v0zM76 0h86v520h-86v-520z" />
    <glyph glyph-name="j" unicode="j" horiz-adv-x="237" 
d="M119 604q26 1 45 19t20 46q-1 28 -19 46q-18 17 -46 18q-28 -1 -46 -18q-18 -18 -19 -46q1 -28 19 -46t46 -19v0zM-50 -200h22q94 -1 142 46q48 46 48 153v521h-85v-515q0 -74 -26 -103q-26 -30 -79 -29h-22v-73z" />
    <glyph glyph-name="k" unicode="k" horiz-adv-x="587" 
d="M77 0h86v208l73 60l220 -268h106l-265 318l245 202h-116l-263 -220v490h-86v-790z" />
    <glyph glyph-name="l" unicode="l" horiz-adv-x="240" 
d="M77 0h86v790h-86v-790z" />
    <glyph glyph-name="m" unicode="m" horiz-adv-x="982" 
d="M77 0h86v253q1 92 46 150q44 57 120 59q60 -1 91 -40q32 -40 32 -109v-313h86v253q1 92 46 150q45 57 120 59q60 -1 92 -40q32 -40 32 -109v-313h86v316q0 108 -48 164t-142 56q-66 -1 -117 -32q-51 -32 -83 -87q-38 119 -176 119q-65 -1 -111 -30q-46 -30 -74 -80v94
h-86v-520z" />
    <glyph glyph-name="n" unicode="n" horiz-adv-x="606" 
d="M77 0h86v253q1 92 46 150q44 57 120 59q60 -1 91 -40q32 -40 32 -109v-313h86v316q0 108 -48 164q-47 56 -142 56q-65 -1 -111 -30q-46 -30 -74 -80v94h-86v-520z" />
    <glyph glyph-name="o" unicode="o" horiz-adv-x="634" 
d="M317 -16q116 2 187 78q71 75 73 199q-2 123 -73 198t-187 77q-116 -2 -187 -77t-73 -198q2 -124 73 -199q71 -76 187 -78v0zM317 58q-77 2 -124 57t-48 146q1 90 48 145t124 56q77 -1 124 -56q48 -55 49 -145q-1 -91 -49 -146q-47 -55 -124 -57v0z" />
    <glyph glyph-name="p" unicode="p" horiz-adv-x="627" 
d="M77 -200h86v286q28 -48 72 -75t100 -27q105 2 169 77t66 197q-2 124 -66 200t-169 78q-56 0 -100 -27t-72 -75v86h-86v-720zM321 58q-73 2 -117 56q-45 55 -46 145q1 91 46 146q44 55 117 57q73 -2 118 -57q44 -55 45 -146q-1 -90 -45 -145q-45 -54 -118 -56v0z" />
    <glyph glyph-name="q" unicode="q" horiz-adv-x="627" 
d="M464 -200h86v720h-86v-86q-28 48 -72 75q-43 27 -100 27q-105 -2 -169 -78t-66 -200q2 -122 66 -197t169 -77q57 0 100 27q44 27 72 75v-286zM306 58q-73 2 -117 56q-45 55 -46 145q1 91 46 146q44 55 117 57q73 -2 117 -57q45 -55 46 -146q-1 -90 -46 -145
q-44 -54 -117 -56v0z" />
    <glyph glyph-name="r" unicode="r" horiz-adv-x="386" 
d="M77 0h80v297q1 71 57 110q55 39 152 40v79q-77 0 -130 -26q-53 -27 -79 -80v100h-80v-520z" />
    <glyph glyph-name="s" unicode="s" horiz-adv-x="556" 
d="M283 -16q101 1 158 43t58 113q-21 147 -170 151q-150 4 -171 87q0 39 32 64q31 24 88 25q65 0 101 -29q37 -29 40 -81h79q-7 83 -63 130q-55 48 -147 49q-101 -1 -158 -45t-58 -115q21 -142 171 -145q150 -4 171 -91q0 -39 -33 -63q-34 -23 -94 -24q-68 0 -107 28t-42 79
h-81q3 -83 63 -129t163 -47v0z" />
    <glyph glyph-name="t" unicode="t" horiz-adv-x="438" 
d="M360 1v76q-88 -9 -109 8t-17 81v279h154v75h-154v140h-86v-140h-111v-75h111v-305q-1 -106 54 -130q55 -23 158 -9v0z" />
    <glyph glyph-name="u" unicode="u" horiz-adv-x="606" 
d="M529 520h-86v-253q-1 -92 -45 -150q-45 -57 -120 -59q-60 1 -92 40q-32 40 -32 109v313h-86v-316q0 -108 48 -164t142 -56q65 1 111 30q46 30 74 80v-94h86v520z" />
    <glyph glyph-name="v" unicode="v" horiz-adv-x="639" 
d="M271 0h98l240 520h-92l-197 -427l-197 427h-93z" />
    <glyph glyph-name="w" unicode="w" horiz-adv-x="913" 
d="M222 0h88l147 405l145 -405h88l178 520h-92l-131 -411l-147 411h-84l-146 -411l-131 411h-93z" />
    <glyph glyph-name="x" unicode="x" horiz-adv-x="628" 
d="M37 0h106l169 200l168 -200h106l-217 258l222 262h-106l-170 -203l-171 203h-105l218 -260z" />
    <glyph glyph-name="y" unicode="y" horiz-adv-x="617" 
d="M70 -200h46q95 -1 156 35q61 37 96 126l213 559h-92l-157 -431l-204 431h-93l254 -538q-30 -59 -63 -84t-88 -24h-68v-74z" />
    <glyph glyph-name="z" unicode="z" horiz-adv-x="572" 
d="M49 0h456v76h-327l344 394v50h-454v-76h333l-352 -401v-43z" />
    <glyph glyph-name="braceleft" unicode="{" horiz-adv-x="585" 
d="M467 -123h19v76h-54q-60 0 -87 33t-27 100v159q-1 67 -38 102t-103 46q66 12 103 46q37 35 38 103v151q0 69 27 102t87 33h54v76h-19q-127 3 -182 -39t-54 -166v-129q-1 -75 -36 -108q-36 -34 -96 -33v-71q60 1 96 -33q35 -33 36 -109v-136q-1 -123 54 -164
q55 -42 182 -39v0z" />
    <glyph glyph-name="bar" unicode="|" horiz-adv-x="287" 
d="M100 -200h87v990h-87v-990z" />
    <glyph glyph-name="braceright" unicode="}" horiz-adv-x="585" 
d="M118 -123q127 -3 182 39q55 41 54 164v136q1 76 36 109q36 34 96 33v71q-60 -1 -96 33q-35 33 -36 108v129q1 124 -54 166t-182 39h-19v-76h54q60 0 87 -33t27 -102v-151q1 -68 38 -103q37 -34 103 -46q-66 -11 -103 -46t-38 -102v-159q0 -67 -27 -100t-87 -33h-54v-76
h19z" />
    <glyph glyph-name="asciitilde" unicode="~" horiz-adv-x="670" 
d="M427 290q67 1 106 39q40 38 39 103h-79q0 -30 -19 -49q-18 -18 -49 -19q-44 4 -83 34t-97 34q-67 -1 -107 -39q-39 -38 -39 -101h77q0 30 19 48t51 19q42 -4 81 -34q38 -31 100 -35v0z" />
    <glyph glyph-name="exclamdown" unicode="&#xa1;" horiz-adv-x="249" 
d="M125 801q-28 -1 -46 -19t-19 -46q1 -28 19 -45q18 -18 46 -19q28 1 46 19q18 17 19 45q-1 28 -20 46t-45 19v0zM84 523l-1 -523h83l-1 523h-81z" />
    <glyph glyph-name="cent" unicode="&#xa2;" horiz-adv-x="590" 
d="M316 58q-76 1 -123 57q-47 55 -48 146q1 91 48 145q47 55 123 56q57 -1 95 -31q37 -31 47 -79h86q-12 73 -64 123q-51 49 -130 59v86h-87v-89q-94 -19 -149 -91q-56 -72 -57 -179q1 -108 57 -180q55 -72 149 -92v-89h87v86q80 10 131 59t63 121h-86q-8 -47 -46 -77
t-96 -31v0z" />
    <glyph glyph-name="sterling" unicode="&#xa3;" horiz-adv-x="764" 
d="M226 81q50 35 81 89t32 127q0 8 -1 15q0 7 -1 13l282 1v78l-311 -1q-19 29 -35 66t-17 100q1 74 39 114q38 41 107 41q72 -1 115 -48q44 -47 46 -124h84q-2 106 -60 179q-58 72 -197 75q-106 -2 -165 -64t-60 -160q1 -61 15 -103t32 -76h-113v-78h145q3 -11 5 -23
q1 -12 1 -25q-1 -69 -37 -118t-95 -73v-87h546v82h-438z" />
    <glyph glyph-name="currency" unicode="&#xa4;" horiz-adv-x="766" 
d="M163 79l67 66q31 -21 70 -33q38 -12 82 -12t83 12t71 34l67 -67l63 62l-67 66q23 32 35 72q13 40 13 86q0 44 -12 83q-12 38 -33 70l63 63l-62 62l-63 -63q-32 23 -72 35q-40 13 -86 13t-86 -13q-40 -12 -72 -34l-62 62l-62 -62l63 -63q-21 -32 -33 -70q-12 -39 -12 -83
q0 -46 13 -86q13 -41 36 -73l-65 -66zM382 181q-82 1 -131 52q-50 50 -51 132q1 82 51 131q49 50 131 51q82 -1 132 -51q50 -49 51 -131q-1 -82 -51 -132q-50 -51 -132 -52v0z" />
    <glyph glyph-name="yen" unicode="&#xa5;" horiz-adv-x="803" 
d="M785 790h-102l-180 -257l-202 -1l-181 258h-101l181 -258h-91v-79h146l89 -128h-235v-79h249v-246h87v247h250v79h-236l90 128h146v79h-91zM402 388l-46 65l92 1z" />
    <glyph glyph-name="brokenbar" unicode="&#xa6;" horiz-adv-x="287" 
d="M100 367h87v423h-87v-423zM100 -200h87v423h-87v-423z" />
    <glyph glyph-name="section" unicode="&#xa7;" horiz-adv-x="598" 
d="M304 -39q106 1 166 45t61 119q-1 54 -24 86q-24 31 -61 46q41 21 63 55t22 78q-22 154 -179 157q-157 4 -179 93q0 41 33 67t93 27q67 0 106 -31q40 -31 43 -86h81q-7 87 -65 138q-59 50 -155 51q-105 -1 -165 -48q-60 -46 -61 -120q1 -53 25 -83q24 -31 62 -45
q-42 -23 -64 -58q-23 -35 -23 -79q22 -149 179 -152q157 -4 179 -96q0 -41 -35 -66t-98 -26q-71 0 -114 30q-42 29 -46 83h-81q3 -86 66 -135t171 -50v0zM305 298q-59 1 -95 24t-37 62q1 38 37 61t95 24q59 -1 97 -24t39 -61q-1 -39 -38 -62t-98 -24v0z" />
    <glyph glyph-name="copyright" unicode="&#xa9;" horiz-adv-x="1019" 
d="M510 -16q183 3 295 116q113 113 116 296q-3 182 -116 295q-112 112 -295 115q-183 -3 -295 -115q-113 -113 -116 -295q3 -183 116 -296q112 -113 295 -116v0zM510 55q-150 3 -241 96t-94 245q3 151 94 244q91 92 241 95q149 -3 240 -95q91 -93 94 -244q-3 -152 -94 -245
q-92 -93 -240 -96v0zM521 168q75 1 129 45t69 118h-52q-11 -53 -52 -84q-41 -32 -98 -33q-75 1 -119 52q-45 51 -46 136q1 81 46 129q46 48 121 49q53 -1 93 -30q39 -30 50 -79h52q-13 70 -65 112t-129 43q-98 -2 -158 -64t-62 -163q2 -103 62 -166q61 -63 159 -65v0z" />
    <glyph glyph-name="guillemotleft" unicode="&#xab;" horiz-adv-x="769" 
d="M319 0h97l-217 250l217 250h-97l-220 -250zM574 0h97l-217 250l217 250h-97l-220 -250z" />
    <glyph glyph-name="logicalnot" unicode="&#xac;" horiz-adv-x="762" 
d="M586 96l77 1l-2 306l-562 -1v-82l486 1z" />
    <glyph glyph-name="registered" unicode="&#xae;" horiz-adv-x="1019" 
d="M510 -16q183 3 295 116q113 113 116 296q-3 182 -116 295q-112 112 -295 115q-183 -3 -295 -115q-113 -113 -116 -295q3 -183 116 -296q112 -113 295 -116v0zM510 55q-150 3 -241 96t-94 245q3 151 94 244q91 92 241 95q149 -3 240 -95q91 -93 94 -244q-3 -152 -94 -245
q-92 -93 -240 -96v0zM355 192h49v190h137q50 1 69 -13q18 -15 22 -61q4 -34 5 -65q2 -30 10 -51h49v4q-9 24 -10 54q0 31 -6 77q-4 34 -19 51q-14 18 -41 24q33 12 51 39q19 28 19 66q0 60 -36 92q-37 33 -109 33h-190v-440zM404 426v161h131q54 0 79 -21t25 -60
q0 -38 -24 -59q-25 -21 -77 -21h-134z" />
    <glyph glyph-name="degree" unicode="&#xb0;" horiz-adv-x="564" 
d="M282 436q77 2 129 53q51 51 53 129q-2 78 -53 129t-129 53q-78 -2 -129 -53t-53 -129q2 -78 53 -129t129 -53v0zM282 514q-45 1 -74 30t-30 74q1 45 30 74t74 30q45 -1 74 -30t30 -74q-1 -45 -30 -74t-74 -30v0z" />
    <glyph glyph-name="plusminus" unicode="&#xb1;" horiz-adv-x="751" 
d="M350 97h78v209h221v78h-222v213h-78v-214h-220v-78h221v-208zM99 -80l545 1v79l-545 -1v-79z" />
    <glyph glyph-name="paragraph" unicode="&#xb6;" horiz-adv-x="790" 
d="M358 -200h87v990h-125q-128 -1 -199 -62q-70 -61 -71 -173q1 -121 71 -187q71 -67 199 -68h38v-500zM604 -200h88v990h-88v-990z" />
    <glyph glyph-name="periodcentered" unicode="&#xb7;" horiz-adv-x="246" 
d="M124 361q26 1 45 19q18 18 19 46q-1 28 -19 46q-18 17 -45 18q-28 -1 -47 -18q-18 -18 -19 -46q1 -28 19 -46q19 -18 47 -19v0z" />
    <glyph glyph-name="guillemotright" unicode="&#xbb;" horiz-adv-x="769" 
d="M196 0l220 250l-220 250h-97l217 -250l-217 -250h97zM451 0l220 250l-220 250h-97l217 -250l-217 -250h97z" />
    <glyph glyph-name="questiondown" unicode="&#xbf;" horiz-adv-x="645" 
d="M348 801q-26 -1 -45 -19t-20 -46q1 -28 19 -45q18 -18 46 -19q28 1 46 19q18 17 19 45q-1 28 -19 46t-46 19v0zM387 549h-84q-14 -106 -118 -160q-103 -55 -118 -185q1 -106 68 -163q66 -56 188 -57q137 1 205 78q69 77 58 217h-93q15 -101 -29 -157q-44 -55 -138 -56
q-82 1 -126 38t-45 104q15 99 116 148q102 48 116 193v0z" />
    <glyph glyph-name="Agrave" unicode="&#xc0;" horiz-adv-x="850" 
d="M444 870l-57 150h-100l108 -150h49zM19 0h98l92 211h432l93 -211h97l-350 790h-112zM245 293l181 409l179 -409h-360z" />
    <glyph glyph-name="Aacute" unicode="&#xc1;" horiz-adv-x="850" 
d="M406 870h49l108 150h-100zM19 0h98l92 211h432l93 -211h97l-350 790h-112zM245 293l181 409l179 -409h-360z" />
    <glyph glyph-name="Acircumflex" unicode="&#xc2;" horiz-adv-x="850" 
d="M281 870h63l77 108l77 -108h63l-101 150h-78zM19 0h98l92 211h432l93 -211h97l-350 790h-112zM245 293l181 409l179 -409h-360z" />
    <glyph glyph-name="Atilde" unicode="&#xc3;" horiz-adv-x="850" 
d="M492 901q50 1 79 32t29 84h-60q0 -25 -13 -40q-14 -16 -37 -16q-33 4 -62 28q-29 25 -72 28q-50 -1 -80 -32t-29 -83h57q0 24 14 40q14 15 38 15q32 -3 61 -28q29 -24 75 -28v0zM19 0h98l92 211h432l93 -211h97l-350 790h-112zM245 293l181 409l179 -409h-360z" />
    <glyph glyph-name="Adieresis" unicode="&#xc4;" horiz-adv-x="850" 
d="M337 873q26 1 45 19q18 18 19 46q-1 28 -18 46q-18 17 -46 18q-28 -1 -47 -18q-18 -18 -19 -46q1 -28 19 -46q19 -18 47 -19v0zM513 873q27 1 45 19t19 46q-1 28 -18 46q-18 17 -46 18q-28 -1 -46 -18q-18 -18 -19 -46q1 -28 19 -46t46 -19v0zM19 0h98l92 211h432
l93 -211h97l-350 790h-112zM245 293l181 409l179 -409h-360z" />
    <glyph glyph-name="Aring" unicode="&#xc5;" horiz-adv-x="850" 
d="M424 864q50 1 82 34q33 32 34 82q-1 50 -34 82q-32 33 -82 34q-50 -1 -82 -34q-33 -32 -34 -82q1 -50 34 -82q32 -33 82 -34v0zM424 923q-24 1 -40 17t-17 40q1 24 17 40t40 17q24 -1 40 -17t17 -40q-1 -24 -17 -40t-40 -17v0zM19 0h98l92 211h432l93 -211h97l-350 790
h-112zM245 293l181 409l179 -409h-360z" />
    <glyph glyph-name="AE" unicode="&#xc6;" horiz-adv-x="1269" 
d="M17 0h101l146 217h355v-217h573v82h-486v282h446v80h-446v264h481v82h-643zM318 300l274 408h27v-408h-301z" />
    <glyph glyph-name="Ccedilla" unicode="&#xc7;" horiz-adv-x="866" 
d="M808 276h-92q-20 -94 -93 -151q-74 -57 -178 -59q-133 2 -213 94q-81 92 -83 244q2 145 84 232q81 86 216 88q96 -2 167 -56q72 -53 91 -140h92q-23 126 -116 201t-232 77q-176 -3 -284 -114q-107 -111 -110 -293q3 -180 105 -293q103 -112 273 -122l-51 -83l26 -29
q8 5 21 9q12 4 29 4q27 0 45 -19q17 -19 18 -50q0 -33 -18 -52t-51 -19t-51 21q-18 20 -18 57h-53q1 -58 33 -90t89 -32q58 0 90 30t32 85q-2 59 -43 88q-40 29 -90 14l44 67q123 12 210 90q87 77 111 201v0z" />
    <glyph glyph-name="Egrave" unicode="&#xc8;" horiz-adv-x="750" 
d="M406 870l-57 150h-100l108 -150h49zM91 0h582v82h-494v282h454v80h-454v264h489v82h-577v-790z" />
    <glyph glyph-name="Eacute" unicode="&#xc9;" horiz-adv-x="750" 
d="M368 870h49l108 150h-100zM91 0h582v82h-494v282h454v80h-454v264h489v82h-577v-790z" />
    <glyph glyph-name="Ecircumflex" unicode="&#xca;" horiz-adv-x="750" 
d="M243 870h63l77 108l77 -108h63l-101 150h-78zM91 0h582v82h-494v282h454v80h-454v264h489v82h-577v-790z" />
    <glyph glyph-name="Edieresis" unicode="&#xcb;" horiz-adv-x="750" 
d="M299 873q26 1 45 19q18 18 19 46q-1 28 -18 46q-18 17 -46 18q-28 -1 -47 -18q-18 -18 -19 -46q1 -28 19 -46q19 -18 47 -19v0zM475 873q27 1 45 19t19 46q-1 28 -18 46q-18 17 -46 18q-28 -1 -46 -18q-18 -18 -19 -46q1 -28 19 -46t46 -19v0zM91 0h582v82h-494v282h454
v80h-454v264h489v82h-577v-790z" />
    <glyph glyph-name="Igrave" unicode="&#xcc;" horiz-adv-x="270" 
d="M155 870l-57 150h-100l108 -150h49zM91 0h88v790h-88v-790z" />
    <glyph glyph-name="Iacute" unicode="&#xcd;" horiz-adv-x="270" 
d="M117 870h49l108 150h-100zM91 0h88v790h-88v-790z" />
    <glyph glyph-name="Icircumflex" unicode="&#xce;" horiz-adv-x="270" 
d="M-8 870h63l77 108l77 -108h63l-101 150h-78zM91 0h88v790h-88v-790z" />
    <glyph glyph-name="Idieresis" unicode="&#xcf;" horiz-adv-x="270" 
d="M48 873q26 1 45 19q18 18 19 46q-1 28 -18 46q-18 17 -46 18q-28 -1 -47 -18q-18 -18 -19 -46q1 -28 19 -46q19 -18 47 -19v0zM224 873q27 1 45 19t19 46q-1 28 -18 46q-18 17 -46 18q-28 -1 -46 -18q-18 -18 -19 -46q1 -28 19 -46t46 -19v0zM91 0h88v790h-88v-790z" />
    <glyph glyph-name="Eth" unicode="&#xd0;" horiz-adv-x="859" 
d="M398 790h-307v-349h-91v-75h91v-366h307q185 2 293 106q109 104 111 290q-2 188 -109 290q-108 103 -295 104v0zM398 80h-219v286l361 1v75l-361 -1v269h219q148 -1 230 -83q81 -81 82 -230q-1 -151 -82 -233q-82 -83 -230 -84v0z" />
    <glyph glyph-name="Ntilde" unicode="&#xd1;" horiz-adv-x="856" 
d="M501 901q50 1 79 32t29 84h-60q0 -25 -13 -40q-14 -16 -37 -16q-33 4 -62 28q-29 25 -72 28q-50 -1 -80 -32t-29 -83h57q0 24 14 40q14 15 38 15q32 -3 61 -28q29 -24 75 -28v0zM91 0h88v681l472 -681h113v790h-87v-677l-469 677h-117v-790z" />
    <glyph glyph-name="Ograve" unicode="&#xd2;" horiz-adv-x="904" 
d="M475 870l-57 150h-100l108 -150h49zM455 -16q177 3 283 116q106 114 109 299q-3 182 -109 293t-283 114q-180 -3 -287 -114q-108 -111 -111 -293q3 -185 111 -299q107 -113 287 -116v0zM455 66q-139 3 -221 95q-83 92 -85 243q2 143 85 230q82 88 221 90q136 -2 217 -90
q81 -87 83 -230q-2 -151 -83 -243t-217 -95v0z" />
    <glyph glyph-name="Oacute" unicode="&#xd3;" horiz-adv-x="904" 
d="M437 870h49l108 150h-100zM455 -16q177 3 283 116q106 114 109 299q-3 182 -109 293t-283 114q-180 -3 -287 -114q-108 -111 -111 -293q3 -185 111 -299q107 -113 287 -116v0zM455 66q-139 3 -221 95q-83 92 -85 243q2 143 85 230q82 88 221 90q136 -2 217 -90
q81 -87 83 -230q-2 -151 -83 -243t-217 -95v0z" />
    <glyph glyph-name="Ocircumflex" unicode="&#xd4;" horiz-adv-x="904" 
d="M312 870h63l77 108l77 -108h63l-101 150h-78zM455 -16q177 3 283 116q106 114 109 299q-3 182 -109 293t-283 114q-180 -3 -287 -114q-108 -111 -111 -293q3 -185 111 -299q107 -113 287 -116v0zM455 66q-139 3 -221 95q-83 92 -85 243q2 143 85 230q82 88 221 90
q136 -2 217 -90q81 -87 83 -230q-2 -151 -83 -243t-217 -95v0z" />
    <glyph glyph-name="Otilde" unicode="&#xd5;" horiz-adv-x="904" 
d="M523 901q50 1 79 32t29 84h-60q0 -25 -13 -40q-14 -16 -37 -16q-33 4 -62 28q-29 25 -72 28q-50 -1 -80 -32t-29 -83h57q0 24 14 40q14 15 38 15q32 -3 61 -28q29 -24 75 -28v0zM455 -16q177 3 283 116q106 114 109 299q-3 182 -109 293t-283 114q-180 -3 -287 -114
q-108 -111 -111 -293q3 -185 111 -299q107 -113 287 -116v0zM455 66q-139 3 -221 95q-83 92 -85 243q2 143 85 230q82 88 221 90q136 -2 217 -90q81 -87 83 -230q-2 -151 -83 -243t-217 -95v0z" />
    <glyph glyph-name="Odieresis" unicode="&#xd6;" horiz-adv-x="904" 
d="M368 873q26 1 45 19q18 18 19 46q-1 28 -18 46q-18 17 -46 18q-28 -1 -47 -18q-18 -18 -19 -46q1 -28 19 -46q19 -18 47 -19v0zM544 873q27 1 45 19t19 46q-1 28 -18 46q-18 17 -46 18q-28 -1 -46 -18q-18 -18 -19 -46q1 -28 19 -46t46 -19v0zM455 -16q177 3 283 116
q106 114 109 299q-3 182 -109 293t-283 114q-180 -3 -287 -114q-108 -111 -111 -293q3 -185 111 -299q107 -113 287 -116v0zM455 66q-139 3 -221 95q-83 92 -85 243q2 143 85 230q82 88 221 90q136 -2 217 -90q81 -87 83 -230q-2 -151 -83 -243t-217 -95v0z" />
    <glyph glyph-name="multiply" unicode="&#xd7;" horiz-adv-x="610" 
d="M158 140l148 148l148 -148l57 60l-148 146l148 149l-58 58l-148 -148l-149 147l-57 -57l148 -148l-148 -149z" />
    <glyph glyph-name="Oslash" unicode="&#xd8;" horiz-adv-x="904" 
d="M761 665l70 76l-54 49l-67 -72q-50 42 -114 65t-141 23q-180 -3 -287 -114q-108 -111 -111 -293q0 -85 25 -157t72 -127l-79 -85l55 -48l77 83q50 -39 112 -60q63 -21 136 -21q177 3 283 116q106 114 109 299q0 79 -22 147q-23 67 -64 119v0zM149 404q2 143 85 230
q82 88 221 90q59 0 109 -18q49 -19 87 -52l-435 -471q-32 43 -50 99q-17 56 -17 122v0zM455 66q-56 0 -103 17q-48 16 -86 47l434 469q26 -40 41 -89q14 -49 14 -106q-2 -151 -83 -243t-217 -95v0z" />
    <glyph glyph-name="Ugrave" unicode="&#xd9;" horiz-adv-x="835" 
d="M438 880l-57 150h-100l108 -150h49zM418 -13q157 0 244 90q86 89 87 254v459h-87v-458q-1 -125 -64 -193q-64 -69 -180 -70q-116 1 -180 70q-64 68 -65 193v458h-87v-459q1 -162 88 -251q86 -90 244 -93v0z" />
    <glyph glyph-name="Uacute" unicode="&#xda;" horiz-adv-x="835" 
d="M400 880h49l108 150h-100zM418 -13q157 0 244 90q86 89 87 254v459h-87v-458q-1 -125 -64 -193q-64 -69 -180 -70q-116 1 -180 70q-64 68 -65 193v458h-87v-459q1 -162 88 -251q86 -90 244 -93v0z" />
    <glyph glyph-name="Ucircumflex" unicode="&#xdb;" horiz-adv-x="835" 
d="M275 880h63l77 108l77 -108h63l-101 150h-78zM418 -13q157 0 244 90q86 89 87 254v459h-87v-458q-1 -125 -64 -193q-64 -69 -180 -70q-116 1 -180 70q-64 68 -65 193v458h-87v-459q1 -162 88 -251q86 -90 244 -93v0z" />
    <glyph glyph-name="Udieresis" unicode="&#xdc;" horiz-adv-x="835" 
d="M331 883q26 1 45 19q18 18 19 46q-1 28 -18 46q-18 17 -46 18q-28 -1 -47 -18q-18 -18 -19 -46q1 -28 19 -46q19 -18 47 -19v0zM507 883q27 1 45 19t19 46q-1 28 -18 46q-18 17 -46 18q-28 -1 -46 -18q-18 -18 -19 -46q1 -28 19 -46t46 -19v0zM418 -13q157 0 244 90
q86 89 87 254v459h-87v-458q-1 -125 -64 -193q-64 -69 -180 -70q-116 1 -180 70q-64 68 -65 193v458h-87v-459q1 -162 88 -251q86 -90 244 -93v0z" />
    <glyph glyph-name="Yacute" unicode="&#xdd;" horiz-adv-x="803" 
d="M384 880h49l108 150h-100zM358 0h87v306l340 484h-102l-281 -402l-282 402h-101l339 -484v-306z" />
    <glyph glyph-name="Thorn" unicode="&#xde;" horiz-adv-x="754" 
d="M87 0h87v170h235q124 2 199 67q74 64 76 174q-2 109 -76 173q-75 64 -199 65h-235v141h-87v-790zM174 252v315h214q94 0 149 -41q54 -41 55 -117q-1 -75 -54 -116q-53 -40 -145 -41h-219z" />
    <glyph glyph-name="germandbls" unicode="&#xdf;" horiz-adv-x="745" 
d="M385 -16q137 2 218 71q80 69 82 186q-2 106 -70 170t-179 69l228 249v61h-573v-790h88v708h356l-224 -254l37 -54q32 13 75 13q79 -1 126 -48q48 -48 49 -126q-2 -78 -60 -126q-58 -47 -154 -48z" />
    <glyph glyph-name="agrave" unicode="&#xe0;" horiz-adv-x="612" 
d="M324 600l-57 150h-100l108 -150h49zM243 -16q72 0 121 31q49 30 70 87q2 -65 34 -91q31 -27 97 -7l1 60q-30 -3 -40 9q-10 13 -9 45v231q0 88 -54 137q-53 49 -159 50q-103 -1 -159 -50q-55 -50 -56 -140h79q0 55 35 85q34 31 99 31q68 0 100 -29q31 -30 30 -84v-35
l-128 -14q-233 -24 -233 -163q0 -61 43 -106t129 -47v0zM262 54q-59 2 -82 28q-24 26 -23 56q0 40 41 63t124 32l109 10q-3 -81 -50 -134q-48 -53 -119 -55v0z" />
    <glyph glyph-name="aacute" unicode="&#xe1;" horiz-adv-x="612" 
d="M286 600h49l108 150h-100zM243 -16q72 0 121 31q49 30 70 87q2 -65 34 -91q31 -27 97 -7l1 60q-30 -3 -40 9q-10 13 -9 45v231q0 88 -54 137q-53 49 -159 50q-103 -1 -159 -50q-55 -50 -56 -140h79q0 55 35 85q34 31 99 31q68 0 100 -29q31 -30 30 -84v-35l-128 -14
q-233 -24 -233 -163q0 -61 43 -106t129 -47v0zM262 54q-59 2 -82 28q-24 26 -23 56q0 40 41 63t124 32l109 10q-3 -81 -50 -134q-48 -53 -119 -55v0z" />
    <glyph glyph-name="acircumflex" unicode="&#xe2;" horiz-adv-x="612" 
d="M161 600h63l77 108l77 -108h63l-101 150h-78zM243 -16q72 0 121 31q49 30 70 87q2 -65 34 -91q31 -27 97 -7l1 60q-30 -3 -40 9q-10 13 -9 45v231q0 88 -54 137q-53 49 -159 50q-103 -1 -159 -50q-55 -50 -56 -140h79q0 55 35 85q34 31 99 31q68 0 100 -29q31 -30 30 -84
v-35l-128 -14q-233 -24 -233 -163q0 -61 43 -106t129 -47v0zM262 54q-59 2 -82 28q-24 26 -23 56q0 40 41 63t124 32l109 10q-3 -81 -50 -134q-48 -53 -119 -55v0z" />
    <glyph glyph-name="atilde" unicode="&#xe3;" horiz-adv-x="612" 
d="M372 631q50 1 79 32t29 84h-60q0 -25 -13 -40q-14 -16 -37 -16q-33 4 -62 28q-29 25 -72 28q-50 -1 -80 -32t-29 -83h57q0 24 14 40q14 15 38 15q32 -3 61 -28q29 -24 75 -28v0zM243 -16q72 0 121 31q49 30 70 87q2 -65 34 -91q31 -27 97 -7l1 60q-30 -3 -40 9
q-10 13 -9 45v231q0 88 -54 137q-53 49 -159 50q-103 -1 -159 -50q-55 -50 -56 -140h79q0 55 35 85q34 31 99 31q68 0 100 -29q31 -30 30 -84v-35l-128 -14q-233 -24 -233 -163q0 -61 43 -106t129 -47v0zM262 54q-59 2 -82 28q-24 26 -23 56q0 40 41 63t124 32l109 10
q-3 -81 -50 -134q-48 -53 -119 -55v0z" />
    <glyph glyph-name="adieresis" unicode="&#xe4;" horiz-adv-x="612" 
d="M217 603q26 1 45 19q18 18 19 46q-1 28 -18 46q-18 17 -46 18q-28 -1 -47 -18q-18 -18 -19 -46q1 -28 19 -46q19 -18 47 -19v0zM393 603q27 1 45 19t19 46q-1 28 -18 46q-18 17 -46 18q-28 -1 -46 -18q-18 -18 -19 -46q1 -28 19 -46t46 -19v0zM243 -16q72 0 121 31
q49 30 70 87q2 -65 34 -91q31 -27 97 -7l1 60q-30 -3 -40 9q-10 13 -9 45v231q0 88 -54 137q-53 49 -159 50q-103 -1 -159 -50q-55 -50 -56 -140h79q0 55 35 85q34 31 99 31q68 0 100 -29q31 -30 30 -84v-35l-128 -14q-233 -24 -233 -163q0 -61 43 -106t129 -47v0zM262 54
q-59 2 -82 28q-24 26 -23 56q0 40 41 63t124 32l109 10q-3 -81 -50 -134q-48 -53 -119 -55v0z" />
    <glyph glyph-name="aring" unicode="&#xe5;" horiz-adv-x="612" 
d="M304 594q50 1 82 34q33 32 34 82q-1 50 -34 82q-32 33 -82 34q-50 -1 -82 -34q-33 -32 -34 -82q1 -50 34 -82q32 -33 82 -34v0zM304 653q-24 1 -40 17t-17 40q1 24 17 40t40 17q24 -1 40 -17t17 -40q-1 -24 -17 -40t-40 -17v0zM243 -16q72 0 121 31q49 30 70 87
q2 -65 34 -91q31 -27 97 -7l1 60q-30 -3 -40 9q-10 13 -9 45v231q0 88 -54 137q-53 49 -159 50q-103 -1 -159 -50q-55 -50 -56 -140h79q0 55 35 85q34 31 99 31q68 0 100 -29q31 -30 30 -84v-35l-128 -14q-233 -24 -233 -163q0 -61 43 -106t129 -47v0zM262 54q-59 2 -82 28
q-24 26 -23 56q0 40 41 63t124 32l109 10q-3 -81 -50 -134q-48 -53 -119 -55v0z" />
    <glyph glyph-name="ae" unicode="&#xe6;" horiz-adv-x="986" 
d="M243 -16q81 1 139 39t83 106q31 -67 91 -106q59 -38 141 -39q92 2 151 48q60 47 73 114h-86q-9 -35 -45 -62t-94 -29q-77 1 -122 50q-44 49 -50 132h404v33q-3 131 -70 199q-66 67 -161 67q-65 0 -116 -25q-52 -25 -86 -71q-22 47 -70 71q-47 25 -121 25
q-103 -1 -159 -50q-55 -50 -56 -140h79q0 55 35 85q34 31 99 31q68 0 99 -29q31 -30 31 -84v-36l-160 -17q-110 -13 -156 -54t-45 -102q0 -62 43 -108t129 -48v0zM525 302q10 74 54 117q43 43 115 44q63 -1 103 -44q40 -44 44 -117h-316zM262 54q-59 2 -82 30q-24 28 -23 58
q0 45 41 63q41 19 124 27l109 11q-3 -82 -50 -135q-48 -52 -119 -54v0z" />
    <glyph glyph-name="ccedilla" unicode="&#xe7;" horiz-adv-x="596" 
d="M316 58q-76 1 -123 57q-47 55 -48 146q1 91 48 145q47 55 123 56q57 -1 95 -31q37 -31 47 -79h86q-14 80 -74 131t-151 53q-118 -2 -189 -77t-73 -198q2 -117 65 -191q64 -74 171 -85l-51 -84l26 -29q8 5 21 9q12 4 29 4q27 0 45 -19q17 -19 18 -50q0 -33 -18 -52
t-51 -19t-51 21q-18 20 -18 57h-53q1 -58 33 -90t89 -32q58 0 90 30t32 85q-2 59 -43 88q-40 29 -90 14l43 67q82 9 135 58t65 123h-86q-8 -47 -46 -77t-96 -31v0z" />
    <glyph glyph-name="egrave" unicode="&#xe8;" horiz-adv-x="607" 
d="M336 600l-57 150h-100l108 -150h49zM319 -16q91 2 151 48q59 47 72 114h-85q-9 -34 -45 -61q-37 -27 -95 -29q-76 1 -121 49q-44 48 -50 127h403v38q-3 131 -69 199q-67 67 -161 67q-117 -2 -189 -77q-71 -75 -73 -198q2 -124 73 -199q72 -76 189 -78v0zM147 302
q10 74 53 116q44 43 116 44q63 -1 103 -44t44 -116h-316z" />
    <glyph glyph-name="eacute" unicode="&#xe9;" horiz-adv-x="607" 
d="M298 600h49l108 150h-100zM319 -16q91 2 151 48q59 47 72 114h-85q-9 -34 -45 -61q-37 -27 -95 -29q-76 1 -121 49q-44 48 -50 127h403v38q-3 131 -69 199q-67 67 -161 67q-117 -2 -189 -77q-71 -75 -73 -198q2 -124 73 -199q72 -76 189 -78v0zM147 302q10 74 53 116
q44 43 116 44q63 -1 103 -44t44 -116h-316z" />
    <glyph glyph-name="ecircumflex" unicode="&#xea;" horiz-adv-x="607" 
d="M173 600h63l77 108l77 -108h63l-101 150h-78zM319 -16q91 2 151 48q59 47 72 114h-85q-9 -34 -45 -61q-37 -27 -95 -29q-76 1 -121 49q-44 48 -50 127h403v38q-3 131 -69 199q-67 67 -161 67q-117 -2 -189 -77q-71 -75 -73 -198q2 -124 73 -199q72 -76 189 -78v0z
M147 302q10 74 53 116q44 43 116 44q63 -1 103 -44t44 -116h-316z" />
    <glyph glyph-name="edieresis" unicode="&#xeb;" horiz-adv-x="607" 
d="M229 603q26 1 45 19q18 18 19 46q-1 28 -18 46q-18 17 -46 18q-28 -1 -47 -18q-18 -18 -19 -46q1 -28 19 -46q19 -18 47 -19v0zM405 603q27 1 45 19t19 46q-1 28 -18 46q-18 17 -46 18q-28 -1 -46 -18q-18 -18 -19 -46q1 -28 19 -46t46 -19v0zM319 -16q91 2 151 48
q59 47 72 114h-85q-9 -34 -45 -61q-37 -27 -95 -29q-76 1 -121 49q-44 48 -50 127h403v38q-3 131 -69 199q-67 67 -161 67q-117 -2 -189 -77q-71 -75 -73 -198q2 -124 73 -199q72 -76 189 -78v0zM147 302q10 74 53 116q44 43 116 44q63 -1 103 -44t44 -116h-316z" />
    <glyph glyph-name="igrave" unicode="&#xec;" horiz-adv-x="238" 
d="M139 600l-57 150h-100l108 -150h49zM76 0h86v520h-86v-520z" />
    <glyph glyph-name="iacute" unicode="&#xed;" horiz-adv-x="238" 
d="M101 600h49l108 150h-100zM76 0h86v520h-86v-520z" />
    <glyph glyph-name="icircumflex" unicode="&#xee;" horiz-adv-x="238" 
d="M-24 600h63l77 108l77 -108h63l-101 150h-78zM76 0h86v520h-86v-520z" />
    <glyph glyph-name="idieresis" unicode="&#xef;" horiz-adv-x="238" 
d="M32 603q26 1 45 19q18 18 19 46q-1 28 -18 46q-18 17 -46 18q-28 -1 -47 -18q-18 -18 -19 -46q1 -28 19 -46q19 -18 47 -19v0zM208 603q27 1 45 19t19 46q-1 28 -18 46q-18 17 -46 18q-28 -1 -46 -18q-18 -18 -19 -46q1 -28 19 -46t46 -19v0zM76 0h86v520h-86v-520z" />
    <glyph glyph-name="eth" unicode="&#xf0;" horiz-adv-x="645" 
d="M472 637l99 25l-26 78l-128 -32q-45 49 -93 82h-106q29 -23 58 -49t55 -55l-185 -47l27 -78l215 55q48 -66 78 -138q-32 28 -72 43t-85 15q-112 -2 -181 -74q-69 -71 -71 -189q2 -130 75 -208q74 -79 192 -81q133 3 198 89q66 85 66 217q-1 91 -32 181q-32 89 -84 166v0z
M322 58q-79 2 -128 57q-49 56 -50 147q1 89 49 144q48 54 127 56q81 -2 130 -57q50 -56 51 -144q-1 -89 -50 -145t-129 -58v0z" />
    <glyph glyph-name="ntilde" unicode="&#xf1;" horiz-adv-x="606" 
d="M385 631q50 1 79 32t29 84h-60q0 -25 -13 -40q-14 -16 -37 -16q-33 4 -62 28q-29 25 -72 28q-50 -1 -80 -32t-29 -83h57q0 24 14 40q14 15 38 15q32 -3 61 -28q29 -24 75 -28v0zM77 0h86v253q1 92 46 150q44 57 120 59q60 -1 91 -40q32 -40 32 -109v-313h86v316
q0 108 -48 164q-47 56 -142 56q-65 -1 -111 -30q-46 -30 -74 -80v94h-86v-520z" />
    <glyph glyph-name="ograve" unicode="&#xf2;" horiz-adv-x="634" 
d="M337 600l-57 150h-100l108 -150h49zM317 -16q116 2 187 78q71 75 73 199q-2 123 -73 198t-187 77q-116 -2 -187 -77t-73 -198q2 -124 73 -199q71 -76 187 -78v0zM317 58q-77 2 -124 57t-48 146q1 90 48 145t124 56q77 -1 124 -56q48 -55 49 -145q-1 -91 -49 -146
q-47 -55 -124 -57v0z" />
    <glyph glyph-name="oacute" unicode="&#xf3;" horiz-adv-x="634" 
d="M299 600h49l108 150h-100zM317 -16q116 2 187 78q71 75 73 199q-2 123 -73 198t-187 77q-116 -2 -187 -77t-73 -198q2 -124 73 -199q71 -76 187 -78v0zM317 58q-77 2 -124 57t-48 146q1 90 48 145t124 56q77 -1 124 -56q48 -55 49 -145q-1 -91 -49 -146q-47 -55 -124 -57
v0z" />
    <glyph glyph-name="ocircumflex" unicode="&#xf4;" horiz-adv-x="634" 
d="M174 600h63l77 108l77 -108h63l-101 150h-78zM317 -16q116 2 187 78q71 75 73 199q-2 123 -73 198t-187 77q-116 -2 -187 -77t-73 -198q2 -124 73 -199q71 -76 187 -78v0zM317 58q-77 2 -124 57t-48 146q1 90 48 145t124 56q77 -1 124 -56q48 -55 49 -145
q-1 -91 -49 -146q-47 -55 -124 -57v0z" />
    <glyph glyph-name="otilde" unicode="&#xf5;" horiz-adv-x="634" 
d="M385 631q50 1 79 32t29 84h-60q0 -25 -13 -40q-14 -16 -37 -16q-33 4 -62 28q-29 25 -72 28q-50 -1 -80 -32t-29 -83h57q0 24 14 40q14 15 38 15q32 -3 61 -28q29 -24 75 -28v0zM317 -16q116 2 187 78q71 75 73 199q-2 123 -73 198t-187 77q-116 -2 -187 -77t-73 -198
q2 -124 73 -199q71 -76 187 -78v0zM317 58q-77 2 -124 57t-48 146q1 90 48 145t124 56q77 -1 124 -56q48 -55 49 -145q-1 -91 -49 -146q-47 -55 -124 -57v0z" />
    <glyph glyph-name="odieresis" unicode="&#xf6;" horiz-adv-x="634" 
d="M230 603q26 1 45 19q18 18 19 46q-1 28 -18 46q-18 17 -46 18q-28 -1 -47 -18q-18 -18 -19 -46q1 -28 19 -46q19 -18 47 -19v0zM406 603q27 1 45 19t19 46q-1 28 -18 46q-18 17 -46 18q-28 -1 -46 -18q-18 -18 -19 -46q1 -28 19 -46t46 -19v0zM317 -16q116 2 187 78
q71 75 73 199q-2 123 -73 198t-187 77q-116 -2 -187 -77t-73 -198q2 -124 73 -199q71 -76 187 -78v0zM317 58q-77 2 -124 57t-48 146q1 90 48 145t124 56q77 -1 124 -56q48 -55 49 -145q-1 -91 -49 -146q-47 -55 -124 -57v0z" />
    <glyph glyph-name="divide" unicode="&#xf7;" horiz-adv-x="717" 
d="M360 454q26 1 45 19q18 18 19 46q-1 28 -19 46q-18 17 -45 18q-28 -1 -47 -18q-18 -18 -19 -46q1 -28 19 -46q19 -18 47 -19v0zM99 296l520 1v79l-520 -1v-79zM360 81q26 1 45 19q18 18 19 46q-1 27 -19 45t-45 19q-28 -1 -47 -19q-18 -18 -19 -45q1 -28 19 -46
q19 -18 47 -19v0z" />
    <glyph glyph-name="oslash" unicode="&#xf8;" horiz-adv-x="631" 
d="M521 438l40 45l-50 45l-37 -42q-32 24 -72 37q-39 13 -85 13q-116 -2 -187 -77t-73 -198q0 -53 15 -98q15 -46 41 -81l-43 -49l51 -44l40 45q32 -24 71 -37q40 -13 85 -13q116 2 187 78q71 75 73 199q0 53 -14 98q-15 44 -42 79v0zM145 261q1 90 48 145t124 56
q30 0 56 -9q26 -10 47 -27l-249 -279q-26 48 -26 114v0zM317 58q-30 0 -56 9q-26 10 -47 27l250 280q12 -24 19 -52q7 -29 7 -61q-1 -91 -49 -146q-47 -55 -124 -57v0z" />
    <glyph glyph-name="ugrave" unicode="&#xf9;" horiz-adv-x="606" 
d="M326 600l-57 150h-100l108 -150h49zM529 520h-86v-253q-1 -92 -45 -150q-45 -57 -120 -59q-60 1 -92 40q-32 40 -32 109v313h-86v-316q0 -108 48 -164t142 -56q65 1 111 30q46 30 74 80v-94h86v520z" />
    <glyph glyph-name="uacute" unicode="&#xfa;" horiz-adv-x="606" 
d="M288 600h49l108 150h-100zM529 520h-86v-253q-1 -92 -45 -150q-45 -57 -120 -59q-60 1 -92 40q-32 40 -32 109v313h-86v-316q0 -108 48 -164t142 -56q65 1 111 30q46 30 74 80v-94h86v520z" />
    <glyph glyph-name="ucircumflex" unicode="&#xfb;" horiz-adv-x="606" 
d="M163 600h63l77 108l77 -108h63l-101 150h-78zM529 520h-86v-253q-1 -92 -45 -150q-45 -57 -120 -59q-60 1 -92 40q-32 40 -32 109v313h-86v-316q0 -108 48 -164t142 -56q65 1 111 30q46 30 74 80v-94h86v520z" />
    <glyph glyph-name="udieresis" unicode="&#xfc;" horiz-adv-x="606" 
d="M219 603q26 1 45 19q18 18 19 46q-1 28 -18 46q-18 17 -46 18q-28 -1 -47 -18q-18 -18 -19 -46q1 -28 19 -46q19 -18 47 -19v0zM395 603q27 1 45 19t19 46q-1 28 -18 46q-18 17 -46 18q-28 -1 -46 -18q-18 -18 -19 -46q1 -28 19 -46t46 -19v0zM529 520h-86v-253
q-1 -92 -45 -150q-45 -57 -120 -59q-60 1 -92 40q-32 40 -32 109v313h-86v-316q0 -108 48 -164t142 -56q65 1 111 30q46 30 74 80v-94h86v520z" />
    <glyph glyph-name="yacute" unicode="&#xfd;" horiz-adv-x="617" 
d="M296 600h49l108 150h-100zM70 -200h46q95 -1 156 35q61 37 96 126l213 559h-92l-157 -431l-204 431h-93l254 -538q-30 -59 -63 -84t-88 -24h-68v-74z" />
    <glyph glyph-name="thorn" unicode="&#xfe;" horiz-adv-x="635" 
d="M77 -200h86v286q28 -48 72 -75t100 -27q105 2 169 77t66 197q-2 124 -66 200t-169 78q-56 0 -100 -27t-72 -75v356h-86v-990zM321 58q-73 2 -117 56q-45 55 -46 145q1 91 46 146q44 55 117 57q73 -2 118 -57q44 -55 45 -146q-1 -90 -45 -145q-45 -54 -118 -56v0z" />
    <glyph glyph-name="ydieresis" unicode="&#xff;" horiz-adv-x="617" 
d="M227 603q26 1 45 19q18 18 19 46q-1 28 -18 46q-18 17 -46 18q-28 -1 -47 -18q-18 -18 -19 -46q1 -28 19 -46q19 -18 47 -19v0zM403 603q27 1 45 19t19 46q-1 28 -18 46q-18 17 -46 18q-28 -1 -46 -18q-18 -18 -19 -46q1 -28 19 -46t46 -19v0zM70 -200h46q95 -1 156 35
q61 37 96 126l213 559h-92l-157 -431l-204 431h-93l254 -538q-30 -59 -63 -84t-88 -24h-68v-74z" />
    <glyph glyph-name="Amacron" unicode="&#x100;" horiz-adv-x="850" 
d="M214 903l420 1v60l-420 -1v-60zM19 0h98l92 211h432l93 -211h97l-350 790h-112zM245 293l181 409l179 -409h-360z" />
    <glyph glyph-name="amacron" unicode="&#x101;" horiz-adv-x="612" 
d="M131 633l346 1v60l-346 -1v-60zM243 -16q72 0 121 31q49 30 70 87q2 -65 34 -91q31 -27 97 -7l1 60q-30 -3 -40 9q-10 13 -9 45v231q0 88 -54 137q-53 49 -159 50q-103 -1 -159 -50q-55 -50 -56 -140h79q0 55 35 85q34 31 99 31q68 0 100 -29q31 -30 30 -84v-35l-128 -14
q-233 -24 -233 -163q0 -61 43 -106t129 -47v0zM262 54q-59 2 -82 28q-24 26 -23 56q0 40 41 63t124 32l109 10q-3 -81 -50 -134q-48 -53 -119 -55v0z" />
    <glyph glyph-name="Abreve" unicode="&#x102;" horiz-adv-x="850" 
d="M424 874q61 1 95 36q34 36 34 100h-60q0 -41 -18 -63q-18 -23 -51 -23t-51 23q-18 22 -18 63h-60q0 -64 34 -100q34 -35 95 -36v0zM19 0h98l92 211h432l93 -211h97l-350 790h-112zM245 293l181 409l179 -409h-360z" />
    <glyph glyph-name="abreve" unicode="&#x103;" horiz-adv-x="612" 
d="M304 604q61 1 95 36q34 36 34 100h-60q0 -41 -18 -63q-18 -23 -51 -23t-51 23q-18 22 -18 63h-60q0 -64 34 -100q34 -35 95 -36v0zM243 -16q72 0 121 31q49 30 70 87q2 -65 34 -91q31 -27 97 -7l1 60q-30 -3 -40 9q-10 13 -9 45v231q0 88 -54 137q-53 49 -159 50
q-103 -1 -159 -50q-55 -50 -56 -140h79q0 55 35 85q34 31 99 31q68 0 100 -29q31 -30 30 -84v-35l-128 -14q-233 -24 -233 -163q0 -61 43 -106t129 -47v0zM262 54q-59 2 -82 28q-24 26 -23 56q0 40 41 63t124 32l109 10q-3 -81 -50 -134q-48 -53 -119 -55v0z" />
    <glyph glyph-name="Aogonek" unicode="&#x104;" horiz-adv-x="850" 
d="M699 -87q0 26 13 48t36 39h83l-350 790h-112l-350 -790h98l92 211h432l82 -186q-42 -19 -65 -54q-23 -34 -23 -81q0 -52 46 -83q45 -30 130 -24v51q-54 0 -83 21t-29 58v0zM245 293l181 409l179 -409h-360z" />
    <glyph glyph-name="aogonek" unicode="&#x105;" horiz-adv-x="612" 
d="M474 -87q0 23 12 45q11 21 31 38q21 0 48 8l1 60q-30 -3 -40 9q-10 13 -9 45v231q0 88 -54 137q-53 49 -159 50q-103 -1 -159 -50q-55 -50 -56 -140h79q0 55 35 85q34 31 99 31q68 0 100 -29q31 -30 30 -84v-35l-128 -14q-233 -24 -233 -163q0 -61 43 -106t129 -47
q72 0 121 31q49 30 70 87q1 -34 10 -57q9 -24 26 -36q-29 -20 -44 -51q-16 -30 -16 -68q0 -52 46 -83q45 -30 130 -24v51q-54 0 -83 21t-29 58v0zM262 54q-59 2 -82 28q-24 26 -23 56q0 40 41 63t124 32l109 10q-3 -81 -50 -134q-48 -53 -119 -55v0z" />
    <glyph glyph-name="Cacute" unicode="&#x106;" horiz-adv-x="866" 
d="M433 870h49l108 150h-100zM453 -16q135 2 232 81t123 211h-92q-20 -94 -93 -151q-74 -57 -178 -59q-133 2 -213 94q-81 92 -83 244q2 145 84 232q81 86 216 88q96 -2 167 -56q72 -53 91 -140h92q-23 126 -116 201t-232 77q-176 -3 -284 -114q-107 -111 -110 -293
q3 -185 111 -299q108 -113 285 -116v0z" />
    <glyph glyph-name="cacute" unicode="&#x107;" horiz-adv-x="596" 
d="M300 600h49l108 150h-100zM319 -16q92 2 152 52t73 130h-86q-8 -47 -46 -77t-96 -31q-76 1 -123 57q-47 55 -48 146q1 91 48 145q47 55 123 56q57 -1 95 -31q37 -31 47 -79h86q-14 80 -74 131t-151 53q-118 -2 -189 -77t-73 -198q2 -124 73 -199q71 -76 189 -78v0z" />
    <glyph glyph-name="Cdotaccent" unicode="&#x10a;" horiz-adv-x="866" 
d="M451 874q26 1 45 19q18 18 19 46q-1 28 -18 46q-18 17 -46 18q-28 -1 -46 -18q-18 -18 -19 -46q1 -28 19 -46t46 -19v0zM453 -16q135 2 232 81t123 211h-92q-20 -94 -93 -151q-74 -57 -178 -59q-133 2 -213 94q-81 92 -83 244q2 145 84 232q81 86 216 88q96 -2 167 -56
q72 -53 91 -140h92q-23 126 -116 201t-232 77q-176 -3 -284 -114q-107 -111 -110 -293q3 -185 111 -299q108 -113 285 -116v0z" />
    <glyph glyph-name="cdotaccent" unicode="&#x10b;" horiz-adv-x="596" 
d="M318 604q26 1 45 19q18 18 19 46q-1 28 -18 46q-18 17 -46 18q-28 -1 -46 -18q-18 -18 -19 -46q1 -28 19 -46t46 -19v0zM319 -16q92 2 152 52t73 130h-86q-8 -47 -46 -77t-96 -31q-76 1 -123 57q-47 55 -48 146q1 91 48 145q47 55 123 56q57 -1 95 -31q37 -31 47 -79h86
q-14 80 -74 131t-151 53q-118 -2 -189 -77t-73 -198q2 -124 73 -199q71 -76 189 -78v0z" />
    <glyph glyph-name="Ccaron" unicode="&#x10c;" horiz-adv-x="866" 
d="M409 870h78l101 150h-63l-77 -108l-77 108h-63zM453 -16q135 2 232 81t123 211h-92q-20 -94 -93 -151q-74 -57 -178 -59q-133 2 -213 94q-81 92 -83 244q2 145 84 232q81 86 216 88q96 -2 167 -56q72 -53 91 -140h92q-23 126 -116 201t-232 77q-176 -3 -284 -114
q-107 -111 -110 -293q3 -185 111 -299q108 -113 285 -116v0z" />
    <glyph glyph-name="ccaron" unicode="&#x10d;" horiz-adv-x="596" 
d="M276 600h78l101 150h-63l-77 -108l-77 108h-63zM319 -16q92 2 152 52t73 130h-86q-8 -47 -46 -77t-96 -31q-76 1 -123 57q-47 55 -48 146q1 91 48 145q47 55 123 56q57 -1 95 -31q37 -31 47 -79h86q-14 80 -74 131t-151 53q-118 -2 -189 -77t-73 -198q2 -124 73 -199
q71 -76 189 -78v0z" />
    <glyph glyph-name="Dcaron" unicode="&#x10e;" horiz-adv-x="859" 
d="M316 880h78l101 150h-63l-77 -108l-77 108h-63zM91 0h307q185 2 293 106q109 104 111 290q-2 188 -109 290q-108 103 -295 104h-307v-790zM179 80v630h219q148 -1 230 -83q81 -81 82 -230q-1 -151 -82 -233q-82 -83 -230 -84h-219z" />
    <glyph glyph-name="dcaron" unicode="&#x10f;" horiz-adv-x="742" 
d="M292 -16q57 0 100 27q44 27 72 75v-86h86v790h-86v-356q-28 48 -72 75q-43 27 -100 27q-105 -2 -169 -77t-66 -197q2 -124 66 -200t169 -78v0zM574 640h49l108 150h-101zM306 58q-73 2 -117 57q-45 55 -46 146q1 90 46 145q44 55 117 56q73 -1 117 -56q45 -55 46 -145
q-1 -91 -46 -146q-44 -55 -117 -57v0z" />
    <glyph glyph-name="Dcroat" unicode="&#x110;" horiz-adv-x="859" 
d="M398 790h-307v-349h-91v-75h91v-366h307q185 2 293 106q109 104 111 290q-2 188 -109 290q-108 103 -295 104v0zM398 80h-219v286l361 1v75l-361 -1v269h219q148 -1 230 -83q81 -81 82 -230q-1 -151 -82 -233q-82 -83 -230 -84v0z" />
    <glyph glyph-name="dcroat" unicode="&#x111;" horiz-adv-x="627" 
d="M625 670h-75v120h-86v-120l-329 -1v-74l329 1v-162q-28 48 -72 75q-43 27 -100 27q-105 -2 -169 -77t-66 -197q2 -124 66 -200t169 -78q57 0 100 27q44 27 72 75v-86h86v596h75v74zM306 58q-73 2 -117 57q-45 55 -46 146q1 90 46 145q44 55 117 56q73 -1 117 -56
q45 -55 46 -145q-1 -91 -46 -146q-44 -55 -117 -57v0z" />
    <glyph glyph-name="Emacron" unicode="&#x112;" horiz-adv-x="750" 
d="M176 903l420 1v60l-420 -1v-60zM91 0h582v82h-494v282h454v80h-454v264h489v82h-577v-790z" />
    <glyph glyph-name="emacron" unicode="&#x113;" horiz-adv-x="607" 
d="M143 633l346 1v60l-346 -1v-60zM319 -16q91 2 151 48q59 47 72 114h-85q-9 -34 -45 -61q-37 -27 -95 -29q-76 1 -121 49q-44 48 -50 127h403v38q-3 131 -69 199q-67 67 -161 67q-117 -2 -189 -77q-71 -75 -73 -198q2 -124 73 -199q72 -76 189 -78v0zM147 302
q10 74 53 116q44 43 116 44q63 -1 103 -44t44 -116h-316z" />
    <glyph glyph-name="Edotaccent" unicode="&#x116;" horiz-adv-x="750" 
d="M386 874q26 1 45 19q18 18 19 46q-1 28 -18 46q-18 17 -46 18q-28 -1 -46 -18q-18 -18 -19 -46q1 -28 19 -46t46 -19v0zM91 0h582v82h-494v282h454v80h-454v264h489v82h-577v-790z" />
    <glyph glyph-name="edotaccent" unicode="&#x117;" horiz-adv-x="607" 
d="M316 604q26 1 45 19q18 18 19 46q-1 28 -18 46q-18 17 -46 18q-28 -1 -46 -18q-18 -18 -19 -46q1 -28 19 -46t46 -19v0zM319 -16q91 2 151 48q59 47 72 114h-85q-9 -34 -45 -61q-37 -27 -95 -29q-76 1 -121 49q-44 48 -50 127h403v38q-3 131 -69 199q-67 67 -161 67
q-117 -2 -189 -77q-71 -75 -73 -198q2 -124 73 -199q72 -76 189 -78v0zM147 302q10 74 53 116q44 43 116 44q63 -1 103 -44t44 -116h-316z" />
    <glyph glyph-name="Eogonek" unicode="&#x118;" horiz-adv-x="750" 
d="M417 0h256v82h-494v282h454v80h-454v264h489v82h-577v-790h262q-23 -20 -36 -48t-13 -62q0 -52 46 -83q45 -30 130 -24v51q-54 0 -83 21t-29 58q0 26 13 48t36 39v0z" />
    <glyph glyph-name="eogonek" unicode="&#x119;" horiz-adv-x="607" 
d="M549 270q-3 131 -69 199q-67 67 -161 67q-117 -2 -189 -77q-71 -75 -73 -198q1 -108 57 -180q56 -73 150 -92q-18 -20 -28 -45t-10 -54q0 -52 46 -83q45 -30 130 -24v51q-53 0 -82 21t-29 58q0 20 8 38t23 33q90 3 148 49q59 47 72 113h-85q-9 -34 -45 -61
q-37 -27 -95 -29q-76 1 -121 49q-44 48 -50 127h403v38zM147 302q10 74 53 116q44 43 116 44q63 -1 103 -44t44 -116h-316z" />
    <glyph glyph-name="Ecaron" unicode="&#x11a;" horiz-adv-x="750" 
d="M344 870h78l101 150h-63l-77 -108l-77 108h-63zM91 0h582v82h-494v282h454v80h-454v264h489v82h-577v-790z" />
    <glyph glyph-name="ecaron" unicode="&#x11b;" horiz-adv-x="607" 
d="M274 600h78l101 150h-63l-77 -108l-77 108h-63zM319 -16q91 2 151 48q59 47 72 114h-85q-9 -34 -45 -61q-37 -27 -95 -29q-76 1 -121 49q-44 48 -50 127h403v38q-3 131 -69 199q-67 67 -161 67q-117 -2 -189 -77q-71 -75 -73 -198q2 -124 73 -199q72 -76 189 -78v0z
M147 302q10 74 53 116q44 43 116 44q63 -1 103 -44t44 -116h-316z" />
    <glyph glyph-name="Gbreve" unicode="&#x11e;" horiz-adv-x="883" 
d="M451 874q61 1 95 36q34 36 34 100h-60q0 -41 -18 -63q-18 -23 -51 -23t-51 23q-18 22 -18 63h-60q0 -64 34 -100q34 -35 95 -36v0zM444 -16q105 0 175 41q69 40 106 115l1 -140h80v406h-368v-79h280q-4 -109 -78 -184q-73 -74 -195 -77q-135 2 -214 94q-80 92 -82 244
q2 145 83 232q81 86 217 88q96 -2 167 -50q72 -48 91 -126h92q-24 117 -117 187q-93 69 -231 71q-178 -3 -284 -114q-107 -111 -110 -293q3 -185 107 -299q105 -113 280 -116v0z" />
    <glyph glyph-name="gbreve" unicode="&#x11f;" horiz-adv-x="628" 
d="M316 584q61 1 95 36q34 36 34 100h-60q0 -41 -18 -63q-18 -23 -51 -23t-51 23q-18 22 -18 63h-60q0 -64 34 -100q34 -35 95 -36v0zM311 -216q112 0 176 61q63 61 64 184v491h-86v-79q-26 45 -69 70q-42 25 -102 25q-110 -2 -172 -76q-62 -75 -63 -199q1 -123 63 -196
q62 -72 172 -74q60 0 102 23q43 24 69 68v-53q0 -89 -41 -132t-112 -43q-66 0 -109 25t-50 75h-86q9 -83 74 -127q65 -43 170 -43v0zM307 63q-73 1 -117 55q-45 53 -46 144q1 91 46 146q44 55 117 56q74 -1 118 -56t45 -146q-1 -91 -45 -144q-44 -54 -118 -55v0z" />
    <glyph glyph-name="Gdotaccent" unicode="&#x120;" horiz-adv-x="883" 
d="M451 874q26 1 45 19q18 18 19 46q-1 28 -18 46q-18 17 -46 18q-28 -1 -46 -18q-18 -18 -19 -46q1 -28 19 -46t46 -19v0zM444 -16q105 0 175 41q69 40 106 115l1 -140h80v406h-368v-79h280q-4 -109 -78 -184q-73 -74 -195 -77q-135 2 -214 94q-80 92 -82 244q2 145 83 232
q81 86 217 88q96 -2 167 -50q72 -48 91 -126h92q-24 117 -117 187q-93 69 -231 71q-178 -3 -284 -114q-107 -111 -110 -293q3 -185 107 -299q105 -113 280 -116v0z" />
    <glyph glyph-name="gdotaccent" unicode="&#x121;" horiz-adv-x="628" 
d="M316 584q26 1 45 19q18 18 19 46q-1 28 -18 46q-18 17 -46 18q-28 -1 -46 -18q-18 -18 -19 -46q1 -28 19 -46t46 -19v0zM311 -216q112 0 176 61q63 61 64 184v491h-86v-79q-26 45 -69 70q-42 25 -102 25q-110 -2 -172 -76q-62 -75 -63 -199q1 -123 63 -196
q62 -72 172 -74q60 0 102 23q43 24 69 68v-53q0 -89 -41 -132t-112 -43q-66 0 -109 25t-50 75h-86q9 -83 74 -127q65 -43 170 -43v0zM307 63q-73 1 -117 55q-45 53 -46 144q1 91 46 146q44 55 117 56q74 -1 118 -56t45 -146q-1 -91 -45 -144q-44 -54 -118 -55v0z" />
    <glyph glyph-name="uni0122" unicode="&#x122;" horiz-adv-x="883" 
d="M444 -16q105 0 175 41q69 40 106 115l1 -140h80v406h-368v-79h280q-4 -109 -78 -184q-73 -74 -195 -77q-135 2 -214 94q-80 92 -82 244q2 145 83 232q81 86 217 88q96 -2 167 -50q72 -48 91 -126h92q-24 117 -117 187q-93 69 -231 71q-178 -3 -284 -114
q-107 -111 -110 -293q3 -185 107 -299q105 -113 280 -116v0zM369 -294h56l90 208h-96z" />
    <glyph glyph-name="uni0123" unicode="&#x123;" horiz-adv-x="628" 
d="M393 808h-56l-89 -208h96zM311 -216q112 0 176 61q63 61 64 184v491h-86v-79q-26 45 -69 70q-42 25 -102 25q-110 -2 -172 -76q-62 -75 -63 -199q1 -123 63 -196q62 -72 172 -74q60 0 102 23q43 24 69 68v-53q0 -89 -41 -132t-112 -43q-66 0 -109 25t-50 75h-86
q9 -83 74 -127q65 -43 170 -43v0zM307 63q-73 1 -117 55q-45 53 -46 144q1 91 46 146q44 55 117 56q74 -1 118 -56t45 -146q-1 -91 -45 -144q-44 -54 -118 -55v0z" />
    <glyph glyph-name="Hbar" unicode="&#x126;" horiz-adv-x="838" 
d="M853 659h-106v131h-87v-131l-481 -1v132h-88v-132h-97v-78h97v-580h88v365h481v-365h87v581h106v78zM660 447h-481v133l481 1v-134z" />
    <glyph glyph-name="hbar" unicode="&#x127;" horiz-adv-x="606" 
d="M348 536q-65 -1 -111 -29q-46 -29 -74 -78v166l352 1v74l-352 -1v121h-86v-121h-52v-74h52v-595h86v258q1 92 46 147q44 56 120 57q60 0 91 -38q32 -37 32 -106v-318h86v320q0 109 -48 162q-47 54 -142 54v0z" />
    <glyph glyph-name="Imacron" unicode="&#x12a;" horiz-adv-x="270" 
d="M-75 903l420 1v60l-420 -1v-60zM91 0h88v790h-88v-790z" />
    <glyph glyph-name="imacron" unicode="&#x12b;" horiz-adv-x="238" 
d="M-23 633l284 1v60l-284 -1v-60zM76 0h86v520h-86v-520z" />
    <glyph glyph-name="Iogonek" unicode="&#x12e;" horiz-adv-x="270" 
d="M104 -87q0 26 13 48t36 39h26v790h-88v-788q-25 -20 -38 -49q-14 -28 -14 -63q0 -52 46 -83q45 -30 130 -24v51q-53 0 -82 21t-29 58v0z" />
    <glyph glyph-name="iogonek" unicode="&#x12f;" horiz-adv-x="237" 
d="M119 604q26 1 45 19t20 46q-1 28 -19 46q-18 17 -46 18q-28 -1 -46 -18q-18 -18 -19 -46q1 -28 19 -46t46 -19v0zM92 -87q0 26 13 48t36 39h21v520h-86v-520h1q-23 -20 -36 -48t-13 -62q0 -52 46 -83q45 -30 130 -24v51q-54 0 -83 21t-29 58v0z" />
    <glyph glyph-name="Idotaccent" unicode="&#x130;" horiz-adv-x="270" 
d="M135 874q26 1 45 19q18 18 19 46q-1 28 -18 46q-18 17 -46 18q-28 -1 -46 -18q-18 -18 -19 -46q1 -28 19 -46t46 -19v0zM91 0h88v790h-88v-790z" />
    <glyph glyph-name="dotlessi" unicode="&#x131;" horiz-adv-x="238" 
d="M76 0h86v520h-86v-520z" />
    <glyph glyph-name="uni0136" unicode="&#x136;" horiz-adv-x="809" 
d="M91 0h88v220l171 163l314 -383h119l-369 444l363 346h-124l-474 -451v451h-88v-790zM324 -294h56l90 208h-96z" />
    <glyph glyph-name="uni0137" unicode="&#x137;" horiz-adv-x="587" 
d="M77 0h86v208l73 60l220 -268h106l-265 318l245 202h-116l-263 -220v490h-86v-790zM209 -294h56l90 208h-96z" />
    <glyph glyph-name="Lacute" unicode="&#x139;" horiz-adv-x="698" 
d="M118 880h49l108 150h-100zM91 0h579v79h-491v711h-88v-790z" />
    <glyph glyph-name="lacute" unicode="&#x13a;" horiz-adv-x="240" 
d="M102 870h49l108 150h-100zM77 0h86v790h-86v-790z" />
    <glyph glyph-name="uni013B" unicode="&#x13b;" horiz-adv-x="698" 
d="M91 0h579v79h-491v711h-88v-790zM304 -294h56l90 208h-96z" />
    <glyph glyph-name="uni013C" unicode="&#x13c;" horiz-adv-x="240" 
d="M77 0h86v790h-86v-790zM42 -294h56l90 208h-96z" />
    <glyph glyph-name="Lcaron" unicode="&#x13d;" horiz-adv-x="698" 
d="M94 880h78l101 150h-63l-77 -108l-77 108h-63zM91 0h579v79h-491v711h-88v-790z" />
    <glyph glyph-name="lcaron" unicode="&#x13e;" horiz-adv-x="240" 
d="M78 870h78l101 150h-63l-77 -108l-77 108h-63zM77 0h86v790h-86v-790z" />
    <glyph glyph-name="Lslash" unicode="&#x141;" horiz-adv-x="698" 
d="M179 79v339l302 200l-50 76l-252 -168v264h-88v-322l-120 -80l52 -74l68 45v-359h579v79h-491z" />
    <glyph glyph-name="lslash" unicode="&#x142;" horiz-adv-x="240" 
d="M275 606l-31 46l-81 -54v192h-86v-249l-115 -76l32 -46l83 55v-474h86v531z" />
    <glyph glyph-name="Nacute" unicode="&#x143;" horiz-adv-x="856" 
d="M415 870h49l108 150h-100zM91 0h88v681l472 -681h113v790h-87v-677l-469 677h-117v-790z" />
    <glyph glyph-name="nacute" unicode="&#x144;" horiz-adv-x="606" 
d="M298 600h49l108 150h-100zM77 0h86v253q1 92 46 150q44 57 120 59q60 -1 91 -40q32 -40 32 -109v-313h86v316q0 108 -48 164q-47 56 -142 56q-65 -1 -111 -30q-46 -30 -74 -80v94h-86v-520z" />
    <glyph glyph-name="uni0145" unicode="&#x145;" horiz-adv-x="856" 
d="M91 0h88v681l472 -681h113v790h-87v-677l-469 677h-117v-790zM349 -294h56l90 208h-96z" />
    <glyph glyph-name="uni0146" unicode="&#x146;" horiz-adv-x="606" 
d="M77 0h86v253q1 92 46 150q44 57 120 59q60 -1 91 -40q32 -40 32 -109v-313h86v316q0 108 -48 164q-47 56 -142 56q-65 -1 -111 -30q-46 -30 -74 -80v94h-86v-520zM238 -294h56l90 208h-96z" />
    <glyph glyph-name="Ncaron" unicode="&#x147;" horiz-adv-x="856" 
d="M391 870h78l101 150h-63l-77 -108l-77 108h-63zM91 0h88v681l472 -681h113v790h-87v-677l-469 677h-117v-790z" />
    <glyph glyph-name="ncaron" unicode="&#x148;" horiz-adv-x="606" 
d="M274 600h78l101 150h-63l-77 -108l-77 108h-63zM77 0h86v253q1 92 46 150q44 57 120 59q60 -1 91 -40q32 -40 32 -109v-313h86v316q0 108 -48 164q-47 56 -142 56q-65 -1 -111 -30q-46 -30 -74 -80v94h-86v-520z" />
    <glyph glyph-name="Eng" unicode="&#x14a;" horiz-adv-x="856" 
d="M677 790v-677l-469 677h-117v-790h88v681l472 -681h26q0 -69 -33 -100q-32 -31 -99 -30h-22v-69h28q103 -1 158 50q54 50 55 149v790h-87z" />
    <glyph glyph-name="eng" unicode="&#x14b;" horiz-adv-x="607" 
d="M348 536q-65 -1 -111 -30q-46 -30 -74 -80v94h-86v-520h86v253q1 92 46 150q44 57 120 59q60 -1 91 -40q32 -40 32 -109v-313q0 -62 -30 -93t-87 -30h-34v-77h15q113 -2 168 48q54 49 54 152v316q0 108 -48 164q-47 56 -142 56v0z" />
    <glyph glyph-name="Omacron" unicode="&#x14c;" horiz-adv-x="904" 
d="M245 903l420 1v60l-420 -1v-60zM455 -16q177 3 283 116q106 114 109 299q-3 182 -109 293t-283 114q-180 -3 -287 -114q-108 -111 -111 -293q3 -185 111 -299q107 -113 287 -116v0zM455 66q-139 3 -221 95q-83 92 -85 243q2 143 85 230q82 88 221 90q136 -2 217 -90
q81 -87 83 -230q-2 -151 -83 -243t-217 -95v0z" />
    <glyph glyph-name="omacron" unicode="&#x14d;" horiz-adv-x="634" 
d="M144 633l346 1v60l-346 -1v-60zM317 -16q116 2 187 78q71 75 73 199q-2 123 -73 198t-187 77q-116 -2 -187 -77t-73 -198q2 -124 73 -199q71 -76 187 -78v0zM317 58q-77 2 -124 57t-48 146q1 90 48 145t124 56q77 -1 124 -56q48 -55 49 -145q-1 -91 -49 -146
q-47 -55 -124 -57v0z" />
    <glyph glyph-name="Ohungarumlaut" unicode="&#x150;" horiz-adv-x="904" 
d="M355 870h48l106 150h-96zM497 870h47l107 150h-96zM455 -16q177 3 283 116q106 114 109 299q-3 182 -109 293t-283 114q-180 -3 -287 -114q-108 -111 -111 -293q3 -185 111 -299q107 -113 287 -116v0zM455 66q-139 3 -221 95q-83 92 -85 243q2 143 85 230q82 88 221 90
q136 -2 217 -90q81 -87 83 -230q-2 -151 -83 -243t-217 -95v0z" />
    <glyph glyph-name="ohungarumlaut" unicode="&#x151;" horiz-adv-x="634" 
d="M216 600h48l106 150h-96zM358 600h47l107 150h-96zM317 -16q116 2 187 78q71 75 73 199q-2 123 -73 198t-187 77q-116 -2 -187 -77t-73 -198q2 -124 73 -199q71 -76 187 -78v0zM317 58q-77 2 -124 57t-48 146q1 90 48 145t124 56q77 -1 124 -56q48 -55 49 -145
q-1 -91 -49 -146q-47 -55 -124 -57v0z" />
    <glyph glyph-name="OE" unicode="&#x152;" horiz-adv-x="1419" 
d="M848 82v282h454v80h-454v264h489v82h-576v-124q-52 66 -130 103q-78 36 -176 37q-180 -3 -287 -114q-108 -111 -111 -293q3 -185 111 -299q107 -113 287 -116q98 1 176 38t130 105v-127h581v82h-494zM455 66q-139 3 -221 95q-83 92 -85 243q2 143 85 230q82 88 221 90
q136 -2 217 -90q81 -87 83 -230q-2 -151 -83 -243t-217 -95v0z" />
    <glyph glyph-name="oe" unicode="&#x153;" horiz-adv-x="1042" 
d="M984 270q-3 131 -69 199q-67 67 -161 67q-72 0 -129 -31q-56 -31 -90 -86q-34 55 -90 86t-128 31q-116 -2 -187 -77t-73 -198q2 -124 73 -199q71 -76 187 -78q72 1 128 32t90 86q34 -55 90 -86q57 -31 129 -32q92 2 151 48q60 47 73 114h-86q-9 -34 -45 -61t-94 -29
q-77 1 -122 49q-44 48 -50 127h403v38zM317 58q-77 2 -124 57t-48 146q1 90 48 145t124 56q77 -1 124 -56q48 -55 49 -145q-1 -91 -49 -146q-47 -55 -124 -57v0zM582 302q10 74 54 116q43 43 115 44q63 -1 103 -44t44 -116h-316z" />
    <glyph glyph-name="Racute" unicode="&#x154;" horiz-adv-x="762" 
d="M370 870h49l108 150h-100zM91 0h88v340h246q90 2 124 -23q33 -26 41 -109q6 -62 8 -116q2 -55 17 -92h89v7q-17 42 -18 97t-11 138q-9 60 -34 91q-26 32 -73 43q58 21 91 71t34 118q0 107 -65 165q-65 59 -195 60h-342v-790zM179 419v289h236q96 -1 141 -38
q45 -38 45 -106q0 -69 -44 -107q-44 -37 -137 -38h-241z" />
    <glyph glyph-name="racute" unicode="&#x155;" horiz-adv-x="386" 
d="M194 600h49l108 150h-100zM77 0h80v297q1 71 57 110q55 39 152 40v79q-77 0 -130 -26q-53 -27 -79 -80v100h-80v-520z" />
    <glyph glyph-name="uni0156" unicode="&#x156;" horiz-adv-x="762" 
d="M91 0h88v340h246q90 2 124 -23q33 -26 41 -109q6 -62 8 -116q2 -55 17 -92h89v7q-17 42 -18 97t-11 138q-9 60 -34 91q-26 32 -73 43q58 21 91 71t34 118q0 107 -65 165q-65 59 -195 60h-342v-790zM179 419v289h236q96 -1 141 -38q45 -38 45 -106q0 -69 -44 -107
q-44 -37 -137 -38h-241zM304 -294h56l90 208h-96z" />
    <glyph glyph-name="uni0157" unicode="&#x157;" horiz-adv-x="386" 
d="M77 0h80v297q1 71 57 110q55 39 152 40v79q-77 0 -130 -26q-53 -27 -79 -80v100h-80v-520zM49 -294h56l90 208h-96z" />
    <glyph glyph-name="Rcaron" unicode="&#x158;" horiz-adv-x="762" 
d="M346 870h78l101 150h-63l-77 -108l-77 108h-63zM91 0h88v340h246q90 2 124 -23q33 -26 41 -109q6 -62 8 -116q2 -55 17 -92h89v7q-17 42 -18 97t-11 138q-9 60 -34 91q-26 32 -73 43q58 21 91 71t34 118q0 107 -65 165q-65 59 -195 60h-342v-790zM179 419v289h236
q96 -1 141 -38q45 -38 45 -106q0 -69 -44 -107q-44 -37 -137 -38h-241z" />
    <glyph glyph-name="rcaron" unicode="&#x159;" horiz-adv-x="386" 
d="M170 600h78l101 150h-63l-77 -108l-77 108h-63zM77 0h80v297q1 71 57 110q55 39 152 40v79q-77 0 -130 -26q-53 -27 -79 -80v100h-80v-520z" />
    <glyph glyph-name="Sacute" unicode="&#x15a;" horiz-adv-x="759" 
d="M370 870h49l108 150h-100zM384 -16q150 2 228 70q78 67 79 171q-32 216 -255 214q-224 -3 -256 132q0 73 51 113t147 41q96 -1 150 -44q54 -44 61 -124h92q-2 112 -84 180q-82 67 -216 69q-133 -2 -212 -62q-79 -61 -81 -159q32 -223 256 -218q223 4 255 -141
q0 -76 -54 -118q-55 -42 -157 -43q-106 1 -164 51t-62 141h-95q2 -131 87 -201q86 -71 230 -72v0z" />
    <glyph glyph-name="sacute" unicode="&#x15b;" horiz-adv-x="556" 
d="M264 600h49l108 150h-100zM283 -16q101 1 158 43t58 113q-21 147 -170 151q-150 4 -171 87q0 39 32 64q31 24 88 25q65 0 101 -29q37 -29 40 -81h79q-7 83 -63 130q-55 48 -147 49q-101 -1 -158 -45t-58 -115q21 -142 171 -145q150 -4 171 -91q0 -39 -33 -63
q-34 -23 -94 -24q-68 0 -107 28t-42 79h-81q3 -83 63 -129t163 -47v0z" />
    <glyph glyph-name="Scedilla" unicode="&#x15e;" horiz-adv-x="759" 
d="M691 225q-32 216 -255 214q-224 -3 -256 132q0 73 51 113t147 41q96 -1 150 -44q54 -44 61 -124h92q-2 112 -84 180q-82 67 -216 69q-133 -2 -212 -62q-79 -61 -81 -159q32 -223 256 -218q223 4 255 -141q0 -76 -54 -118q-55 -42 -157 -43q-106 1 -164 51t-62 141h-95
q2 -128 83 -198q82 -71 221 -75l-50 -83l26 -29q8 5 21 9q12 4 29 4q27 0 45 -19q17 -19 18 -50q0 -33 -18 -52t-51 -19t-51 21q-18 20 -18 57h-53q1 -58 33 -90t89 -32q58 0 90 30t32 85q-2 59 -43 88q-40 29 -90 14l44 67q130 12 198 78q69 65 69 162v0z" />
    <glyph glyph-name="scedilla" unicode="&#x15f;" horiz-adv-x="556" 
d="M499 140q-21 147 -170 151q-150 4 -171 87q0 39 32 64q31 24 88 25q65 0 101 -29q37 -29 40 -81h79q-7 83 -63 130q-55 48 -147 49q-101 -1 -158 -45t-58 -115q21 -142 171 -145q150 -4 171 -91q0 -39 -33 -63q-34 -23 -94 -24q-68 0 -107 28t-42 79h-81q3 -79 59 -125
q56 -47 153 -51l-50 -83l26 -29q8 5 21 9q12 4 29 4q27 0 45 -19q17 -19 18 -50q0 -33 -18 -52t-51 -19t-51 21q-18 20 -18 57h-53q1 -58 33 -90t89 -32q58 0 90 30t32 85q-2 59 -43 88q-40 29 -90 14l44 68q83 9 130 50q46 40 47 104v0z" />
    <glyph glyph-name="Scaron" unicode="&#x160;" horiz-adv-x="759" 
d="M346 870h78l101 150h-63l-77 -108l-77 108h-63zM384 -16q150 2 228 70q78 67 79 171q-32 216 -255 214q-224 -3 -256 132q0 73 51 113t147 41q96 -1 150 -44q54 -44 61 -124h92q-2 112 -84 180q-82 67 -216 69q-133 -2 -212 -62q-79 -61 -81 -159q32 -223 256 -218
q223 4 255 -141q0 -76 -54 -118q-55 -42 -157 -43q-106 1 -164 51t-62 141h-95q2 -131 87 -201q86 -71 230 -72v0z" />
    <glyph glyph-name="scaron" unicode="&#x161;" horiz-adv-x="556" 
d="M240 600h78l101 150h-63l-77 -108l-77 108h-63zM283 -16q101 1 158 43t58 113q-21 147 -170 151q-150 4 -171 87q0 39 32 64q31 24 88 25q65 0 101 -29q37 -29 40 -81h79q-7 83 -63 130q-55 48 -147 49q-101 -1 -158 -45t-58 -115q21 -142 171 -145q150 -4 171 -91
q0 -39 -33 -63q-34 -23 -94 -24q-68 0 -107 28t-42 79h-81q3 -83 63 -129t163 -47v0z" />
    <glyph glyph-name="uni0162" unicode="&#x162;" horiz-adv-x="753" 
d="M420 0v704h324v86h-735v-86h324v-704h15l-60 -99l26 -29q8 5 21 9q12 4 29 4q26 0 44 -19t19 -50q0 -33 -18 -52t-51 -19t-51 21q-18 20 -18 57h-53q1 -58 33 -90t89 -32q58 0 90 30t32 85q-2 59 -43 88q-40 29 -90 14l53 82h20z" />
    <glyph glyph-name="uni0163" unicode="&#x163;" horiz-adv-x="438" 
d="M388 445v75h-154v140h-86v-140h-111v-75h111v-305q-1 -70 22 -102q23 -33 68 -39l-54 -98l24 -29q8 5 19 9t26 4q24 0 40 -19t17 -50q0 -33 -16 -52t-46 -19t-46 21q-17 20 -17 57h-48q0 -58 30 -90q29 -32 81 -32t81 30t29 85q-2 59 -39 88q-36 29 -81 14l46 78
q34 0 76 5v76q-88 -9 -109 8t-17 81v279h154z" />
    <glyph glyph-name="Tcaron" unicode="&#x164;" horiz-adv-x="753" 
d="M334 880h78l101 150h-63l-77 -108l-77 108h-63zM333 0h87v704h324v86h-735v-86h324v-704z" />
    <glyph glyph-name="tcaron" unicode="&#x165;" horiz-adv-x="438" 
d="M295 640h49l108 150h-100zM360 1v76q-88 -9 -109 8t-17 81v279h154v75h-154v140h-86v-140h-111v-75h111v-305q-1 -106 54 -130q55 -23 158 -9v0z" />
    <glyph glyph-name="Tbar" unicode="&#x166;" horiz-adv-x="753" 
d="M744 704v86h-735v-86h324v-263h-223v-75h223v-366h87v367h230v75h-230v262h324z" />
    <glyph glyph-name="tbar" unicode="&#x167;" horiz-adv-x="438" 
d="M388 445v75h-154v140h-86v-140h-111v-75h111v-126h-99v-75h99v-104q-1 -106 54 -130q55 -23 158 -9v76q-88 -9 -109 8t-17 81v79h127v75h-127v125h154z" />
    <glyph glyph-name="Umacron" unicode="&#x16a;" horiz-adv-x="835" 
d="M208 913l420 1v60l-420 -1v-60zM418 -13q157 0 244 90q86 89 87 254v459h-87v-458q-1 -125 -64 -193q-64 -69 -180 -70q-116 1 -180 70q-64 68 -65 193v458h-87v-459q1 -162 88 -251q86 -90 244 -93v0z" />
    <glyph glyph-name="umacron" unicode="&#x16b;" horiz-adv-x="606" 
d="M133 633l346 1v60l-346 -1v-60zM529 520h-86v-253q-1 -92 -45 -150q-45 -57 -120 -59q-60 1 -92 40q-32 40 -32 109v313h-86v-316q0 -108 48 -164t142 -56q65 1 111 30q46 30 74 80v-94h86v520z" />
    <glyph glyph-name="Uring" unicode="&#x16e;" horiz-adv-x="835" 
d="M418 874q50 1 82 34q33 32 34 82q-1 50 -34 82q-32 33 -82 34q-50 -1 -82 -34q-33 -32 -34 -82q1 -50 34 -82q32 -33 82 -34v0zM418 933q-24 1 -40 17t-17 40q1 24 17 40t40 17q24 -1 40 -17t17 -40q-1 -24 -17 -40t-40 -17v0zM418 -13q157 0 244 90q86 89 87 254v459
h-87v-458q-1 -125 -64 -193q-64 -69 -180 -70q-116 1 -180 70q-64 68 -65 193v458h-87v-459q1 -162 88 -251q86 -90 244 -93v0z" />
    <glyph glyph-name="uring" unicode="&#x16f;" horiz-adv-x="606" 
d="M306 594q50 1 82 34q33 32 34 82q-1 50 -34 82q-32 33 -82 34q-50 -1 -82 -34q-33 -32 -34 -82q1 -50 34 -82q32 -33 82 -34v0zM306 653q-24 1 -40 17t-17 40q1 24 17 40t40 17q24 -1 40 -17t17 -40q-1 -24 -17 -40t-40 -17v0zM529 520h-86v-253q-1 -92 -45 -150
q-45 -57 -120 -59q-60 1 -92 40q-32 40 -32 109v313h-86v-316q0 -108 48 -164t142 -56q65 1 111 30q46 30 74 80v-94h86v520z" />
    <glyph glyph-name="Uhungarumlaut" unicode="&#x170;" horiz-adv-x="835" 
d="M317 880h48l106 150h-96zM459 880h47l107 150h-96zM418 -13q157 0 244 90q86 89 87 254v459h-87v-458q-1 -125 -64 -193q-64 -69 -180 -70q-116 1 -180 70q-64 68 -65 193v458h-87v-459q1 -162 88 -251q86 -90 244 -93v0z" />
    <glyph glyph-name="uhungarumlaut" unicode="&#x171;" horiz-adv-x="606" 
d="M205 600h48l106 150h-96zM347 600h47l107 150h-96zM529 520h-86v-253q-1 -92 -45 -150q-45 -57 -120 -59q-60 1 -92 40q-32 40 -32 109v313h-86v-316q0 -108 48 -164t142 -56q65 1 111 30q46 30 74 80v-94h86v520z" />
    <glyph glyph-name="Uogonek" unicode="&#x172;" horiz-adv-x="835" 
d="M662 790v-458q-1 -125 -64 -193q-64 -69 -180 -70q-116 1 -180 70q-64 68 -65 193v458h-87v-459q1 -155 80 -244t225 -99q-18 -20 -27 -44q-10 -25 -10 -54q0 -52 46 -83q45 -30 130 -24v51q-54 0 -83 21t-29 58q0 21 9 40t26 35q141 10 218 99t78 244v459h-87z" />
    <glyph glyph-name="uogonek" unicode="&#x173;" horiz-adv-x="606" 
d="M420 -87q0 26 13 48t36 39h60v520h-86v-253q-1 -92 -45 -150q-45 -57 -120 -59q-60 1 -92 40q-32 40 -32 109v313h-86v-316q0 -108 48 -164t142 -56q65 1 111 30q46 30 74 80v-70q-41 -19 -64 -53q-23 -35 -23 -81q0 -52 46 -83q45 -30 130 -24v51q-54 0 -83 21t-29 58v0
z" />
    <glyph glyph-name="Wcircumflex" unicode="&#x174;" horiz-adv-x="1213" 
d="M455 880h63l77 108l77 -108h63l-101 150h-78zM293 0h112l194 665l209 -665h112l261 790h-98l-217 -693l-213 693h-110l-197 -690l-215 690h-99z" />
    <glyph glyph-name="wcircumflex" unicode="&#x175;" horiz-adv-x="913" 
d="M309 600h63l77 108l77 -108h63l-101 150h-78zM222 0h88l147 405l145 -405h88l178 520h-92l-131 -411l-147 411h-84l-146 -411l-131 411h-93z" />
    <glyph glyph-name="Ycircumflex" unicode="&#x176;" horiz-adv-x="803" 
d="M259 880h63l77 108l77 -108h63l-101 150h-78zM358 0h87v306l340 484h-102l-281 -402l-282 402h-101l339 -484v-306z" />
    <glyph glyph-name="ycircumflex" unicode="&#x177;" horiz-adv-x="617" 
d="M171 600h63l77 108l77 -108h63l-101 150h-78zM70 -200h46q95 -1 156 35q61 37 96 126l213 559h-92l-157 -431l-204 431h-93l254 -538q-30 -59 -63 -84t-88 -24h-68v-74z" />
    <glyph glyph-name="Ydieresis" unicode="&#x178;" horiz-adv-x="803" 
d="M315 883q26 1 45 19q18 18 19 46q-1 28 -18 46q-18 17 -46 18q-28 -1 -47 -18q-18 -18 -19 -46q1 -28 19 -46q19 -18 47 -19v0zM491 883q27 1 45 19t19 46q-1 28 -18 46q-18 17 -46 18q-28 -1 -46 -18q-18 -18 -19 -46q1 -28 19 -46t46 -19v0zM358 0h87v306l340 484h-102
l-281 -402l-282 402h-101l339 -484v-306z" />
    <glyph glyph-name="Zacute" unicode="&#x179;" horiz-adv-x="804" 
d="M373 880h49l108 150h-100zM63 0h671v84h-544l557 655v51h-690v-84h555l-549 -639v-67z" />
    <glyph glyph-name="zacute" unicode="&#x17a;" horiz-adv-x="572" 
d="M259 600h49l108 150h-100zM49 0h456v76h-327l344 394v50h-454v-76h333l-352 -401v-43z" />
    <glyph glyph-name="Zdotaccent" unicode="&#x17b;" horiz-adv-x="804" 
d="M391 884q26 1 45 19q18 18 19 46q-1 28 -18 46q-18 17 -46 18q-28 -1 -46 -18q-18 -18 -19 -46q1 -28 19 -46t46 -19v0zM63 0h671v84h-544l557 655v51h-690v-84h555l-549 -639v-67z" />
    <glyph glyph-name="zdotaccent" unicode="&#x17c;" horiz-adv-x="572" 
d="M277 604q26 1 45 19q18 18 19 46q-1 28 -18 46q-18 17 -46 18q-28 -1 -46 -18q-18 -18 -19 -46q1 -28 19 -46t46 -19v0zM49 0h456v76h-327l344 394v50h-454v-76h333l-352 -401v-43z" />
    <glyph glyph-name="Zcaron" unicode="&#x17d;" horiz-adv-x="804" 
d="M349 880h78l101 150h-63l-77 -108l-77 108h-63zM63 0h671v84h-544l557 655v51h-690v-84h555l-549 -639v-67z" />
    <glyph glyph-name="zcaron" unicode="&#x17e;" horiz-adv-x="572" 
d="M235 600h78l101 150h-63l-77 -108l-77 108h-63zM49 0h456v76h-327l344 394v50h-454v-76h333l-352 -401v-43z" />
    <glyph glyph-name="uni0218" unicode="&#x218;" horiz-adv-x="759" 
d="M384 -16q150 2 228 70q78 67 79 171q-32 216 -255 214q-224 -3 -256 132q0 73 51 113t147 41q96 -1 150 -44q54 -44 61 -124h92q-2 112 -84 180q-82 67 -216 69q-133 -2 -212 -62q-79 -61 -81 -159q32 -223 256 -218q223 4 255 -141q0 -76 -54 -118q-55 -42 -157 -43
q-106 1 -164 51t-62 141h-95q2 -131 87 -201q86 -71 230 -72v0zM311 -294h56l90 208h-96z" />
    <glyph glyph-name="uni0219" unicode="&#x219;" horiz-adv-x="556" 
d="M283 -16q101 1 158 43t58 113q-21 147 -170 151q-150 4 -171 87q0 39 32 64q31 24 88 25q65 0 101 -29q37 -29 40 -81h79q-7 83 -63 130q-55 48 -147 49q-101 -1 -158 -45t-58 -115q21 -142 171 -145q150 -4 171 -91q0 -39 -33 -63q-34 -23 -94 -24q-68 0 -107 28t-42 79
h-81q3 -83 63 -129t163 -47v0zM209 -294h56l90 208h-96z" />
    <glyph glyph-name="uni021A" unicode="&#x21a;" horiz-adv-x="753" 
d="M333 0h87v704h324v86h-735v-86h324v-704zM298 -294h56l89 208h-95z" />
    <glyph glyph-name="uni021B" unicode="&#x21b;" horiz-adv-x="438" 
d="M360 1v76q-88 -9 -109 8t-17 81v279h154v75h-154v140h-86v-140h-111v-75h111v-305q-1 -106 54 -130q55 -23 158 -9v0zM168 -294h56l90 208h-96z" />
    <glyph glyph-name="gravecomb" unicode="&#x300;" 
d="M-114 650l-57 150h-100l108 -150h49z" />
    <glyph glyph-name="acutecomb" unicode="&#x301;" 
d="M-267 650h49l108 150h-100z" />
    <glyph glyph-name="uni0302" unicode="&#x302;" 
d="M-393 650h63l77 108l77 -108h63l-101 150h-78z" />
    <glyph glyph-name="tildecomb" unicode="&#x303;" 
d="M-215 681q50 1 79 32t29 84h-60q0 -25 -13 -40q-14 -16 -37 -16q-33 4 -62 28q-29 25 -72 28q-50 -1 -80 -32t-29 -83h57q0 24 14 40q14 15 38 15q32 -3 61 -28q29 -24 75 -28v0z" />
    <glyph glyph-name="uni0304" unicode="&#x304;" 
d="M-520 683l420 1v60l-420 -1v-60z" />
    <glyph glyph-name="uni0306" unicode="&#x306;" 
d="M-236 654q61 1 95 36q34 36 34 100h-60q0 -41 -18 -63q-18 -23 -51 -23t-51 23q-18 22 -18 63h-60q0 -64 34 -100q34 -35 95 -36v0z" />
    <glyph glyph-name="uni0307" unicode="&#x307;" 
d="M-169 604q26 1 45 19q18 18 19 46q-1 28 -18 46q-18 17 -46 18q-28 -1 -46 -18q-18 -18 -19 -46q1 -28 19 -46t46 -19v0z" />
    <glyph glyph-name="uni0308" unicode="&#x308;" 
d="M-339 603q26 1 45 19q18 18 19 46q-1 28 -18 46q-18 17 -46 18q-28 -1 -47 -18q-18 -18 -19 -46q1 -28 19 -46q19 -18 47 -19v0zM-163 603q27 1 45 19t19 46q-1 28 -18 46q-18 17 -46 18q-28 -1 -46 -18q-18 -18 -19 -46q1 -28 19 -46t46 -19v0z" />
    <glyph glyph-name="uni030A" unicode="&#x30a;" 
d="M-212 587q50 1 82 34q33 32 34 82q-1 50 -34 82q-32 33 -82 34q-50 -1 -82 -34q-33 -32 -34 -82q1 -50 34 -82q32 -33 82 -34v0zM-212 646q-24 1 -40 17t-17 40q1 24 17 40t40 17q24 -1 40 -17t17 -40q-1 -24 -17 -40t-40 -17v0z" />
    <glyph glyph-name="uni030B" unicode="&#x30b;" 
d="M-406 650h48l106 150h-96zM-264 650h47l107 150h-96z" />
    <glyph glyph-name="uni030C" unicode="&#x30c;" 
d="M-292 650h78l101 150h-63l-77 -108l-77 108h-63z" />
    <glyph glyph-name="uni0312" unicode="&#x312;" 
d="M-106 825h-56l-89 -208h96z" />
    <glyph glyph-name="uni0326" unicode="&#x326;" 
d="M-263 -294h56l90 208h-96z" />
    <glyph glyph-name="uni0327" unicode="&#x327;" 
d="M-262 -299q58 0 90 30t32 85q-2 59 -43 88q-40 29 -90 14l53 82h-52l-60 -99l26 -29q8 5 21 9q12 4 29 4q27 0 45 -19q17 -19 18 -50q0 -33 -18 -52t-51 -19t-51 21q-18 20 -18 57h-53q1 -58 33 -90t89 -32v0z" />
    <glyph glyph-name="uni0328" unicode="&#x328;" 
d="M-100 -217v51q-54 0 -83 21t-29 58q0 26 15 50q14 23 38 40l3 33q-55 -15 -87 -53t-33 -93q0 -52 46 -83q45 -30 130 -24v0z" />
    <glyph glyph-name="uni0335" unicode="&#x335;" 
d="M-640 366l540 1v75l-540 -1v-75z" />
    <glyph glyph-name="uni0336" unicode="&#x336;" 
d="M-959 368l859 1v78l-859 -1v-78z" />
    <glyph glyph-name="uni0337" unicode="&#x337;" 
d="M-515 43l390 388l-64 64l-391 -389z" />
    <glyph glyph-name="uni0338" unicode="&#x338;" 
d="M-836 -16l701 759l-55 49l-702 -760z" />
    <glyph glyph-name="Wgrave" unicode="&#x1e80;" horiz-adv-x="1213" 
d="M618 880l-57 150h-100l108 -150h49zM293 0h112l194 665l209 -665h112l261 790h-98l-217 -693l-213 693h-110l-197 -690l-215 690h-99z" />
    <glyph glyph-name="wgrave" unicode="&#x1e81;" horiz-adv-x="913" 
d="M472 600l-57 150h-100l108 -150h49zM222 0h88l147 405l145 -405h88l178 520h-92l-131 -411l-147 411h-84l-146 -411l-131 411h-93z" />
    <glyph glyph-name="Wacute" unicode="&#x1e82;" horiz-adv-x="1213" 
d="M580 880h49l108 150h-100zM293 0h112l194 665l209 -665h112l261 790h-98l-217 -693l-213 693h-110l-197 -690l-215 690h-99z" />
    <glyph glyph-name="wacute" unicode="&#x1e83;" horiz-adv-x="913" 
d="M434 600h49l108 150h-100zM222 0h88l147 405l145 -405h88l178 520h-92l-131 -411l-147 411h-84l-146 -411l-131 411h-93z" />
    <glyph glyph-name="Wdieresis" unicode="&#x1e84;" horiz-adv-x="1213" 
d="M511 883q26 1 45 19q18 18 19 46q-1 28 -18 46q-18 17 -46 18q-28 -1 -47 -18q-18 -18 -19 -46q1 -28 19 -46q19 -18 47 -19v0zM687 883q27 1 45 19t19 46q-1 28 -18 46q-18 17 -46 18q-28 -1 -46 -18q-18 -18 -19 -46q1 -28 19 -46t46 -19v0zM293 0h112l194 665
l209 -665h112l261 790h-98l-217 -693l-213 693h-110l-197 -690l-215 690h-99z" />
    <glyph glyph-name="wdieresis" unicode="&#x1e85;" horiz-adv-x="913" 
d="M365 603q26 1 45 19q18 18 19 46q-1 28 -18 46q-18 17 -46 18q-28 -1 -47 -18q-18 -18 -19 -46q1 -28 19 -46q19 -18 47 -19v0zM541 603q27 1 45 19t19 46q-1 28 -18 46q-18 17 -46 18q-28 -1 -46 -18q-18 -18 -19 -46q1 -28 19 -46t46 -19v0zM222 0h88l147 405l145 -405
h88l178 520h-92l-131 -411l-147 411h-84l-146 -411l-131 411h-93z" />
    <glyph glyph-name="Ygrave" unicode="&#x1ef2;" horiz-adv-x="803" 
d="M422 880l-57 150h-100l108 -150h49zM358 0h87v306l340 484h-102l-281 -402l-282 402h-101l339 -484v-306z" />
    <glyph glyph-name="ygrave" unicode="&#x1ef3;" horiz-adv-x="617" 
d="M334 600l-57 150h-100l108 -150h49zM70 -200h46q95 -1 156 35q61 37 96 126l213 559h-92l-157 -431l-204 431h-93l254 -538q-30 -59 -63 -84t-88 -24h-68v-74z" />
    <glyph glyph-name="endash" unicode="&#x2013;" horiz-adv-x="867" 
d="M99 331h670v82h-670v-82z" />
    <glyph glyph-name="emdash" unicode="&#x2014;" horiz-adv-x="1127" 
d="M99 331h930v82h-930v-82z" />
    <glyph glyph-name="quoteleft" unicode="&#x2018;" horiz-adv-x="249" 
d="M201 790h-57l-89 -208h96z" />
    <glyph glyph-name="quoteright" unicode="&#x2019;" horiz-adv-x="242" 
d="M48 582h57l89 208h-96z" />
    <glyph glyph-name="quotesinglbase" unicode="&#x201a;" horiz-adv-x="249" 
d="M48 -103h57l89 208h-96z" />
    <glyph glyph-name="quotedblleft" unicode="&#x201c;" horiz-adv-x="441" 
d="M201 790h-57l-89 -208h96zM389 790h-56l-89 -208h95z" />
    <glyph glyph-name="quotedblright" unicode="&#x201d;" horiz-adv-x="437" 
d="M48 582h57l89 208h-96zM237 582h56l89 208h-96z" />
    <glyph glyph-name="quotedblbase" unicode="&#x201e;" horiz-adv-x="438" 
d="M48 -103h57l89 208h-96zM237 -103h56l89 208h-96z" />
    <glyph glyph-name="dagger" unicode="&#x2020;" horiz-adv-x="740" 
d="M326 -200h88v619h226v81h-226v290h-88v-291h-226v-81h226v-618z" />
    <glyph glyph-name="daggerdbl" unicode="&#x2021;" horiz-adv-x="740" 
d="M326 -200h88v366h226v81h-226v172h226v81h-226v290h-88v-291h-226v-81h226v-172h-226v-81h226v-365z" />
    <glyph glyph-name="bullet" unicode="&#x2022;" horiz-adv-x="609" 
d="M310 137q86 2 147 62t64 151q-2 90 -62 149q-59 60 -149 62q-92 -2 -152 -62q-61 -59 -63 -149q2 -91 63 -151q60 -60 152 -62v0z" />
    <glyph glyph-name="ellipsis" unicode="&#x2026;" horiz-adv-x="753" 
d="M124 -11q26 1 45 19q18 18 19 46q-1 28 -19 46q-18 17 -45 18q-28 -1 -47 -18q-18 -18 -19 -46q1 -28 19 -46q19 -18 47 -19v0zM378 -11q26 1 45 19q18 18 19 46q-1 28 -19 46q-18 17 -45 18q-28 -1 -47 -18q-18 -18 -19 -46q1 -28 19 -46q19 -18 47 -19v0zM630 -11
q26 1 45 19t20 46q-1 28 -19 46q-18 17 -46 18q-28 -1 -46 -18q-18 -18 -19 -46q1 -28 19 -46t46 -19v0z" />
    <glyph glyph-name="perthousand" unicode="&#x2030;" horiz-adv-x="1440" 
d="M465 617q-1 86 -51 139q-50 52 -132 54q-82 -2 -132 -54q-50 -53 -51 -139q1 -86 51 -139t132 -55q82 2 132 55t51 139v0zM799 790l-549 -790h105l549 790h-105zM178 617q1 54 29 88q28 33 75 34q47 -1 75 -34q28 -34 29 -88q-1 -55 -29 -88t-75 -34q-47 1 -75 34t-29 88
v0zM1158 377q-45 0 -82 -18t-61 -51q-25 33 -61 51q-37 18 -83 18q-82 -2 -132 -55t-51 -139q1 -86 51 -138q50 -53 132 -55q46 0 83 18q36 18 61 50q25 -32 61 -50q37 -18 82 -18q82 1 132 54q51 53 52 139q-1 86 -52 139q-50 53 -132 55v0zM871 61q-47 1 -75 34
q-28 34 -29 88q1 55 29 88t75 34q47 -1 75 -34t29 -88q-1 -54 -29 -88q-28 -33 -75 -34v0zM1158 61q-47 1 -75 34q-28 34 -29 88q1 55 29 88t75 34q47 -1 75 -34t29 -88q-1 -54 -29 -88q-28 -33 -75 -34v0z" />
    <glyph glyph-name="guilsinglleft" unicode="&#x2039;" horiz-adv-x="514" 
d="M319 0h97l-217 250l217 250h-97l-220 -250z" />
    <glyph glyph-name="guilsinglright" unicode="&#x203a;" horiz-adv-x="514" 
d="M196 0l220 250l-220 250h-97l217 -250l-217 -250h97z" />
    <glyph glyph-name="fraction" unicode="&#x2044;" horiz-adv-x="849" 
d="M201 0l549 790h-105l-549 -790h105z" />
    <glyph glyph-name="Euro" unicode="&#x20ac;" horiz-adv-x="963" 
d="M813 276q-20 -94 -93 -151q-74 -57 -178 -59q-94 1 -163 50q-70 48 -105 133l348 1v78l-370 -1q-6 37 -6 77q0 27 3 52l373 1v79l-354 -1q34 89 106 139t172 50q96 -2 167 -56q72 -53 91 -140h92q-23 126 -116 201t-232 77q-140 -2 -238 -74t-136 -197h-125v-79h108
q-3 -27 -3 -57q0 -37 5 -72h-110v-78h128q41 -122 139 -193q97 -71 234 -72q135 2 232 81t123 211h-92z" />
    <glyph glyph-name="trademark" unicode="&#x2122;" horiz-adv-x="1259" 
d="M228 255h59v476h219v59h-497v-59h219v-476zM579 255h59v462l201 -462h68l201 462v-462h59v535h-96l-198 -473l-198 473h-96v-535z" />
    <glyph glyph-name="arrowleft" unicode="&#x2190;" horiz-adv-x="1007" 
d="M909 448l-648 1l234 233l-60 59l-336 -336l336 -336l61 59l-235 235h648v85z" />
    <glyph glyph-name="arrowup" unicode="&#x2191;" horiz-adv-x="870" 
d="M392 0h85v647l235 -234l59 61l-336 336l-336 -336l59 -60l233 233z" />
    <glyph glyph-name="arrowright" unicode="&#x2192;" horiz-adv-x="1007" 
d="M99 448v-85h647l-235 -235l61 -59l337 336l-337 336l-60 -59l234 -233z" />
    <glyph glyph-name="arrowdown" unicode="&#x2193;" horiz-adv-x="870" 
d="M392 790l-1 -647l-233 233l-59 -60l336 -336l336 336l-59 61l-235 -234v647h-85z" />
    <glyph glyph-name="arrowboth" unicode="&#x2194;" horiz-adv-x="1248" 
d="M814 741l-62 -59l235 -235h-726l235 235l-61 59l-336 -336l336 -336l60 59l-234 233h726l-234 -233l61 -59l336 336z" />
    <glyph glyph-name="arrowupdn" unicode="&#x2195;" horiz-adv-x="870" 
d="M479 73v644l233 -233l59 60l-336 336l-336 -336l59 -61l235 234v-644l-235 235l-59 -61l336 -337l336 337l-59 60z" />
    <glyph glyph-name="uni2196" unicode="&#x2196;" horiz-adv-x="801" 
d="M701 248l-457 458h329v84h-476v-475l85 -2v332l458 -458z" />
    <glyph glyph-name="uni2197" unicode="&#x2197;" horiz-adv-x="801" 
d="M99 248l60 -61l458 458v-332l85 1v476h-476v-85l330 1z" />
    <glyph glyph-name="uni2198" unicode="&#x2198;" horiz-adv-x="800" 
d="M149 603l-60 -60l457 -458h-332l2 -85h475v476h-84v-330z" />
    <glyph glyph-name="uni2199" unicode="&#x2199;" horiz-adv-x="801" 
d="M702 542l-60 61l-458 -458v332l-85 -1v-476h476v85l-330 -1z" />
    <glyph glyph-name="partialdiff" unicode="&#x2202;" horiz-adv-x="702" 
d="M343 -16q145 1 216 103q72 103 72 295q-1 202 -79 313q-77 110 -215 111q-110 -1 -177 -61q-68 -59 -82 -169l92 -1q11 70 56 109t115 40q90 -1 143 -88q53 -86 61 -247q-27 52 -84 83q-57 30 -127 31q-119 -2 -189 -69q-71 -67 -73 -178q2 -122 77 -196q74 -74 194 -76
v0zM341 66q-79 1 -128 50t-50 129q1 79 49 129q48 49 127 50q81 -1 130 -51q50 -49 51 -129q-1 -79 -50 -128t-129 -50v0z" />
    <glyph glyph-name="emptyset" unicode="&#x2205;" horiz-adv-x="631" 
d="M521 438l40 45l-50 45l-37 -42q-32 24 -72 37q-39 13 -85 13q-116 -2 -187 -77t-73 -198q0 -53 15 -98q15 -46 41 -81l-43 -49l51 -44l40 45q32 -24 71 -37q40 -13 85 -13q116 2 187 78q71 75 73 199q0 53 -14 98q-15 44 -42 79v0zM145 261q1 90 48 145t124 56
q30 0 56 -9q26 -10 47 -27l-249 -279q-26 48 -26 114v0zM317 58q-30 0 -56 9q-26 10 -47 27l250 280q12 -24 19 -52q7 -29 7 -61q-1 -91 -49 -146q-47 -55 -124 -57v0z" />
    <glyph glyph-name="product" unicode="&#x220f;" horiz-adv-x="1096" 
d="M284 -200h87v908h353v-908h87v908h186v82h-898v-82h185v-908z" />
    <glyph glyph-name="summation" unicode="&#x2211;" horiz-adv-x="751" 
d="M99 -150h554v82h-441l309 358l-309 358h441v82h-554v-82l309 -358l-309 -358v-82z" />
    <glyph glyph-name="minus" unicode="&#x2212;" horiz-adv-x="717" 
d="M99 305l520 1v78l-520 -1v-78z" />
    <glyph glyph-name="radical" unicode="&#x221a;" horiz-adv-x="921" 
d="M287 -110h89l254 761h193v82h-249l-245 -725l-146 382h-84z" />
    <glyph glyph-name="infinity" unicode="&#x221e;" horiz-adv-x="1094" 
d="M322 151q61 0 114 35q54 34 109 97q105 -132 228 -132q96 2 158 60q63 58 65 148q-2 92 -65 151q-62 58 -158 60q-61 0 -115 -34q-55 -34 -109 -99q-52 65 -109 99q-56 34 -118 34q-96 -2 -158 -60q-63 -59 -65 -151q2 -90 65 -148q62 -58 158 -60v0zM317 239
q-61 1 -96 33t-36 87q1 55 36 87t96 33q53 -1 100 -34t93 -86q-44 -56 -93 -88q-49 -31 -100 -32v0zM778 239q-53 1 -101 34q-49 33 -92 86q46 55 93 87t100 33q61 -1 96 -33q34 -32 35 -87q-1 -55 -35 -87q-35 -32 -96 -33v0z" />
    <glyph glyph-name="integral" unicode="&#x222b;" horiz-adv-x="562" 
d="M99 -261h33q104 -4 146 41q43 45 42 158v652q-1 71 28 101t94 29h22v80h-34q-103 4 -146 -41q-42 -45 -41 -158v-652q1 -71 -28 -101t-94 -29h-22v-80z" />
    <glyph glyph-name="approxequal" unicode="&#x2248;" horiz-adv-x="670" 
d="M427 364q67 1 106 39q40 38 39 103h-79q0 -30 -19 -49q-18 -18 -49 -19q-44 4 -83 34t-97 34q-67 -1 -107 -39q-39 -38 -39 -101h77q0 30 19 48t51 19q42 -4 81 -34q38 -31 100 -35v0zM427 154q67 1 106 39q40 38 39 103h-79q0 -30 -19 -49q-18 -18 -49 -19q-44 4 -83 34
t-97 34q-67 -1 -107 -39q-39 -38 -39 -101h77q0 30 19 48t51 19q42 -4 81 -34q38 -31 100 -35v0z" />
    <glyph glyph-name="notequal" unicode="&#x2260;" horiz-adv-x="717" 
d="M641 682h-91l-136 -196l-315 -1v-79h260l-90 -129h-170v-78h115l-138 -199h91l139 199l313 1v78h-259l90 129h169v79h-114z" />
    <glyph glyph-name="lessequal" unicode="&#x2264;" horiz-adv-x="710" 
d="M612 16v83l-416 181l416 181v83l-500 -215v-98zM612 -80v79l-513 1v-79z" />
    <glyph glyph-name="greaterequal" unicode="&#x2265;" horiz-adv-x="710" 
d="M99 16l500 215v98l-500 215v-83l415 -181l-415 -181v-83zM99 -80l512 1v79l-512 -1v-79z" />
    <glyph glyph-name="lozenge" unicode="&#x25ca;" horiz-adv-x="757" 
d="M308 0h143l209 395l-209 395h-143l-211 -395zM380 59l-193 336l193 336l190 -336z" />
    <glyph glyph-name="glyph113" horiz-adv-x="875" 
d="M449 -16q179 2 273 110q94 109 95 303h-377v-78h279q-4 -109 -77 -180q-73 -70 -195 -73q-135 2 -214 94q-80 92 -82 244q2 145 83 232q81 86 217 88q95 -2 167 -50q71 -48 91 -126h92q-24 117 -117 187q-94 69 -231 71q-178 -3 -285 -114q-106 -111 -109 -293
q3 -185 108 -299q106 -113 282 -116v0z" />
    <glyph glyph-name="glyph114" horiz-adv-x="875" 
d="M453 874q61 1 95 36q34 36 34 100h-60q0 -41 -18 -63q-18 -23 -51 -23t-51 23q-18 22 -18 63h-60q0 -64 34 -100q34 -35 95 -36v0zM449 -16q179 2 273 110q94 109 95 303h-377v-78h279q-4 -109 -77 -180q-73 -70 -195 -73q-135 2 -214 94q-80 92 -82 244q2 145 83 232
q81 86 217 88q95 -2 167 -50q71 -48 91 -126h92q-24 117 -117 187q-94 69 -231 71q-178 -3 -285 -114q-106 -111 -109 -293q3 -185 108 -299q106 -113 282 -116v0z" />
    <glyph glyph-name="glyph115" horiz-adv-x="875" 
d="M449 -16q179 2 273 110q94 109 95 303h-377v-78h279q-4 -109 -77 -180q-73 -70 -195 -73q-135 2 -214 94q-80 92 -82 244q2 145 83 232q81 86 217 88q95 -2 167 -50q71 -48 91 -126h92q-24 117 -117 187q-94 69 -231 71q-178 -3 -285 -114q-106 -111 -109 -293
q3 -185 108 -299q106 -113 282 -116v0zM371 -294h56l90 208h-96z" />
    <glyph glyph-name="glyph116" horiz-adv-x="875" 
d="M453 874q26 1 45 19q18 18 19 46q-1 28 -18 46q-18 17 -46 18q-28 -1 -46 -18q-18 -18 -19 -46q1 -28 19 -46t46 -19v0zM449 -16q179 2 273 110q94 109 95 303h-377v-78h279q-4 -109 -77 -180q-73 -70 -195 -73q-135 2 -214 94q-80 92 -82 244q2 145 83 232q81 86 217 88
q95 -2 167 -50q71 -48 91 -126h92q-24 117 -117 187q-94 69 -231 71q-178 -3 -285 -114q-106 -111 -109 -293q3 -185 108 -299q106 -113 282 -116v0z" />
    <glyph glyph-name="glyph117" horiz-adv-x="789" 
d="M91 0h88v388l458 -388h126l-489 415l483 375h-132l-446 -345v345h-88v-790z" />
    <glyph glyph-name="glyph118" horiz-adv-x="789" 
d="M91 0h88v388l458 -388h126l-489 415l483 375h-132l-446 -345v345h-88v-790zM324 -294h56l90 208h-96z" />
    <glyph glyph-name="glyph119" horiz-adv-x="735" 
d="M91 0h88v339h226l177 -339h96l-185 350q87 19 134 74q46 56 47 141q-1 107 -74 165q-72 59 -203 60h-306v-790zM179 419v289h199q97 -1 150 -38q53 -38 54 -106q-1 -69 -52 -107q-52 -37 -147 -38h-204z" />
    <glyph glyph-name="glyph120" horiz-adv-x="735" 
d="M370 870h49l108 150h-100zM91 0h88v339h226l177 -339h96l-185 350q87 19 134 74q46 56 47 141q-1 107 -74 165q-72 59 -203 60h-306v-790zM179 419v289h199q97 -1 150 -38q53 -38 54 -106q-1 -69 -52 -107q-52 -37 -147 -38h-204z" />
    <glyph glyph-name="glyph121" horiz-adv-x="735" 
d="M346 870h78l101 150h-63l-77 -108l-77 108h-63zM91 0h88v339h226l177 -339h96l-185 350q87 19 134 74q46 56 47 141q-1 107 -74 165q-72 59 -203 60h-306v-790zM179 419v289h199q97 -1 150 -38q53 -38 54 -106q-1 -69 -52 -107q-52 -37 -147 -38h-204z" />
    <glyph glyph-name="glyph122" horiz-adv-x="735" 
d="M91 0h88v339h226l177 -339h96l-185 350q87 19 134 74q46 56 47 141q-1 107 -74 165q-72 59 -203 60h-306v-790zM179 419v289h199q97 -1 150 -38q53 -38 54 -106q-1 -69 -52 -107q-52 -37 -147 -38h-204zM304 -294h56l90 208h-96z" />
    <glyph glyph-name="glyph165" horiz-adv-x="238" 
d="M119 604q26 1 45 19q18 18 19 46q-1 28 -18 46q-18 17 -46 18q-28 -1 -46 -18q-18 -18 -19 -46q1 -28 19 -46t46 -19v0zM76 0h86v520h-86v-520z" />
    <glyph glyph-name="glyph237" horiz-adv-x="624" 
d="M293 -16q60 0 102 25q43 25 69 71v-80h86v520h-86v-79q-26 45 -69 70q-42 25 -102 25q-110 -2 -172 -76q-62 -75 -63 -198q1 -124 63 -200t172 -78v0zM306 58q-73 1 -117 57q-45 55 -46 146q1 91 46 145q44 55 117 56q74 -1 118 -56q44 -54 45 -145q-1 -91 -45 -146
q-44 -56 -118 -57v0z" />
    <glyph glyph-name="glyph238" horiz-adv-x="624" 
d="M324 600h49l108 150h-100zM293 -16q60 0 102 25q43 25 69 71v-80h86v520h-86v-79q-26 45 -69 70q-42 25 -102 25q-110 -2 -172 -76q-62 -75 -63 -198q1 -124 63 -200t172 -78v0zM306 58q-73 1 -117 57q-45 55 -46 146q1 91 46 145q44 55 117 56q74 -1 118 -56
q44 -54 45 -145q-1 -91 -45 -146q-44 -56 -118 -57v0z" />
    <glyph glyph-name="glyph239" horiz-adv-x="624" 
d="M342 604q61 1 95 36q34 36 34 100h-60q0 -41 -18 -63q-18 -23 -51 -23t-51 23q-18 22 -18 63h-60q0 -64 34 -100q34 -35 95 -36v0zM293 -16q60 0 102 25q43 25 69 71v-80h86v520h-86v-79q-26 45 -69 70q-42 25 -102 25q-110 -2 -172 -76q-62 -75 -63 -198q1 -124 63 -200
t172 -78v0zM306 58q-73 1 -117 57q-45 55 -46 146q1 91 46 145q44 55 117 56q74 -1 118 -56q44 -54 45 -145q-1 -91 -45 -146q-44 -56 -118 -57v0z" />
    <glyph glyph-name="glyph240" horiz-adv-x="624" 
d="M199 600h63l77 108l77 -108h63l-101 150h-78zM293 -16q60 0 102 25q43 25 69 71v-80h86v520h-86v-79q-26 45 -69 70q-42 25 -102 25q-110 -2 -172 -76q-62 -75 -63 -198q1 -124 63 -200t172 -78v0zM306 58q-73 1 -117 57q-45 55 -46 146q1 91 46 145q44 55 117 56
q74 -1 118 -56q44 -54 45 -145q-1 -91 -45 -146q-44 -56 -118 -57v0z" />
    <glyph glyph-name="glyph241" horiz-adv-x="624" 
d="M255 603q26 1 45 19q18 18 19 46q-1 28 -18 46q-18 17 -46 18q-28 -1 -47 -18q-18 -18 -19 -46q1 -28 19 -46q19 -18 47 -19v0zM431 603q27 1 45 19t19 46q-1 28 -18 46q-18 17 -46 18q-28 -1 -46 -18q-18 -18 -19 -46q1 -28 19 -46t46 -19v0zM293 -16q60 0 102 25
q43 25 69 71v-80h86v520h-86v-79q-26 45 -69 70q-42 25 -102 25q-110 -2 -172 -76q-62 -75 -63 -198q1 -124 63 -200t172 -78v0zM306 58q-73 1 -117 57q-45 55 -46 146q1 91 46 145q44 55 117 56q74 -1 118 -56q44 -54 45 -145q-1 -91 -45 -146q-44 -56 -118 -57v0z" />
    <glyph glyph-name="glyph242" horiz-adv-x="624" 
d="M362 600l-57 150h-100l108 -150h49zM293 -16q60 0 102 25q43 25 69 71v-80h86v520h-86v-79q-26 45 -69 70q-42 25 -102 25q-110 -2 -172 -76q-62 -75 -63 -198q1 -124 63 -200t172 -78v0zM306 58q-73 1 -117 57q-45 55 -46 146q1 91 46 145q44 55 117 56q74 -1 118 -56
q44 -54 45 -145q-1 -91 -45 -146q-44 -56 -118 -57v0z" />
    <glyph glyph-name="glyph243" horiz-adv-x="624" 
d="M169 633l346 1v60l-346 -1v-60zM293 -16q60 0 102 25q43 25 69 71v-80h86v520h-86v-79q-26 45 -69 70q-42 25 -102 25q-110 -2 -172 -76q-62 -75 -63 -198q1 -124 63 -200t172 -78v0zM306 58q-73 1 -117 57q-45 55 -46 146q1 91 46 145q44 55 117 56q74 -1 118 -56
q44 -54 45 -145q-1 -91 -45 -146q-44 -56 -118 -57v0z" />
    <glyph glyph-name="glyph244" horiz-adv-x="624" 
d="M460 -87q0 26 13 48t36 39h41v520h-86v-79q-26 45 -69 70q-42 25 -102 25q-110 -2 -172 -76q-62 -75 -63 -198q1 -124 63 -200t172 -78q60 0 102 25q43 25 69 71v-65q-33 -20 -51 -52t-18 -73q0 -52 46 -83q45 -30 130 -24v51q-54 0 -82 21q-29 21 -29 58v0zM306 58
q-73 1 -117 57q-45 55 -46 146q1 91 46 145q44 55 117 56q74 -1 118 -56q44 -54 45 -145q-1 -91 -45 -146q-44 -56 -118 -57v0z" />
    <glyph glyph-name="glyph245" horiz-adv-x="624" 
d="M342 594q50 1 82 34q33 32 34 82q-1 50 -34 82q-32 33 -82 34q-50 -1 -82 -34q-33 -32 -34 -82q1 -50 34 -82q32 -33 82 -34v0zM342 653q-24 1 -40 17t-17 40q1 24 17 40t40 17q24 -1 40 -17t17 -40q-1 -24 -17 -40t-40 -17v0zM293 -16q60 0 102 25q43 25 69 71v-80h86
v520h-86v-79q-26 45 -69 70q-42 25 -102 25q-110 -2 -172 -76q-62 -75 -63 -198q1 -124 63 -200t172 -78v0zM306 58q-73 1 -117 57q-45 55 -46 146q1 91 46 145q44 55 117 56q74 -1 118 -56q44 -54 45 -145q-1 -91 -45 -146q-44 -56 -118 -57v0z" />
    <glyph glyph-name="glyph246" horiz-adv-x="624" 
d="M410 631q50 1 79 32t29 84h-60q0 -25 -13 -40q-14 -16 -37 -16q-33 4 -62 28q-29 25 -72 28q-50 -1 -80 -32t-29 -83h57q0 24 14 40q14 15 38 15q32 -3 61 -28q29 -24 75 -28v0zM293 -16q60 0 102 25q43 25 69 71v-80h86v520h-86v-79q-26 45 -69 70q-42 25 -102 25
q-110 -2 -172 -76q-62 -75 -63 -198q1 -124 63 -200t172 -78v0zM306 58q-73 1 -117 57q-45 55 -46 146q1 91 46 145q44 55 117 56q74 -1 118 -56q44 -54 45 -145q-1 -91 -45 -146q-44 -56 -118 -57v0z" />
    <glyph glyph-name="glyph247" horiz-adv-x="592" 
d="M77 0h86v262l284 -262h119l-324 294l304 226h-124l-259 -195v465h-86v-790z" />
    <glyph glyph-name="glyph248" horiz-adv-x="592" 
d="M77 0h86v262l284 -262h119l-324 294l304 226h-124l-259 -195v465h-86v-790zM211 -294h56l90 208h-96z" />
    <glyph glyph-name="glyph249" horiz-adv-x="431" 
d="M157 0h86v445h177v75h-177v171l-86 -51v-120h-137v-75h137v-445z" />
    <glyph glyph-name="glyph250" horiz-adv-x="431" 
d="M420 445v75h-177v171l-86 -51v-120h-137v-75h137v-130h-97v-75h97v-240h86v241h130v75h-130v129h177z" />
    <glyph glyph-name="glyph251" horiz-adv-x="431" 
d="M297 640h48l108 150h-100zM157 0h86v445h177v75h-177v171l-86 -51v-120h-137v-75h137v-445z" />
    <glyph glyph-name="glyph252" horiz-adv-x="431" 
d="M243 0v445h177v75h-177v171l-86 -51v-120h-137v-75h137v-445h21l-60 -99l26 -29q8 5 21 9q12 4 29 4q27 0 45 -19q17 -19 18 -50q0 -33 -18 -52t-51 -19t-51 21q-18 20 -18 57h-53q1 -58 33 -90t89 -32q58 0 90 30t32 85q-2 59 -43 88q-40 29 -90 14l53 82h13z" />
    <glyph glyph-name="glyph253" horiz-adv-x="431" 
d="M157 0h86v445h177v75h-177v171l-86 -51v-120h-137v-75h137v-445zM108 -294h56l90 208h-96z" />
    <glyph glyph-name="glyph264" horiz-adv-x="800" 
d="M399 806q-153 -1 -237 -107q-84 -107 -85 -300q1 -197 85 -305q84 -109 237 -110q150 1 233 110q83 108 84 305q-1 193 -84 300q-83 106 -233 107v0zM399 724q45 0 82 -15q36 -16 64 -46l-344 -454q-32 80 -32 195q1 152 61 235q60 84 169 85v0zM399 66q-45 0 -83 16
q-37 16 -66 48l344 453q14 -36 22 -81q7 -45 7 -98q-1 -160 -59 -248q-58 -89 -165 -90v0z" />
    <glyph glyph-name="glyph265" horiz-adv-x="800" 
d="M456 84v706h-59l-264 -148v-97l236 131v-592h-212v-84h505v84h-206z" />
    <glyph glyph-name="glyph266" horiz-adv-x="800" 
d="M127 0h555v86h-450q49 138 231 214q182 75 206 261q-1 114 -70 179t-199 66q-143 -1 -213 -80q-70 -80 -58 -224h92q-15 105 30 163t146 59q87 -1 133 -45t46 -122q-28 -132 -224 -217q-197 -86 -225 -293v-47z" />
    <glyph glyph-name="glyph267" horiz-adv-x="800" 
d="M396 -16q126 2 200 72t76 185q-2 110 -71 170q-70 61 -180 61l242 261v57h-531v-82h393l-240 -268l46 -49q14 6 34 9q19 3 37 3q84 -1 133 -45q49 -43 50 -117q-1 -80 -52 -127t-138 -48q-86 1 -137 54q-52 53 -56 143h-88q2 -124 78 -201q75 -76 204 -78v0z" />
    <glyph glyph-name="glyph268" horiz-adv-x="800" 
d="M497 0h82v223h118v82h-118v485h-128l-380 -502v-65h426v-223zM188 305l309 412v-412h-309z" />
    <glyph glyph-name="glyph269" horiz-adv-x="800" 
d="M388 -16q128 2 204 75q75 73 77 196q-2 118 -72 189q-70 72 -188 74q-51 0 -95 -14q-43 -14 -77 -39l27 243h380v82h-453l-45 -412l57 -24q31 37 77 60q46 22 98 23q93 -1 145 -49q53 -47 54 -126q-1 -88 -51 -141q-51 -54 -139 -55q-78 1 -126 48q-48 46 -54 122h-92
q3 -114 76 -182t197 -70v0z" />
    <glyph glyph-name="glyph270" horiz-adv-x="800" 
d="M397 -16q120 2 194 76q75 74 77 196q-2 111 -72 178q-71 67 -189 69q-70 -1 -128 -31q-57 -31 -84 -83q8 161 61 247q53 87 143 88q70 -1 115 -40t56 -109l93 1q-14 110 -82 169q-68 60 -178 61q-138 -1 -215 -111q-78 -111 -79 -313q0 -192 72 -295q71 -102 216 -103v0z
M399 66q-80 1 -129 50t-50 128q1 80 51 129q49 50 130 51q79 -1 127 -50q48 -50 49 -129q-1 -80 -50 -129t-128 -50v0z" />
    <glyph glyph-name="glyph271" horiz-adv-x="800" 
d="M249 0h104l329 739v51h-585v-82h478z" />
    <glyph glyph-name="glyph272" horiz-adv-x="800" 
d="M392 -16q127 2 202 65q75 64 77 170q-1 70 -42 126q-42 56 -108 79q51 22 84 71q32 49 33 108q-2 91 -68 147q-66 55 -178 56q-112 -1 -178 -56q-66 -56 -68 -147q1 -59 33 -108q33 -49 84 -71q-67 -23 -108 -79t-42 -126q2 -106 77 -170q75 -63 202 -65v0zM392 456
q-70 1 -111 40q-42 39 -43 102q1 57 43 92q41 34 111 35q70 -1 112 -35q41 -35 42 -92q-1 -63 -42 -102q-42 -39 -112 -40v0zM392 65q-84 1 -133 42q-50 41 -51 110q1 72 51 116q49 44 133 45q84 -1 133 -45t50 -116q-1 -69 -50 -110t-133 -42v0z" />
    <glyph glyph-name="glyph273" horiz-adv-x="800" 
d="M389 -16q138 1 216 114q79 114 80 329q0 180 -73 279q-72 99 -217 100q-120 -3 -194 -74q-75 -71 -77 -181q2 -123 73 -193q70 -70 189 -71q70 1 127 32q57 30 84 82q-8 -161 -61 -247q-53 -87 -143 -88q-70 1 -115 40t-56 109l-92 -1q14 -110 82 -169q67 -60 177 -61v0z
M392 366q-79 1 -127 51q-49 49 -50 128q1 80 50 129t129 50q79 -1 128 -50t50 -128q-1 -80 -51 -129q-49 -50 -129 -51v0z" />
    <glyph glyph-name="glyph385" horiz-adv-x="941" 
d="M471 -15q171 4 288 119t122 292q-5 173 -122 289t-288 121q-173 -5 -290 -122q-116 -117 -121 -288q4 -171 119 -289q115 -117 292 -122v0zM471 70q-139 3 -231 95t-95 231q3 139 95 230q92 92 231 95q138 -3 230 -95q92 -91 95 -230q-3 -139 -95 -231t-230 -95v0z
M365 445q31 1 52 21t22 52q-1 30 -22 50t-52 21q-32 -1 -52 -21q-21 -20 -22 -50q1 -32 22 -52q20 -20 52 -21v0zM584 445q31 1 52 21q20 20 21 52q-1 30 -21 50q-21 20 -52 21q-31 -1 -51 -21t-21 -50q1 -32 21 -52t51 -21v0zM471 158q103 1 173 56q70 56 73 157l-72 10
q0 -46 -39 -86q-40 -40 -135 -43q-96 3 -135 43t-40 86l-72 -10q3 -99 72 -156q69 -56 175 -57v0z" />
  </font>
</defs>
</svg>
