<?xml version="1.0" standalone="no"?>
<!DOCTYPE svg PUBLIC "-//W3C//DTD SVG 1.1//EN" "http://www.w3.org/Graphics/SVG/1.1/DTD/svg11.dtd" >
<svg xmlns="http://www.w3.org/2000/svg" xmlns:xlink="http://www.w3.org/1999/xlink" version="1.1">
<metadata>
Created by FontForge 20190801 at Thu Dec 20 08:20:56 2018
 By www-data
Copyright (c) 2018 by Kenneth Knutsen Good Type Foundry. All rights reserved.
</metadata>
<defs>
<font id="GoodSansBold" horiz-adv-x="0" >
  <font-face 
    font-family="GoodSansBold"
    font-weight="700"
    font-stretch="normal"
    units-per-em="1000"
    panose-1="0 0 8 0 0 0 0 0 0 0"
    ascent="800"
    descent="-200"
    x-height="520"
    cap-height="780"
    bbox="-959 -337 1417 1123"
    underline-thickness="50"
    underline-position="-100"
    unicode-range="U+0020-25CA"
  />
<missing-glyph horiz-adv-x="941" 
d="M471 -15q171 4 288 119t122 292q-5 173 -122 289t-288 121q-173 -5 -290 -122q-116 -117 -121 -288q4 -171 119 -289q115 -117 292 -122v0zM471 70q-139 3 -231 95t-95 231q3 139 95 230q92 92 231 95q138 -3 230 -95q92 -91 95 -230q-3 -139 -95 -231t-230 -95v0z
M365 445q31 1 52 21t22 52q-1 30 -22 50t-52 21q-32 -1 -52 -21q-21 -20 -22 -50q1 -32 22 -52q20 -20 52 -21v0zM584 445q31 1 52 21q20 20 21 52q-1 30 -21 50q-21 20 -52 21q-31 -1 -51 -21t-21 -50q1 -32 21 -52t51 -21v0zM471 158q103 1 173 56q70 56 73 157l-72 10
q0 -46 -39 -86q-40 -40 -135 -43q-96 3 -135 43t-40 86l-72 -10q3 -99 72 -156q69 -56 175 -57v0z" />
    <glyph glyph-name=".notdef" horiz-adv-x="941" 
d="M471 -15q171 4 288 119t122 292q-5 173 -122 289t-288 121q-173 -5 -290 -122q-116 -117 -121 -288q4 -171 119 -289q115 -117 292 -122v0zM471 70q-139 3 -231 95t-95 231q3 139 95 230q92 92 231 95q138 -3 230 -95q92 -91 95 -230q-3 -139 -95 -231t-230 -95v0z
M365 445q31 1 52 21t22 52q-1 30 -22 50t-52 21q-32 -1 -52 -21q-21 -20 -22 -50q1 -32 22 -52q20 -20 52 -21v0zM584 445q31 1 52 21q20 20 21 52q-1 30 -21 50q-21 20 -52 21q-31 -1 -51 -21t-21 -50q1 -32 21 -52t51 -21v0zM471 158q103 1 173 56q70 56 73 157l-72 10
q0 -46 -39 -86q-40 -40 -135 -43q-96 3 -135 43t-40 86l-72 -10q3 -99 72 -156q69 -56 175 -57v0z" />
    <glyph glyph-name=".null" 
 />
    <glyph glyph-name="nonmarkingreturn" horiz-adv-x="333" 
 />
    <glyph glyph-name="space" unicode=" " horiz-adv-x="300" 
 />
    <glyph glyph-name="exclam" unicode="!" horiz-adv-x="306" 
d="M80 267h147l4 523h-155zM154 -14q41 1 67 26q26 26 27 67q-1 41 -27 67q-26 25 -67 26q-42 -1 -68 -26q-26 -26 -27 -67q1 -41 27 -67q26 -25 68 -26v0z" />
    <glyph glyph-name="quotedbl" unicode="&#x22;" horiz-adv-x="459" 
d="M80 551h87l20 239h-127zM292 551h87l20 239h-127z" />
    <glyph glyph-name="numbersign" unicode="#" horiz-adv-x="919" 
d="M134 0h156l46 199l162 1l-45 -200h155l46 200h162v132h-132l30 133h152v133h-121l43 192h-155l-44 -192l-163 -1l44 193h-156l-44 -193h-167v-133h137l-30 -132h-157v-133h127zM366 332l30 132l163 1l-31 -133h-162z" />
    <glyph glyph-name="dollar" unicode="$" horiz-adv-x="777" 
d="M721 236q-5 133 -87 175q-81 43 -183 48v185q41 -12 63 -40q23 -27 26 -68h172q-2 107 -72 174t-189 82v98h-127v-98q-115 -16 -179 -78q-65 -62 -66 -162q4 -122 77 -165t168 -51v-197q-44 15 -67 48q-24 33 -26 81h-175q2 -118 74 -190t194 -89v-89h127v87
q129 14 199 81q70 66 71 168v0zM240 554q0 35 21 58q22 23 63 33v-169q-38 8 -61 26q-22 17 -23 52v0zM451 132v188q48 -7 78 -26q29 -20 30 -60q0 -40 -28 -66q-27 -27 -80 -36v0z" />
    <glyph glyph-name="percent" unicode="%" horiz-adv-x="1249" 
d="M281 412q82 2 135 56q52 54 54 143q-2 88 -54 143q-53 54 -135 56q-81 -2 -134 -56q-52 -55 -54 -143q2 -89 54 -143q53 -54 134 -56v0zM423 0l566 790h-191l-566 -790h191zM281 529q-31 1 -51 23t-21 59q1 37 21 59t51 23q31 -1 51 -23t21 -59q-1 -37 -21 -59t-51 -23v0
zM968 -10q81 2 134 56q52 54 54 143q-2 89 -54 143q-53 54 -134 56q-82 -2 -135 -56q-52 -54 -54 -143q2 -88 54 -143q53 -54 135 -56v0zM968 107q-31 1 -51 23t-21 59q1 37 21 59t51 23q31 -1 51 -23t21 -59q-1 -37 -21 -59t-51 -23v0z" />
    <glyph glyph-name="ampersand" unicode="&#x26;" horiz-adv-x="876" 
d="M341 -16q72 0 135 20q64 19 117 55l65 -59h199l-162 150q50 60 79 136q30 75 36 161h-160q-4 -56 -20 -106q-16 -49 -45 -88l-130 119q95 52 139 104t43 126q-2 87 -68 144q-66 58 -176 60q-120 -1 -192 -56t-74 -149q1 -53 25 -99q25 -46 67 -91q-74 -41 -112 -90
q-38 -50 -38 -113q2 -102 76 -162q73 -61 196 -62v0zM347 472q-30 30 -46 57q-17 27 -17 52q0 39 28 60q27 21 77 21q46 0 72 -20q26 -19 26 -55q0 -39 -37 -65q-36 -25 -103 -50v0zM355 135q-59 0 -92 21t-34 57q0 28 25 51q24 24 69 45l155 -143q-52 -31 -123 -31v0z" />
    <glyph glyph-name="quotesingle" unicode="'" horiz-adv-x="247" 
d="M80 551h87l20 239h-127z" />
    <glyph glyph-name="parenleft" unicode="(" horiz-adv-x="508" 
d="M254 -103h161q-77 97 -122 228q-45 132 -46 276q1 136 46 262t122 221h-161q-76 -93 -118 -219t-43 -264q1 -148 43 -279q42 -132 118 -225v0z" />
    <glyph glyph-name="parenright" unicode=")" horiz-adv-x="521" 
d="M267 -103q76 93 118 225q42 131 43 279q-1 138 -43 264t-118 219h-161q77 -95 122 -221t46 -262q-1 -144 -46 -276q-45 -131 -122 -228h161z" />
    <glyph glyph-name="asterisk" unicode="*" horiz-adv-x="632" 
d="M253 352h126l-25 146l105 -105l73 103l-156 75l156 73l-73 104l-105 -105l25 147h-126l25 -146l-104 104l-73 -104l156 -73l-156 -75l73 -103l104 103z" />
    <glyph glyph-name="plus" unicode="+" horiz-adv-x="706" 
d="M287 96l133 1v183h193v133h-194v184h-133v-185h-193v-133h194v-183z" />
    <glyph glyph-name="comma" unicode="," horiz-adv-x="295" 
d="M37 -103h102l118 248h-159z" />
    <glyph glyph-name="hyphen" unicode="-" horiz-adv-x="686" 
d="M93 288h500v148h-500v-148z" />
    <glyph glyph-name="period" unicode="." horiz-adv-x="292" 
d="M147 -14q41 1 67 26q26 26 27 67q-1 41 -27 67q-26 25 -67 26q-42 -1 -69 -26q-26 -26 -27 -67q1 -41 27 -67q27 -25 69 -26v0z" />
    <glyph glyph-name="slash" unicode="/" horiz-adv-x="929" 
d="M277 0l566 790h-191l-566 -790h191z" />
    <glyph glyph-name="zero" unicode="0" horiz-adv-x="797" 
d="M401 -16q164 1 254 110q90 108 91 305q-1 193 -91 300q-90 106 -254 107q-166 -1 -257 -107q-92 -107 -93 -300q1 -197 93 -305q91 -109 257 -110v0zM401 135q-90 1 -140 71q-49 70 -50 198q1 119 50 185q50 65 140 66q88 -1 136 -66q47 -66 48 -185q-1 -128 -48 -198
q-48 -70 -136 -71v0z" />
    <glyph glyph-name="one" unicode="1" horiz-adv-x="479" 
d="M246 0h156v790h-108l-275 -148v-168l227 121v-595z" />
    <glyph glyph-name="two" unicode="2" horiz-adv-x="704" 
d="M63 0h589v152h-392q27 92 197 145q170 52 194 251q-1 125 -77 191t-215 67q-153 -1 -232 -80q-79 -80 -68 -224h161q-10 73 27 113q36 39 109 40q65 -1 99 -33q35 -33 35 -82q-27 -113 -213 -171q-187 -57 -214 -299v-70z" />
    <glyph glyph-name="three" unicode="3" horiz-adv-x="693" 
d="M349 -16q137 2 220 72t85 185q-3 116 -71 172q-68 57 -162 63l225 214v100h-578v-151h325l-189 -199l80 -87q15 6 34 9t37 3q67 -1 105 -31q37 -30 38 -82q-1 -55 -40 -85q-40 -31 -110 -32q-68 1 -108 34q-39 34 -42 94h-159q2 -124 86 -201q85 -76 224 -78v0z" />
    <glyph glyph-name="four" unicode="4" horiz-adv-x="733" 
d="M450 0h148v194h106v151h-106v445h-211l-351 -456v-140h414v-194zM238 345l212 283v-283h-212z" />
    <glyph glyph-name="five" unicode="5" horiz-adv-x="712" 
d="M354 -16q141 1 225 74q83 74 85 214q-1 115 -72 185t-195 72q-47 0 -85 -11q-37 -12 -65 -32l18 153h361v151h-493l-39 -412l94 -50q31 27 72 42q41 16 84 16q74 -1 116 -33q42 -33 43 -91q-1 -58 -40 -92q-40 -34 -110 -35q-58 1 -95 31q-38 29 -45 81h-161
q7 -123 88 -192q80 -70 214 -71v0z" />
    <glyph glyph-name="six" unicode="6" horiz-adv-x="706" 
d="M359 -16q124 2 205 75q80 74 83 197q-1 120 -73 189q-72 68 -200 69q-53 0 -98 -18q-45 -19 -74 -52q14 102 55 156t104 55q55 0 88 -24q34 -24 40 -67l161 1q-11 114 -85 177q-75 63 -200 64q-140 -1 -224 -110q-85 -109 -87 -314q-1 -180 74 -287q74 -108 231 -111v0z
M359 135q-57 1 -92 34t-36 86q1 55 36 89q35 33 94 34q58 -1 93 -34q35 -34 36 -88q-1 -54 -37 -87q-35 -33 -94 -34v0z" />
    <glyph glyph-name="seven" unicode="7" horiz-adv-x="658" 
d="M135 0h188l313 705v85h-613v-151h408z" />
    <glyph glyph-name="eight" unicode="8" horiz-adv-x="715" 
d="M358 -16q140 1 222 63q81 62 83 172q-2 81 -46 135q-43 54 -99 70q41 14 78 62q36 47 39 117q-2 95 -77 148q-76 54 -200 55q-125 -1 -200 -55q-76 -53 -78 -148q3 -70 39 -117q37 -48 78 -62q-56 -16 -99 -70q-44 -54 -46 -135q2 -110 84 -172q81 -62 222 -63v0z
M358 485q-50 1 -83 25t-34 66q1 40 34 63t83 23q49 0 82 -23t34 -63q-1 -42 -34 -66t-82 -25v0zM358 128q-64 1 -102 29t-39 77q1 51 39 80t102 30q63 -1 101 -30t39 -80q-1 -49 -39 -77t-101 -29v0z" />
    <glyph glyph-name="nine" unicode="9" horiz-adv-x="707" 
d="M335 -16q140 1 228 114t91 323q0 175 -78 279t-235 106q-124 -2 -205 -74q-80 -73 -83 -192q1 -125 73 -194t200 -70q53 0 98 19q45 18 74 51q-14 -100 -55 -155q-42 -55 -104 -56q-54 0 -88 24q-33 24 -40 67l-161 -1q11 -114 86 -177q74 -63 199 -64v0zM339 412
q-58 1 -93 34q-35 34 -36 88q1 54 37 87q35 33 94 34q57 -1 92 -34t36 -86q-1 -55 -36 -88q-35 -34 -94 -35v0z" />
    <glyph glyph-name="colon" unicode=":" horiz-adv-x="292" 
d="M147 358q41 1 67 26q26 26 27 67q-1 41 -27 67q-26 25 -67 26q-42 -1 -69 -26q-26 -26 -27 -67q1 -41 27 -67q27 -25 69 -26v0zM147 -14q41 1 67 26q26 26 27 67q-1 41 -27 67q-26 25 -67 26q-42 -1 -69 -26q-26 -26 -27 -67q1 -41 27 -67q27 -25 69 -26v0z" />
    <glyph glyph-name="semicolon" unicode=";" horiz-adv-x="293" 
d="M147 358q41 1 67 26q26 26 27 67q-1 41 -27 67q-26 25 -67 26q-42 -1 -69 -26q-26 -26 -27 -67q1 -41 27 -67q27 -25 69 -26v0zM10 -103h102l117 248h-158z" />
    <glyph glyph-name="less" unicode="&#x3c;" horiz-adv-x="686" 
d="M593 -1v154l-305 127l305 127v154l-500 -198v-166z" />
    <glyph glyph-name="equal" unicode="=" horiz-adv-x="706" 
d="M93 375l520 1v133l-520 -1v-133zM93 179l520 1v132l-520 -1v-132z" />
    <glyph glyph-name="greater" unicode="&#x3e;" horiz-adv-x="686" 
d="M93 -1l500 198v166l-500 198v-154l305 -127l-305 -127v-154z" />
    <glyph glyph-name="question" unicode="?" horiz-adv-x="688" 
d="M245 257h156q10 82 113 132q103 51 118 181q-1 121 -76 179q-75 57 -211 57q-151 -1 -229 -80q-79 -78 -68 -221h160q-10 72 27 111q36 39 107 39q62 -1 96 -28q35 -27 35 -72q-15 -86 -117 -128q-102 -43 -111 -170v0zM324 -14q41 1 67 26q26 26 27 67q-1 41 -26 67
q-26 25 -68 26q-42 -1 -68 -26q-26 -26 -27 -67q1 -41 27 -67q26 -25 68 -26v0z" />
    <glyph glyph-name="at" unicode="@" horiz-adv-x="1251" 
d="M635 -251q97 1 201 38q104 38 175 104l-87 90q-52 -50 -131 -79q-79 -30 -158 -31q-185 3 -298 116t-116 298q3 183 116 295t298 114q180 -3 290 -94t114 -245q-1 -89 -31 -145t-73 -58q-29 2 -41 32q-11 30 -9 70l28 286h-149l-5 -59q-26 36 -68 55q-42 20 -100 20
q-102 -2 -169 -77q-67 -74 -79 -197q-7 -124 59 -200t169 -78q76 0 125 35t74 96q15 -49 53 -76q38 -28 104 -28q107 3 172 86q65 84 67 218q-4 216 -149 347t-382 134q-246 -5 -395 -150q-150 -144 -154 -381q3 -240 151 -386t398 -150v0zM604 132q-56 1 -87 42
q-30 41 -26 107q7 66 45 106t94 41q56 -1 87 -41q30 -40 25 -106q-6 -66 -44 -107t-94 -42v0z" />
    <glyph glyph-name="A" unicode="A" horiz-adv-x="896" 
d="M16 0h168l72 165h385l71 -165h168l-345 780h-174zM321 316l128 292l127 -292h-255z" />
    <glyph glyph-name="B" unicode="B" horiz-adv-x="775" 
d="M570 409q53 19 82 64q30 45 30 109q-1 95 -65 146t-178 52h-362v-780h388q112 2 180 62t70 156q0 72 -36 123q-37 51 -109 68v0zM233 629h150q72 1 107 -17q34 -18 34 -63q0 -43 -33 -63q-33 -21 -103 -21h-155v164zM412 151h-179v179h183q71 0 105 -21t34 -65
q0 -46 -35 -70q-35 -23 -108 -23v0z" />
    <glyph glyph-name="C" unicode="C" horiz-adv-x="860" 
d="M450 -16q137 1 238 81q100 80 126 229h-161q-13 -76 -69 -117q-56 -42 -142 -42q-109 1 -172 70t-64 194q1 117 65 182q64 64 175 64q78 -1 131 -39q53 -37 67 -106h161q-21 142 -118 219q-98 76 -239 77q-179 -3 -289 -112t-113 -290q3 -185 113 -296t291 -114v0z" />
    <glyph glyph-name="D" unicode="D" horiz-adv-x="862" 
d="M77 0h335q185 1 293 103q109 102 111 288q-2 188 -109 288q-108 100 -295 101h-335v-780zM233 140v500h179q116 -1 179 -64q64 -64 65 -184q-1 -122 -65 -187q-63 -64 -179 -65h-179z" />
    <glyph glyph-name="E" unicode="E" horiz-adv-x="740" 
d="M77 0h597v151h-441v172h401v144h-401v162h436v151h-592v-780z" />
    <glyph glyph-name="F" unicode="F" horiz-adv-x="705" 
d="M77 0h156v330h394v144h-394v166h429v140h-585v-780z" />
    <glyph glyph-name="G" unicode="G" horiz-adv-x="884" 
d="M430 -16q100 0 161 30q61 31 95 93l3 -107h129v424h-383v-132h214q-3 -70 -58 -113t-149 -44q-110 1 -172 70q-63 69 -64 194q1 117 65 182q64 64 175 64q78 -1 131 -34q53 -32 67 -91h161q-22 135 -120 205q-99 71 -237 71q-180 -3 -289 -112q-110 -109 -113 -290
q2 -185 104 -296t280 -114v0z" />
    <glyph glyph-name="H" unicode="H" horiz-adv-x="844" 
d="M77 0h156v334h378v-334h156v780h-156v-296h-378v296h-156v-780z" />
    <glyph glyph-name="I" unicode="I" horiz-adv-x="310" 
d="M77 0h156v780h-156v-780z" />
    <glyph glyph-name="J" unicode="J" horiz-adv-x="673" 
d="M313 -13q137 1 211 80q73 79 74 228v485h-156v-479q0 -80 -33 -121q-33 -42 -96 -42q-62 0 -95 37q-32 37 -32 107h-156q1 -142 74 -218t209 -77v0z" />
    <glyph glyph-name="K" unicode="K" horiz-adv-x="818" 
d="M77 0h156v259l84 79l282 -338h207l-379 440l373 340h-213l-354 -327v327h-156v-780z" />
    <glyph glyph-name="L" unicode="L" horiz-adv-x="662" 
d="M77 0h546v136h-390v644h-156v-780z" />
    <glyph glyph-name="M" unicode="M" horiz-adv-x="1069" 
d="M77 0h156v562l232 -562h140l232 562v-562h155v780h-237l-220 -555l-221 555h-237v-780z" />
    <glyph glyph-name="N" unicode="N" horiz-adv-x="879" 
d="M77 0h156v539l404 -539h164v780h-155v-533l-403 533h-166v-780z" />
    <glyph glyph-name="O" unicode="O" horiz-adv-x="890" 
d="M448 -16q182 3 288 114t108 296q-2 181 -108 290t-288 112q-185 -3 -292 -112q-108 -109 -110 -290q2 -185 110 -296q107 -111 292 -114v0zM448 135q-113 1 -177 70t-65 194q1 116 65 180q64 65 177 66q110 -1 172 -66q62 -64 63 -180q-1 -125 -63 -194t-172 -70v0z" />
    <glyph glyph-name="P" unicode="P" horiz-adv-x="752" 
d="M77 0h156v276h210q130 2 200 72q69 70 70 187q-1 116 -70 180q-70 64 -200 65h-366v-780zM233 426v203h172q72 0 110 -27q37 -26 37 -74t-36 -75t-106 -27h-177z" />
    <glyph glyph-name="Q" unicode="Q" horiz-adv-x="911" 
d="M940 0l-158 157q30 49 46 109t16 128q-2 181 -108 290t-288 112q-185 -3 -292 -112q-108 -109 -110 -290q2 -185 110 -296q107 -111 292 -114q71 0 131 19q60 18 109 53l56 -56h196zM448 135q-113 1 -177 70t-65 194q1 116 65 180q64 65 177 66q110 -1 172 -66
q62 -64 63 -180q0 -70 -21 -123l-125 124h-195l233 -232q-53 -33 -127 -33v0z" />
    <glyph glyph-name="R" unicode="R" horiz-adv-x="779" 
d="M77 0h156v290h171q72 2 94 -22q23 -24 30 -95q7 -54 13 -96q7 -42 21 -77h165v10q-22 50 -25 89t-14 119q-8 51 -30 80q-23 29 -63 41q56 25 87 74t31 122q-1 116 -70 180q-70 64 -200 65h-366v-780zM233 426v203h179q72 0 106 -27q34 -26 34 -74t-33 -75t-102 -27h-184z
" />
    <glyph glyph-name="S" unicode="S" horiz-adv-x="777" 
d="M395 -16q155 2 240 71q85 68 86 181q-30 226 -240 220q-211 -6 -241 98q0 47 38 72q37 26 109 26q70 0 109 -31q39 -30 44 -85h172q-2 121 -90 190t-232 70q-145 -1 -227 -66q-82 -64 -84 -178q30 -220 240 -216q210 5 240 -102q0 -49 -41 -77t-119 -29q-79 1 -122 37
q-43 37 -46 103h-175q2 -135 95 -209q92 -74 244 -75v0z" />
    <glyph glyph-name="T" unicode="T" horiz-adv-x="759" 
d="M301 0h156v628h278v152h-711v-152h277v-628z" />
    <glyph glyph-name="U" unicode="U" horiz-adv-x="824" 
d="M412 -13q163 0 252 90q90 89 91 254v449h-156v-448q-1 -92 -49 -143q-49 -50 -138 -51q-89 1 -138 51q-49 51 -50 143v448h-155v-449q1 -162 91 -251q89 -90 252 -93v0z" />
    <glyph glyph-name="V" unicode="V" horiz-adv-x="828" 
d="M330 0h169l306 780h-160l-231 -599l-230 599h-161z" />
    <glyph glyph-name="W" unicode="W" horiz-adv-x="1228" 
d="M263 0h172l177 556l181 -556h172l235 780h-172l-152 -574l-170 574h-190l-165 -573l-151 573h-172z" />
    <glyph glyph-name="X" unicode="X" horiz-adv-x="828" 
d="M23 0h191l200 264l200 -264h191l-295 390l295 390h-192l-199 -263l-199 263h-192l295 -390z" />
    <glyph glyph-name="Y" unicode="Y" horiz-adv-x="780" 
d="M312 0h156v306l299 474h-172l-205 -333l-205 333h-172l299 -474v-306z" />
    <glyph glyph-name="Z" unicode="Z" horiz-adv-x="730" 
d="M52 0h619v141h-392l405 554v85h-638v-141h404l-398 -532v-107z" />
    <glyph glyph-name="bracketleft" unicode="[" horiz-adv-x="533" 
d="M93 -124l347 1v147h-191v733h191v147h-347v-1028z" />
    <glyph glyph-name="backslash" unicode="\" horiz-adv-x="929" 
d="M652 0h191l-566 790h-191z" />
    <glyph glyph-name="bracketright" unicode="]" horiz-adv-x="533" 
d="M440 -124v1028h-347v-147h191v-733h-191v-147z" />
    <glyph glyph-name="asciicircum" unicode="^" horiz-adv-x="783" 
d="M93 400h156l143 254l142 -254h156l-209 390h-177z" />
    <glyph glyph-name="underscore" unicode="_" horiz-adv-x="754" 
d="M93 -134l568 1v133l-568 -1v-133z" />
    <glyph glyph-name="grave" unicode="`" horiz-adv-x="600" 
d="M290 650l-51 150h-169l119 -150h101z" />
    <glyph glyph-name="a" unicode="a" horiz-adv-x="629" 
d="M244 -16q67 0 109 28q43 28 62 77q9 -54 54 -79q45 -24 131 -6v106q-30 -3 -40 9q-10 13 -9 45v176q-1 93 -62 144t-176 52q-113 -1 -175 -53t-63 -146h146q0 34 24 52q23 19 66 19q47 0 70 -18t22 -50v-16l-122 -14q-109 -13 -167 -56q-59 -44 -60 -115q-1 -62 45 -107
q45 -46 145 -48v0zM274 94q-35 0 -53 15q-18 14 -18 38q0 28 36 42t107 22l51 6q-7 -54 -38 -88q-32 -34 -85 -35v0z" />
    <glyph glyph-name="b" unicode="b" horiz-adv-x="658" 
d="M389 -16q100 2 161 78t63 200q-2 122 -63 197t-161 77q-61 0 -105 -22q-43 -22 -70 -62v338h-148v-790h148v68q27 -40 70 -62q44 -22 105 -22v0zM338 112q-56 1 -90 42t-35 107q1 66 35 106t90 41q56 -1 91 -41q34 -40 35 -106q-1 -66 -35 -107q-35 -41 -91 -42v0z" />
    <glyph glyph-name="c" unicode="c" horiz-adv-x="598" 
d="M315 -16q98 2 163 58q66 55 79 147h-148q-4 -34 -31 -55t-69 -22q-52 1 -83 42q-30 41 -31 107q1 66 31 106q31 40 83 41q40 -1 67 -22q27 -22 33 -57h148q-13 92 -79 149q-65 56 -163 58q-122 -2 -194 -77q-73 -75 -75 -198q2 -124 75 -199q72 -76 194 -78v0z" />
    <glyph glyph-name="d" unicode="d" horiz-adv-x="659" 
d="M269 -16q61 0 105 22q43 22 70 62v-68h149v790h-149v-338q-27 40 -70 62q-44 22 -105 22q-100 -2 -161 -77q-60 -75 -62 -197q2 -124 62 -200q61 -76 161 -78v0zM320 112q-56 1 -91 42q-34 41 -35 107q1 66 35 106q35 40 91 41q56 -1 90 -41t35 -106q-1 -66 -35 -107
t-90 -42v0z" />
    <glyph glyph-name="e" unicode="e" horiz-adv-x="605" 
d="M315 -16q97 1 163 50q65 49 79 135h-149q-5 -28 -29 -45q-24 -18 -63 -19q-57 1 -86 30q-28 30 -33 81h362v48q-2 126 -70 198q-68 73 -174 74q-121 -2 -194 -77t-75 -198q2 -124 75 -199q73 -76 194 -78v0zM198 307q6 46 33 73q26 27 78 28q47 -1 73 -29t28 -72h-212z
" />
    <glyph glyph-name="f" unicode="f" horiz-adv-x="446" 
d="M138 0h149v385h142v135h-142v34q0 59 24 81q23 21 74 20h34v135h-76q-102 0 -154 -59q-52 -60 -51 -162v-49h-122v-135h122v-385z" />
    <glyph glyph-name="g" unicode="g" horiz-adv-x="665" 
d="M325 -216q135 0 205 62t70 189v485h-149v-66q-26 39 -69 61q-43 21 -105 21q-102 -2 -162 -77q-61 -76 -62 -200q1 -122 62 -191q60 -70 162 -71q62 0 105 20q43 19 69 55v-37q1 -70 -28 -105q-30 -34 -91 -34q-47 0 -78 16q-30 16 -35 51h-149q9 -91 74 -135
q64 -44 181 -44v0zM327 119q-56 1 -91 41q-34 39 -35 105q1 66 35 107q35 41 91 42q56 -1 90 -42t35 -107q-1 -66 -35 -105q-34 -40 -90 -41v0z" />
    <glyph glyph-name="h" unicode="h" horiz-adv-x="643" 
d="M66 0h148v268q1 65 32 102q30 37 85 38q48 0 75 -31q27 -32 27 -89v-288h150v295q0 120 -48 181q-48 60 -145 60q-62 0 -106 -24t-70 -66v344h-148v-790z" />
    <glyph glyph-name="i" unicode="i" horiz-adv-x="279" 
d="M140 584q41 1 67 27t27 67q-1 41 -27 66t-67 26q-42 -1 -68 -26t-27 -66q1 -41 27 -67t68 -27v0zM65 0h149v520h-149v-520z" />
    <glyph glyph-name="j" unicode="j" horiz-adv-x="279" 
d="M140 584q41 1 68 27q26 26 27 67q-1 41 -27 66t-68 26q-41 -1 -68 -26q-26 -25 -27 -66q1 -41 27 -67q27 -26 68 -27v0zM-46 -200h22q113 -2 176 43q63 44 64 156v521h-148v-492q0 -56 -24 -80q-24 -25 -68 -24h-22v-124z" />
    <glyph glyph-name="k" unicode="k" horiz-adv-x="629" 
d="M66 0h148v193l40 33l184 -226h183l-266 312l246 208h-190l-197 -169v439h-148v-790z" />
    <glyph glyph-name="l" unicode="l" horiz-adv-x="280" 
d="M66 0h148v790h-148v-790z" />
    <glyph glyph-name="m" unicode="m" horiz-adv-x="1012" 
d="M66 0h148v266q1 65 32 103q30 38 85 39q48 0 75 -32t27 -90v-286h150v266q1 65 32 103q30 38 85 39q48 0 75 -32t27 -90v-286h151v294q0 119 -48 181q-49 61 -146 61q-60 0 -112 -23q-51 -23 -90 -76q-43 99 -167 99q-62 0 -106 -24q-44 -25 -70 -67v75h-148v-520z" />
    <glyph glyph-name="n" unicode="n" horiz-adv-x="643" 
d="M66 0h148v266q1 65 32 103q30 38 85 39q48 0 75 -32t27 -90v-286h150v294q0 119 -48 181q-48 61 -145 61q-62 0 -106 -24q-44 -25 -70 -67v75h-148v-520z" />
    <glyph glyph-name="o" unicode="o" horiz-adv-x="647" 
d="M323 -16q124 2 200 78q76 75 78 199q-2 123 -78 198t-200 77q-124 -2 -200 -77q-75 -75 -77 -198q2 -124 77 -199q76 -76 200 -78v0zM323 112q-57 1 -92 42t-36 107q1 66 36 106t92 41q58 -1 93 -41t36 -106q-1 -66 -36 -107t-93 -42v0z" />
    <glyph glyph-name="p" unicode="p" horiz-adv-x="658" 
d="M66 -200h148v268q27 -40 70 -62q44 -22 105 -22q100 2 161 77t63 197q-2 124 -63 200t-161 78q-61 0 -105 -22q-43 -22 -70 -62v68h-148v-720zM338 112q-56 1 -90 41t-35 106q1 66 35 107t90 42q56 -1 91 -42q34 -41 35 -107q-1 -66 -35 -106q-35 -40 -91 -41v0z" />
    <glyph glyph-name="q" unicode="q" horiz-adv-x="658" 
d="M444 -200h149v720h-149v-68q-27 40 -70 62q-44 22 -105 22q-100 -2 -161 -78q-60 -76 -62 -200q2 -122 62 -197q61 -75 161 -77q61 0 105 22q43 22 70 62v-268zM320 112q-56 1 -91 41q-34 40 -35 106q1 66 35 107q35 41 91 42q56 -1 90 -42t35 -107q-1 -66 -35 -106
t-90 -41v0z" />
    <glyph glyph-name="r" unicode="r" horiz-adv-x="433" 
d="M66 0h146v281q3 68 63 86q59 18 141 16v143q-76 0 -127 -26t-77 -78v98h-146v-520z" />
    <glyph glyph-name="s" unicode="s" horiz-adv-x="586" 
d="M298 -16q114 1 178 45q63 44 64 122q-21 153 -166 157t-166 63q0 28 23 45q22 17 64 17q45 0 71 -22q25 -21 28 -60h146q-8 87 -69 136q-62 48 -167 49q-116 -1 -180 -46t-65 -125q21 -148 167 -152q145 -4 166 -67q0 -24 -24 -41q-23 -17 -66 -18q-47 0 -77 21
q-30 20 -32 58h-147q3 -86 69 -134q66 -47 183 -48v0z" />
    <glyph glyph-name="t" unicode="t" horiz-adv-x="471" 
d="M400 1v131q-80 -9 -99 6t-16 78v169h136v135h-136v140h-148v-140h-111v-135h111v-245q-3 -106 60 -130q64 -23 203 -9v0z" />
    <glyph glyph-name="u" unicode="u" horiz-adv-x="643" 
d="M577 520h-148v-266q-1 -65 -31 -103q-31 -38 -86 -39q-48 1 -75 33t-27 89v286h-150v-294q0 -119 48 -181q48 -61 145 -61q62 0 106 25q44 24 70 66v-75h148v520z" />
    <glyph glyph-name="v" unicode="v" horiz-adv-x="639" 
d="M239 0h161l209 520h-155l-134 -348l-134 348h-155z" />
    <glyph glyph-name="w" unicode="w" horiz-adv-x="936" 
d="M199 0h157l112 312l111 -312h157l178 520h-155l-103 -324l-112 324h-153l-111 -324l-103 324h-156z" />
    <glyph glyph-name="x" unicode="x" horiz-adv-x="647" 
d="M26 0h179l118 148l119 -148h179l-208 261l207 259h-179l-118 -147l-118 147h-178l207 -259z" />
    <glyph glyph-name="y" unicode="y" horiz-adv-x="638" 
d="M74 -200h64q96 -2 163 33q66 36 106 129l213 558h-156l-129 -347l-148 347h-156l226 -528q-24 -35 -54 -48q-30 -14 -78 -13h-51v-131z" />
    <glyph glyph-name="z" unicode="z" horiz-adv-x="588" 
d="M43 0h496v142h-270l265 287v91h-472v-142h257l-276 -294v-84z" />
    <glyph glyph-name="braceleft" unicode="{" horiz-adv-x="619" 
d="M507 -123h19v122h-31q-69 -1 -93 31q-23 31 -21 102v113q-1 67 -38 102t-103 46q66 12 103 46q37 35 38 103v105q-2 73 21 104q24 32 93 31h31v122h-19q-160 3 -222 -39q-63 -42 -60 -166v-129q-1 -74 -36 -103q-36 -28 -96 -27v-93q60 1 96 -27q35 -29 36 -104v-136
q-3 -123 60 -164q62 -42 222 -39v0z" />
    <glyph glyph-name="bar" unicode="|" horiz-adv-x="356" 
d="M100 -200h156v990h-156v-990z" />
    <glyph glyph-name="braceright" unicode="}" horiz-adv-x="619" 
d="M112 -123q160 -3 222 39q63 41 60 164v136q1 75 36 104q36 28 96 27v93q-60 -1 -96 27q-35 29 -36 103v129q3 124 -60 166q-62 42 -222 39h-19v-122h31q69 1 92 -31q24 -31 22 -104v-105q1 -68 38 -103q37 -34 103 -46q-66 -11 -103 -46t-38 -102v-113q2 -71 -22 -102
q-23 -32 -92 -31h-31v-122h19z" />
    <glyph glyph-name="asciitilde" unicode="~" horiz-adv-x="691" 
d="M438 279q82 1 124 43q42 43 36 119h-118q0 -28 -12 -44q-12 -17 -40 -17q-36 4 -75 31q-38 26 -97 30q-82 -1 -125 -42q-43 -42 -37 -118h115q0 27 13 44q14 17 42 17q33 -4 74 -31q40 -28 100 -32v0z" />
    <glyph glyph-name="exclamdown" unicode="&#xa1;" horiz-adv-x="306" 
d="M154 804q-42 -1 -68 -26q-26 -26 -27 -67q1 -41 27 -67q26 -25 68 -26q41 1 67 26q26 26 27 67q-1 41 -27 67q-26 25 -67 26v0zM80 523l-4 -523h155l-4 523h-147z" />
    <glyph glyph-name="cent" unicode="&#xa2;" horiz-adv-x="599" 
d="M309 112q-52 1 -83 42q-30 41 -31 107q1 66 31 106q31 40 83 41q40 -1 67 -22q27 -22 33 -57h148q-10 75 -56 127q-47 52 -118 71v93h-156v-97q-84 -27 -132 -95q-48 -69 -49 -167q1 -99 49 -168t132 -96v-97h156v92q71 20 118 71q46 52 56 126h-148q-4 -34 -31 -55
t-69 -22v0z" />
    <glyph glyph-name="sterling" unicode="&#xa3;" horiz-adv-x="764" 
d="M283 150q34 27 56 64q23 36 29 87h245v132l-278 -1q-15 29 -27 60q-11 30 -12 66q0 49 26 73t74 24q50 -1 79 -28q30 -28 31 -75h152q-4 116 -71 184t-197 70q-119 -1 -184 -61q-66 -59 -67 -163q0 -42 11 -79q10 -37 25 -71h-82v-132h126q2 -11 2 -23q-1 -56 -36 -89
q-34 -34 -84 -53v-136h563v151h-381z" />
    <glyph glyph-name="currency" unicode="&#xa4;" horiz-adv-x="814" 
d="M211 54l65 65q29 -14 61 -22q33 -8 69 -8q37 0 70 8t62 23l65 -66l111 111l-65 63q16 29 24 64q9 35 9 73q0 36 -8 69q-8 32 -22 61l61 61l-111 111l-60 -61q-29 16 -63 24q-35 9 -73 9t-72 -8q-35 -9 -64 -24l-60 60l-110 -111l61 -60q-14 -29 -22 -61q-8 -33 -8 -70
q0 -38 9 -73q8 -35 24 -64l-63 -64zM406 237q-56 0 -91 36q-35 35 -36 92q1 57 36 91q35 35 91 35q57 0 92 -35q35 -34 36 -91q-1 -57 -36 -92q-35 -36 -92 -36v0z" />
    <glyph glyph-name="yen" unicode="&#xa5;" horiz-adv-x="780" 
d="M767 780h-172l-146 -236l-118 -1l-146 237h-172l149 -237h-91v-132h175l40 -64h-215v-132h241v-215h156v216h241v132h-215l41 64h174v132h-91z" />
    <glyph glyph-name="brokenbar" unicode="&#xa6;" horiz-adv-x="356" 
d="M100 367h156v423h-156v-423zM100 -200h156v423h-156v-423z" />
    <glyph glyph-name="section" unicode="&#xa7;" horiz-adv-x="631" 
d="M321 -39q120 1 186 47q67 46 68 129q-1 53 -21 84q-20 32 -54 48q37 23 56 56q19 34 19 77q-22 159 -173 159t-173 72q0 26 23 45q22 19 64 20q43 0 71 -23q28 -22 30 -64h153q-8 92 -72 143t-172 52q-119 -1 -186 -49q-66 -48 -67 -131q1 -51 21 -82q21 -31 54 -47
q-37 -23 -56 -58q-19 -34 -19 -78q22 -155 173 -157t173 -73q0 -25 -24 -43q-25 -18 -70 -19q-50 0 -82 22q-32 21 -34 61h-153q3 -90 73 -140q69 -50 192 -51v0zM323 334q-43 0 -68 14q-25 13 -26 36q1 22 26 35q25 14 68 14q44 0 70 -14q25 -13 26 -35q0 -23 -26 -36
q-25 -14 -70 -14v0z" />
    <glyph glyph-name="dieresis" unicode="&#xa8;" horiz-adv-x="600" 
d="M139 578q41 1 67 27t27 67q-1 41 -26 67q-26 25 -68 26q-42 -1 -68 -26q-26 -26 -27 -67q1 -41 27 -67t68 -27v0zM364 578q41 1 67 27t27 67q-1 41 -26 67q-26 25 -68 26q-42 -1 -68 -26q-26 -26 -27 -67q1 -41 27 -67t68 -27v0z" />
    <glyph glyph-name="copyright" unicode="&#xa9;" horiz-adv-x="1008" 
d="M504 -16q178 4 293 118q114 115 118 294q-4 179 -118 293q-114 113 -293 117q-179 -4 -293 -117q-114 -114 -118 -293q4 -179 118 -294q114 -114 293 -118v0zM504 78q-138 3 -224 91t-89 227q3 139 89 226t224 90q138 -3 224 -90t89 -226q-3 -139 -90 -227t-223 -91v0z
M514 168q76 1 132 45q56 45 70 127h-89q-8 -42 -39 -65t-79 -23q-61 1 -95 39q-35 38 -36 108q1 65 36 101q36 36 97 36q44 0 74 -21q29 -21 37 -59h89q-11 79 -66 121q-54 43 -132 43q-101 -2 -162 -62q-61 -61 -63 -162q2 -103 63 -165q62 -61 163 -63v0z" />
    <glyph glyph-name="guillemotleft" unicode="&#xab;" horiz-adv-x="895" 
d="M313 0h166l-217 250l217 250h-166l-220 -250zM637 0h165l-217 250l217 250h-165l-220 -250z" />
    <glyph glyph-name="logicalnot" unicode="&#xac;" horiz-adv-x="785" 
d="M546 96l146 1l-2 329l-597 -1v-148l453 1v-182z" />
    <glyph glyph-name="registered" unicode="&#xae;" horiz-adv-x="1008" 
d="M504 -16q178 4 293 118q114 115 118 294q-4 179 -118 293q-114 113 -293 117q-179 -4 -293 -117q-114 -114 -118 -293q4 -179 118 -294q114 -114 293 -118v0zM504 78q-138 3 -224 91t-89 227q3 139 89 226t224 90q138 -3 224 -90t89 -226q-3 -139 -90 -227t-223 -91v0z
M336 182h86v162h96q40 1 52 -13q13 -13 17 -52q3 -31 7 -54q4 -24 12 -43h91v6q-12 28 -13 49q-2 22 -8 66q-4 29 -17 45q-13 17 -35 23q31 14 48 41q18 27 18 68q0 65 -39 100q-39 36 -112 36h-203v-434zM422 420v113h100q40 0 59 -15t19 -42q0 -26 -18 -41t-57 -15h-103z
" />
    <glyph glyph-name="macron" unicode="&#xaf;" horiz-adv-x="600" 
d="M100 660l420 1v100l-420 -1v-100z" />
    <glyph glyph-name="degree" unicode="&#xb0;" horiz-adv-x="564" 
d="M282 436q77 2 129 53q51 51 53 129q-2 78 -53 129t-129 53q-78 -2 -129 -53t-53 -129q2 -78 53 -129t129 -53v0zM282 556q-27 1 -44 18t-18 44q1 27 18 44t44 18q27 -1 44 -18t18 -44q-1 -27 -18 -44t-44 -18v0z" />
    <glyph glyph-name="plusminus" unicode="&#xb1;" horiz-adv-x="757" 
d="M317 96l133 1v183h193v133h-194v184h-133v-185h-193v-133h194v-183zM93 -134l568 1v133l-568 -1v-133z" />
    <glyph glyph-name="acute" unicode="&#xb4;" horiz-adv-x="600" 
d="M91 650h101l119 150h-169z" />
    <glyph glyph-name="paragraph" unicode="&#xb6;" horiz-adv-x="899" 
d="M358 -200h156v990h-194q-128 -1 -199 -62q-70 -61 -71 -173q1 -121 71 -187q71 -67 199 -68h38v-500zM650 -200h156v990h-156v-990z" />
    <glyph glyph-name="periodcentered" unicode="&#xb7;" horiz-adv-x="292" 
d="M147 358q41 1 67 26q26 26 27 67q-1 41 -27 67q-26 25 -67 26q-42 -1 -69 -26q-26 -26 -27 -67q1 -41 27 -67q27 -25 69 -26v0z" />
    <glyph glyph-name="cedilla" unicode="&#xb8;" horiz-adv-x="600" 
d="M262 -304q67 0 104 32q36 31 37 88q-1 62 -38 92q-36 31 -95 20l47 72h-88l-60 -99l49 -51q8 8 20 12q11 5 25 5q23 0 36 -14q13 -13 13 -37q0 -22 -13 -35t-37 -13t-37 15q-13 14 -13 40h-91q1 -60 38 -93q36 -34 103 -34v0z" />
    <glyph glyph-name="guillemotright" unicode="&#xbb;" horiz-adv-x="895" 
d="M259 0l220 250l-220 250h-166l217 -250l-217 -250h166zM582 0l220 250l-220 250h-165l217 -250l-217 -250h165z" />
    <glyph glyph-name="questiondown" unicode="&#xbf;" horiz-adv-x="688" 
d="M363 804q-41 -1 -67 -26q-26 -26 -27 -67q1 -41 27 -67q26 -25 67 -26q42 1 68 26q26 26 27 67q-1 41 -27 67q-26 25 -68 26v0zM443 533h-157q-10 -82 -112 -132q-103 -51 -118 -181q1 -121 76 -179q75 -57 211 -57q151 1 230 80q78 78 67 221h-161q10 -72 -26 -111
t-107 -39q-63 1 -97 28t-34 72q15 86 117 128q101 43 111 170v0z" />
    <glyph glyph-name="Agrave" unicode="&#xc0;" horiz-adv-x="896" 
d="M487 870l-51 150h-169l119 -150h101zM16 0h168l72 165h385l71 -165h168l-345 780h-174zM321 316l128 292l127 -292h-255z" />
    <glyph glyph-name="Aacute" unicode="&#xc1;" horiz-adv-x="896" 
d="M403 870h101l119 150h-169zM16 0h168l72 165h385l71 -165h168l-345 780h-174zM321 316l128 292l127 -292h-255z" />
    <glyph glyph-name="Acircumflex" unicode="&#xc2;" horiz-adv-x="896" 
d="M272 870h115l54 84l54 -84h115l-107 150h-124zM16 0h168l72 165h385l71 -165h168l-345 780h-174zM321 316l128 292l127 -292h-255z" />
    <glyph glyph-name="Atilde" unicode="&#xc3;" horiz-adv-x="896" 
d="M512 892q61 1 92 35q32 35 27 98h-88q0 -24 -9 -37q-9 -14 -30 -14q-27 3 -55 26q-29 22 -73 25q-62 0 -94 -35q-32 -34 -27 -97h86q0 23 10 36q9 14 31 14q25 -3 55 -25q29 -23 75 -26v0zM16 0h168l72 165h385l71 -165h168l-345 780h-174zM321 316l128 292l127 -292
h-255z" />
    <glyph glyph-name="Adieresis" unicode="&#xc4;" horiz-adv-x="896" 
d="M332 848q41 1 67 27t27 67q-1 41 -26 67q-26 25 -68 26q-42 -1 -68 -26q-26 -26 -27 -67q1 -41 27 -67t68 -27v0zM557 848q41 1 67 27t27 67q-1 41 -26 67q-26 25 -68 26q-42 -1 -68 -26q-26 -26 -27 -67q1 -41 27 -67t68 -27v0zM16 0h168l72 165h385l71 -165h168
l-345 780h-174zM321 316l128 292l127 -292h-255z" />
    <glyph glyph-name="Aring" unicode="&#xc5;" horiz-adv-x="896" 
d="M444 847q58 1 95 38t38 95q-1 58 -38 95t-95 38q-58 -1 -95 -38t-38 -95q1 -58 38 -95t95 -38v0zM444 942q-15 1 -26 12t-12 26q1 16 12 27t26 11q16 0 27 -11t11 -27q0 -15 -11 -26t-27 -12v0zM16 0h168l72 165h385l71 -165h168l-345 780h-174zM321 316l128 292
l127 -292h-255z" />
    <glyph glyph-name="AE" unicode="&#xc6;" horiz-adv-x="1292" 
d="M6 0h192l109 167h312v-167h607v151h-451v176h411v143h-411v159h446v151h-706zM402 318l201 311h16v-311h-217z" />
    <glyph glyph-name="Ccedilla" unicode="&#xc7;" horiz-adv-x="860" 
d="M814 294h-161q-13 -76 -69 -117q-56 -42 -142 -42q-109 1 -172 70t-64 194q1 117 65 182q64 64 175 64q78 -1 131 -39q53 -37 67 -106h161q-21 142 -118 219q-98 76 -239 77q-179 -3 -289 -112t-113 -290q3 -174 101 -283t262 -125l-51 -85l49 -51q8 8 20 12q11 5 25 5
q23 0 36 -14q13 -13 13 -37q0 -22 -13 -35t-37 -13t-37 15q-13 14 -13 40h-91q1 -60 38 -93q36 -34 103 -34t104 32q36 31 37 88q-1 62 -38 92q-36 31 -95 20l38 59q122 14 208 93t109 214v0z" />
    <glyph glyph-name="Egrave" unicode="&#xc8;" horiz-adv-x="740" 
d="M438 870l-51 150h-169l119 -150h101zM77 0h597v151h-441v172h401v144h-401v162h436v151h-592v-780z" />
    <glyph glyph-name="Eacute" unicode="&#xc9;" horiz-adv-x="740" 
d="M354 870h101l119 150h-169zM77 0h597v151h-441v172h401v144h-401v162h436v151h-592v-780z" />
    <glyph glyph-name="Ecircumflex" unicode="&#xca;" horiz-adv-x="740" 
d="M223 870h115l54 84l54 -84h115l-107 150h-124zM77 0h597v151h-441v172h401v144h-401v162h436v151h-592v-780z" />
    <glyph glyph-name="Edieresis" unicode="&#xcb;" horiz-adv-x="740" 
d="M283 848q41 1 67 27t27 67q-1 41 -26 67q-26 25 -68 26q-42 -1 -68 -26q-26 -26 -27 -67q1 -41 27 -67t68 -27v0zM508 848q41 1 67 27t27 67q-1 41 -26 67q-26 25 -68 26q-42 -1 -68 -26q-26 -26 -27 -67q1 -41 27 -67t68 -27v0zM77 0h597v151h-441v172h401v144h-401v162
h436v151h-592v-780z" />
    <glyph glyph-name="Igrave" unicode="&#xcc;" horiz-adv-x="310" 
d="M198 870l-51 150h-169l119 -150h101zM77 0h156v780h-156v-780z" />
    <glyph glyph-name="Iacute" unicode="&#xcd;" horiz-adv-x="310" 
d="M114 870h101l119 150h-169zM77 0h156v780h-156v-780z" />
    <glyph glyph-name="Icircumflex" unicode="&#xce;" horiz-adv-x="310" 
d="M-17 870h115l54 84l54 -84h115l-107 150h-124zM77 0h156v780h-156v-780z" />
    <glyph glyph-name="Idieresis" unicode="&#xcf;" horiz-adv-x="310" 
d="M43 848q41 1 67 27t27 67q-1 41 -26 67q-26 25 -68 26q-42 -1 -68 -26q-26 -26 -27 -67q1 -41 27 -67t68 -27v0zM268 848q41 1 67 27t27 67q-1 41 -26 67q-26 25 -68 26q-42 -1 -68 -26q-26 -26 -27 -67q1 -41 27 -67t68 -27v0zM77 0h156v780h-156v-780z" />
    <glyph glyph-name="Eth" unicode="&#xd0;" horiz-adv-x="862" 
d="M412 780h-335v-329h-77v-112h77v-339h335q185 1 293 103q109 102 111 288q-2 188 -109 288q-108 100 -295 101v0zM412 140h-179v199l307 1v112l-307 -1v189h179q116 -1 179 -64q64 -64 65 -184q-1 -122 -65 -187q-63 -64 -179 -65v0z" />
    <glyph glyph-name="Ntilde" unicode="&#xd1;" horiz-adv-x="879" 
d="M515 892q61 1 92 35q32 35 27 98h-88q0 -24 -9 -37q-9 -14 -30 -14q-27 3 -55 26q-29 22 -73 25q-62 0 -94 -35q-32 -34 -27 -97h86q0 23 10 36q9 14 31 14q25 -3 55 -25q29 -23 75 -26v0zM77 0h156v539l404 -539h164v780h-155v-533l-403 533h-166v-780z" />
    <glyph glyph-name="Ograve" unicode="&#xd2;" horiz-adv-x="890" 
d="M491 870l-51 150h-169l119 -150h101zM448 -16q182 3 288 114t108 296q-2 181 -108 290t-288 112q-185 -3 -292 -112q-108 -109 -110 -290q2 -185 110 -296q107 -111 292 -114v0zM448 135q-113 1 -177 70t-65 194q1 116 65 180q64 65 177 66q110 -1 172 -66
q62 -64 63 -180q-1 -125 -63 -194t-172 -70v0z" />
    <glyph glyph-name="Oacute" unicode="&#xd3;" horiz-adv-x="890" 
d="M407 870h101l119 150h-169zM448 -16q182 3 288 114t108 296q-2 181 -108 290t-288 112q-185 -3 -292 -112q-108 -109 -110 -290q2 -185 110 -296q107 -111 292 -114v0zM448 135q-113 1 -177 70t-65 194q1 116 65 180q64 65 177 66q110 -1 172 -66q62 -64 63 -180
q-1 -125 -63 -194t-172 -70v0z" />
    <glyph glyph-name="Ocircumflex" unicode="&#xd4;" horiz-adv-x="890" 
d="M276 870h115l54 84l54 -84h115l-107 150h-124zM448 -16q182 3 288 114t108 296q-2 181 -108 290t-288 112q-185 -3 -292 -112q-108 -109 -110 -290q2 -185 110 -296q107 -111 292 -114v0zM448 135q-113 1 -177 70t-65 194q1 116 65 180q64 65 177 66q110 -1 172 -66
q62 -64 63 -180q-1 -125 -63 -194t-172 -70v0z" />
    <glyph glyph-name="Otilde" unicode="&#xd5;" horiz-adv-x="890" 
d="M516 892q61 1 92 35q32 35 27 98h-88q0 -24 -9 -37q-9 -14 -30 -14q-27 3 -55 26q-29 22 -73 25q-62 0 -94 -35q-32 -34 -27 -97h86q0 23 10 36q9 14 31 14q25 -3 55 -25q29 -23 75 -26v0zM448 -16q182 3 288 114t108 296q-2 181 -108 290t-288 112q-185 -3 -292 -112
q-108 -109 -110 -290q2 -185 110 -296q107 -111 292 -114v0zM448 135q-113 1 -177 70t-65 194q1 116 65 180q64 65 177 66q110 -1 172 -66q62 -64 63 -180q-1 -125 -63 -194t-172 -70v0z" />
    <glyph glyph-name="Odieresis" unicode="&#xd6;" horiz-adv-x="890" 
d="M336 848q41 1 67 27t27 67q-1 41 -26 67q-26 25 -68 26q-42 -1 -68 -26q-26 -26 -27 -67q1 -41 27 -67t68 -27v0zM561 848q41 1 67 27t27 67q-1 41 -26 67q-26 25 -68 26q-42 -1 -68 -26q-26 -26 -27 -67q1 -41 27 -67t68 -27v0zM448 -16q182 3 288 114t108 296
q-2 181 -108 290t-288 112q-185 -3 -292 -112q-108 -109 -110 -290q2 -185 110 -296q107 -111 292 -114v0zM448 135q-113 1 -177 70t-65 194q1 116 65 180q64 65 177 66q110 -1 172 -66q62 -64 63 -180q-1 -125 -63 -194t-172 -70v0z" />
    <glyph glyph-name="multiply" unicode="&#xd7;" horiz-adv-x="635" 
d="M188 122l129 130l131 -130l94 96l-130 129l129 130l-95 94l-129 -130l-130 129l-94 -94l130 -130l-129 -130z" />
    <glyph glyph-name="Oslash" unicode="&#xd8;" horiz-adv-x="890" 
d="M852 713l-96 86l-69 -73q-48 34 -108 52t-131 18q-185 -3 -292 -112q-108 -109 -110 -290q0 -77 20 -142q21 -66 59 -118l-66 -69l96 -85l63 67q47 -31 105 -47t125 -16q182 3 288 114t108 296q0 70 -17 131q-18 60 -50 109zM206 399q1 116 65 180q64 65 177 66
q77 0 131 -33l-341 -359q-32 60 -32 146v0zM683 399q-1 -125 -63 -194t-172 -70q-69 0 -120 27l334 351q11 -24 16 -53t5 -61v0z" />
    <glyph glyph-name="Ugrave" unicode="&#xd9;" horiz-adv-x="824" 
d="M455 880l-51 150h-169l119 -150h101zM412 -13q163 0 252 90q90 89 91 254v449h-156v-448q-1 -92 -49 -143q-49 -50 -138 -51q-89 1 -138 51q-49 51 -50 143v448h-155v-449q1 -162 91 -251q89 -90 252 -93v0z" />
    <glyph glyph-name="Uacute" unicode="&#xda;" horiz-adv-x="824" 
d="M371 880h101l119 150h-169zM412 -13q163 0 252 90q90 89 91 254v449h-156v-448q-1 -92 -49 -143q-49 -50 -138 -51q-89 1 -138 51q-49 51 -50 143v448h-155v-449q1 -162 91 -251q89 -90 252 -93v0z" />
    <glyph glyph-name="Ucircumflex" unicode="&#xdb;" horiz-adv-x="824" 
d="M240 880h115l54 84l54 -84h115l-107 150h-124zM412 -13q163 0 252 90q90 89 91 254v449h-156v-448q-1 -92 -49 -143q-49 -50 -138 -51q-89 1 -138 51q-49 51 -50 143v448h-155v-449q1 -162 91 -251q89 -90 252 -93v0z" />
    <glyph glyph-name="Udieresis" unicode="&#xdc;" horiz-adv-x="824" 
d="M300 858q41 1 67 27t27 67q-1 41 -26 67q-26 25 -68 26q-42 -1 -68 -26q-26 -26 -27 -67q1 -41 27 -67t68 -27v0zM525 858q41 1 67 27t27 67q-1 41 -26 67q-26 25 -68 26q-42 -1 -68 -26q-26 -26 -27 -67q1 -41 27 -67t68 -27v0zM412 -13q163 0 252 90q90 89 91 254v449
h-156v-448q-1 -92 -49 -143q-49 -50 -138 -51q-89 1 -138 51q-49 51 -50 143v448h-155v-449q1 -162 91 -251q89 -90 252 -93v0z" />
    <glyph glyph-name="Yacute" unicode="&#xdd;" horiz-adv-x="780" 
d="M349 880h101l119 150h-169zM312 0h156v306l299 474h-172l-205 -333l-205 333h-172l299 -474v-306z" />
    <glyph glyph-name="Thorn" unicode="&#xde;" horiz-adv-x="737" 
d="M76 0h155v167h184q129 2 201 74q73 72 74 189q-1 117 -74 183q-72 66 -201 67h-184v100h-155v-780zM231 317v212h146q71 0 111 -28q40 -27 41 -78q-1 -50 -39 -78q-39 -28 -108 -28h-151z" />
    <glyph glyph-name="germandbls" unicode="&#xdf;" horiz-adv-x="798" 
d="M399 -16q166 0 252 66q87 65 87 191q-2 105 -65 165q-64 60 -167 71l207 192v121h-636v-790h156v639h270l-193 -177l47 -119q15 6 37 13q21 6 55 6q65 -1 102 -32t38 -85q-1 -55 -52 -86q-50 -31 -139 -32z" />
    <glyph glyph-name="agrave" unicode="&#xe0;" horiz-adv-x="629" 
d="M360 600l-51 150h-169l119 -150h101zM244 -16q67 0 109 28q43 28 62 77q9 -54 54 -79q45 -24 131 -6v106q-30 -3 -40 9q-10 13 -9 45v176q-1 93 -62 144t-176 52q-113 -1 -175 -53t-63 -146h146q0 34 24 52q23 19 66 19q47 0 70 -18t22 -50v-16l-122 -14
q-109 -13 -167 -56q-59 -44 -60 -115q-1 -62 45 -107q45 -46 145 -48v0zM274 94q-35 0 -53 15q-18 14 -18 38q0 28 36 42t107 22l51 6q-7 -54 -38 -88q-32 -34 -85 -35v0z" />
    <glyph glyph-name="aacute" unicode="&#xe1;" horiz-adv-x="629" 
d="M276 600h101l119 150h-169zM244 -16q67 0 109 28q43 28 62 77q9 -54 54 -79q45 -24 131 -6v106q-30 -3 -40 9q-10 13 -9 45v176q-1 93 -62 144t-176 52q-113 -1 -175 -53t-63 -146h146q0 34 24 52q23 19 66 19q47 0 70 -18t22 -50v-16l-122 -14q-109 -13 -167 -56
q-59 -44 -60 -115q-1 -62 45 -107q45 -46 145 -48v0zM274 94q-35 0 -53 15q-18 14 -18 38q0 28 36 42t107 22l51 6q-7 -54 -38 -88q-32 -34 -85 -35v0z" />
    <glyph glyph-name="acircumflex" unicode="&#xe2;" horiz-adv-x="629" 
d="M145 600h115l54 84l54 -84h115l-107 150h-124zM244 -16q67 0 109 28q43 28 62 77q9 -54 54 -79q45 -24 131 -6v106q-30 -3 -40 9q-10 13 -9 45v176q-1 93 -62 144t-176 52q-113 -1 -175 -53t-63 -146h146q0 34 24 52q23 19 66 19q47 0 70 -18t22 -50v-16l-122 -14
q-109 -13 -167 -56q-59 -44 -60 -115q-1 -62 45 -107q45 -46 145 -48v0zM274 94q-35 0 -53 15q-18 14 -18 38q0 28 36 42t107 22l51 6q-7 -54 -38 -88q-32 -34 -85 -35v0z" />
    <glyph glyph-name="atilde" unicode="&#xe3;" horiz-adv-x="629" 
d="M385 622q61 1 92 35q32 35 27 98h-88q0 -24 -9 -37q-9 -14 -30 -14q-27 3 -55 26q-29 22 -73 25q-62 0 -94 -35q-32 -34 -27 -97h86q0 23 10 36q9 14 31 14q25 -3 55 -25q29 -23 75 -26v0zM244 -16q67 0 109 28q43 28 62 77q9 -54 54 -79q45 -24 131 -6v106q-30 -3 -40 9
q-10 13 -9 45v176q-1 93 -62 144t-176 52q-113 -1 -175 -53t-63 -146h146q0 34 24 52q23 19 66 19q47 0 70 -18t22 -50v-16l-122 -14q-109 -13 -167 -56q-59 -44 -60 -115q-1 -62 45 -107q45 -46 145 -48v0zM274 94q-35 0 -53 15q-18 14 -18 38q0 28 36 42t107 22l51 6
q-7 -54 -38 -88q-32 -34 -85 -35v0z" />
    <glyph glyph-name="adieresis" unicode="&#xe4;" horiz-adv-x="629" 
d="M205 578q41 1 67 27t27 67q-1 41 -26 67q-26 25 -68 26q-42 -1 -68 -26q-26 -26 -27 -67q1 -41 27 -67t68 -27v0zM430 578q41 1 67 27t27 67q-1 41 -26 67q-26 25 -68 26q-42 -1 -68 -26q-26 -26 -27 -67q1 -41 27 -67t68 -27v0zM244 -16q67 0 109 28q43 28 62 77
q9 -54 54 -79q45 -24 131 -6v106q-30 -3 -40 9q-10 13 -9 45v176q-1 93 -62 144t-176 52q-113 -1 -175 -53t-63 -146h146q0 34 24 52q23 19 66 19q47 0 70 -18t22 -50v-16l-122 -14q-109 -13 -167 -56q-59 -44 -60 -115q-1 -62 45 -107q45 -46 145 -48v0zM274 94
q-35 0 -53 15q-18 14 -18 38q0 28 36 42t107 22l51 6q-7 -54 -38 -88q-32 -34 -85 -35v0z" />
    <glyph glyph-name="aring" unicode="&#xe5;" horiz-adv-x="629" 
d="M317 577q58 1 95 38t38 95q-1 58 -38 95t-95 38q-58 -1 -95 -38t-38 -95q1 -58 38 -95t95 -38v0zM317 672q-15 1 -26 12t-12 26q1 16 12 27t26 11q16 0 27 -11t11 -27q0 -15 -11 -26t-27 -12v0zM244 -16q67 0 109 28q43 28 62 77q9 -54 54 -79q45 -24 131 -6v106
q-30 -3 -40 9q-10 13 -9 45v176q-1 93 -62 144t-176 52q-113 -1 -175 -53t-63 -146h146q0 34 24 52q23 19 66 19q47 0 70 -18t22 -50v-16l-122 -14q-109 -13 -167 -56q-59 -44 -60 -115q-1 -62 45 -107q45 -46 145 -48v0zM274 94q-35 0 -53 15q-18 14 -18 38q0 28 36 42
t107 22l51 6q-7 -54 -38 -88q-32 -34 -85 -35v0z" />
    <glyph glyph-name="ae" unicode="&#xe6;" horiz-adv-x="972" 
d="M244 -16q73 1 128 32q55 32 83 87q35 -56 93 -87q59 -31 134 -32q97 1 163 50q65 49 79 135h-149q-5 -28 -29 -46t-63 -19q-57 1 -87 31q-30 31 -35 85h365v44q-2 126 -70 198q-68 73 -174 74q-56 0 -101 -17q-46 -18 -81 -50q-29 32 -75 50q-47 17 -112 17
q-113 -1 -175 -53t-63 -146h146q0 34 24 52q23 19 66 19q46 0 69 -18t23 -50v-22l-130 -15q-108 -13 -163 -54q-56 -42 -56 -109q-1 -62 45 -108q45 -46 145 -48v0zM562 304q6 48 34 76q28 27 80 28q47 -1 73 -29t28 -75h-215zM274 94q-35 0 -53 15t-18 39q0 30 36 44
t107 22l51 6q-7 -54 -38 -90q-32 -35 -85 -36v0z" />
    <glyph glyph-name="ccedilla" unicode="&#xe7;" horiz-adv-x="598" 
d="M309 112q-52 1 -83 42q-30 41 -31 107q1 66 31 106q31 40 83 41q40 -1 67 -22q27 -22 33 -57h148q-13 92 -79 149q-65 56 -163 58q-122 -2 -194 -77q-73 -75 -75 -198q1 -112 62 -185q60 -73 163 -89l-52 -86l49 -51q8 8 20 12q11 5 25 5q23 0 36 -14q13 -13 13 -37
q0 -22 -13 -35t-37 -13t-37 15q-13 14 -13 40h-91q1 -60 38 -93q36 -34 103 -34t104 32q36 31 37 88q-1 62 -38 92q-36 31 -95 20l39 59q81 14 134 68q53 53 64 134h-148q-4 -34 -31 -55t-69 -22v0z" />
    <glyph glyph-name="egrave" unicode="&#xe8;" horiz-adv-x="605" 
d="M353 600l-51 150h-169l119 -150h101zM315 -16q97 1 163 50q65 49 79 135h-149q-5 -28 -29 -45q-24 -18 -63 -19q-57 1 -86 30q-28 30 -33 81h362v48q-2 126 -70 198q-68 73 -174 74q-121 -2 -194 -77t-75 -198q2 -124 75 -199q73 -76 194 -78v0zM198 307q6 46 33 73
q26 27 78 28q47 -1 73 -29t28 -72h-212z" />
    <glyph glyph-name="eacute" unicode="&#xe9;" horiz-adv-x="605" 
d="M269 600h101l119 150h-169zM315 -16q97 1 163 50q65 49 79 135h-149q-5 -28 -29 -45q-24 -18 -63 -19q-57 1 -86 30q-28 30 -33 81h362v48q-2 126 -70 198q-68 73 -174 74q-121 -2 -194 -77t-75 -198q2 -124 75 -199q73 -76 194 -78v0zM198 307q6 46 33 73q26 27 78 28
q47 -1 73 -29t28 -72h-212z" />
    <glyph glyph-name="ecircumflex" unicode="&#xea;" horiz-adv-x="605" 
d="M138 600h115l54 84l54 -84h115l-107 150h-124zM315 -16q97 1 163 50q65 49 79 135h-149q-5 -28 -29 -45q-24 -18 -63 -19q-57 1 -86 30q-28 30 -33 81h362v48q-2 126 -70 198q-68 73 -174 74q-121 -2 -194 -77t-75 -198q2 -124 75 -199q73 -76 194 -78v0zM198 307
q6 46 33 73q26 27 78 28q47 -1 73 -29t28 -72h-212z" />
    <glyph glyph-name="edieresis" unicode="&#xeb;" horiz-adv-x="605" 
d="M198 578q41 1 67 27t27 67q-1 41 -26 67q-26 25 -68 26q-42 -1 -68 -26q-26 -26 -27 -67q1 -41 27 -67t68 -27v0zM423 578q41 1 67 27t27 67q-1 41 -26 67q-26 25 -68 26q-42 -1 -68 -26q-26 -26 -27 -67q1 -41 27 -67t68 -27v0zM315 -16q97 1 163 50q65 49 79 135h-149
q-5 -28 -29 -45q-24 -18 -63 -19q-57 1 -86 30q-28 30 -33 81h362v48q-2 126 -70 198q-68 73 -174 74q-121 -2 -194 -77t-75 -198q2 -124 75 -199q73 -76 194 -78v0zM198 307q6 46 33 73q26 27 78 28q47 -1 73 -29t28 -72h-212z" />
    <glyph glyph-name="igrave" unicode="&#xec;" horiz-adv-x="279" 
d="M183 600l-51 150h-169l119 -150h101zM65 0h149v520h-149v-520z" />
    <glyph glyph-name="iacute" unicode="&#xed;" horiz-adv-x="279" 
d="M99 600h101l119 150h-169zM65 0h149v520h-149v-520z" />
    <glyph glyph-name="icircumflex" unicode="&#xee;" horiz-adv-x="279" 
d="M-32 600h115l54 84l54 -84h115l-107 150h-124zM65 0h149v520h-149v-520z" />
    <glyph glyph-name="idieresis" unicode="&#xef;" horiz-adv-x="279" 
d="M28 578q41 1 67 27t27 67q-1 41 -26 67q-26 25 -68 26q-42 -1 -68 -26q-26 -26 -27 -67q1 -41 27 -67t68 -27v0zM253 578q41 1 67 27t27 67q-1 41 -26 67q-26 25 -68 26q-42 -1 -68 -26q-26 -26 -27 -67q1 -41 27 -67t68 -27v0zM65 0h149v520h-149v-520z" />
    <glyph glyph-name="eth" unicode="&#xf0;" horiz-adv-x="654" 
d="M494 638l105 27l-61 92l-119 -30q-33 33 -69 63h-177q29 -24 56 -48q28 -25 53 -50l-143 -36l62 -92l158 40q42 -52 69 -108q-29 20 -64 30t-76 10q-106 -2 -173 -76q-67 -75 -69 -198q3 -126 83 -201q79 -75 203 -77q151 6 215 97q63 91 61 200q0 106 -30 195
q-30 88 -84 162v0zM330 112q-58 1 -93 42q-36 41 -37 107q1 66 36 106q36 40 93 41q59 -1 95 -42q36 -40 37 -105q-1 -66 -37 -107q-35 -41 -94 -42v0z" />
    <glyph glyph-name="ntilde" unicode="&#xf1;" horiz-adv-x="643" 
d="M395 622q61 1 92 35q32 35 27 98h-88q0 -24 -9 -37q-9 -14 -30 -14q-27 3 -55 26q-29 22 -73 25q-62 0 -94 -35q-32 -34 -27 -97h86q0 23 10 36q9 14 31 14q25 -3 55 -25q29 -23 75 -26v0zM66 0h148v266q1 65 32 103q30 38 85 39q48 0 75 -32t27 -90v-286h150v294
q0 119 -48 181q-48 61 -145 61q-62 0 -106 -24q-44 -25 -70 -67v75h-148v-520z" />
    <glyph glyph-name="ograve" unicode="&#xf2;" horiz-adv-x="647" 
d="M366 600l-51 150h-169l119 -150h101zM323 -16q124 2 200 78q76 75 78 199q-2 123 -78 198t-200 77q-124 -2 -200 -77q-75 -75 -77 -198q2 -124 77 -199q76 -76 200 -78v0zM323 112q-57 1 -92 42t-36 107q1 66 36 106t92 41q58 -1 93 -41t36 -106q-1 -66 -36 -107t-93 -42
v0z" />
    <glyph glyph-name="oacute" unicode="&#xf3;" horiz-adv-x="647" 
d="M282 600h101l119 150h-169zM323 -16q124 2 200 78q76 75 78 199q-2 123 -78 198t-200 77q-124 -2 -200 -77q-75 -75 -77 -198q2 -124 77 -199q76 -76 200 -78v0zM323 112q-57 1 -92 42t-36 107q1 66 36 106t92 41q58 -1 93 -41t36 -106q-1 -66 -36 -107t-93 -42v0z" />
    <glyph glyph-name="ocircumflex" unicode="&#xf4;" horiz-adv-x="647" 
d="M151 600h115l54 84l54 -84h115l-107 150h-124zM323 -16q124 2 200 78q76 75 78 199q-2 123 -78 198t-200 77q-124 -2 -200 -77q-75 -75 -77 -198q2 -124 77 -199q76 -76 200 -78v0zM323 112q-57 1 -92 42t-36 107q1 66 36 106t92 41q58 -1 93 -41t36 -106
q-1 -66 -36 -107t-93 -42v0z" />
    <glyph glyph-name="otilde" unicode="&#xf5;" horiz-adv-x="647" 
d="M391 622q61 1 92 35q32 35 27 98h-88q0 -24 -9 -37q-9 -14 -30 -14q-27 3 -55 26q-29 22 -73 25q-62 0 -94 -35q-32 -34 -27 -97h86q0 23 10 36q9 14 31 14q25 -3 55 -25q29 -23 75 -26v0zM323 -16q124 2 200 78q76 75 78 199q-2 123 -78 198t-200 77q-124 -2 -200 -77
q-75 -75 -77 -198q2 -124 77 -199q76 -76 200 -78v0zM323 112q-57 1 -92 42t-36 107q1 66 36 106t92 41q58 -1 93 -41t36 -106q-1 -66 -36 -107t-93 -42v0z" />
    <glyph glyph-name="odieresis" unicode="&#xf6;" horiz-adv-x="647" 
d="M211 578q41 1 67 27t27 67q-1 41 -26 67q-26 25 -68 26q-42 -1 -68 -26q-26 -26 -27 -67q1 -41 27 -67t68 -27v0zM436 578q41 1 67 27t27 67q-1 41 -26 67q-26 25 -68 26q-42 -1 -68 -26q-26 -26 -27 -67q1 -41 27 -67t68 -27v0zM323 -16q124 2 200 78q76 75 78 199
q-2 123 -78 198t-200 77q-124 -2 -200 -77q-75 -75 -77 -198q2 -124 77 -199q76 -76 200 -78v0zM323 112q-57 1 -92 42t-36 107q1 66 36 106t92 41q58 -1 93 -41t36 -106q-1 -66 -36 -107t-93 -42v0z" />
    <glyph glyph-name="divide" unicode="&#xf7;" horiz-adv-x="706" 
d="M354 451q41 1 67 26q26 26 27 67q-1 41 -27 67q-26 25 -67 26q-42 -1 -68 -26q-26 -26 -27 -67q1 -41 27 -67q26 -25 68 -26v0zM93 277l520 1v132l-520 -1v-132zM354 32q41 1 67 26q26 26 27 67q-1 41 -27 67q-26 25 -67 26q-42 -1 -68 -26q-26 -26 -27 -67q1 -41 27 -67
q26 -25 68 -26v0z" />
    <glyph glyph-name="oslash" unicode="&#xf8;" horiz-adv-x="646" 
d="M547 432l33 36l-73 65l-33 -36q-32 19 -70 29t-81 10q-124 -2 -200 -77q-75 -75 -77 -198q0 -52 15 -96q15 -45 42 -80l-37 -40l74 -64l36 40q32 -18 69 -27q37 -10 78 -10q124 2 200 78q76 75 78 199q0 50 -14 93t-40 78v0zM195 261q1 66 36 106t92 41q33 0 58 -14
l-176 -195q-5 14 -7 30q-3 15 -3 32v0zM323 112q-30 0 -54 12l175 193q8 -26 8 -56q-1 -66 -36 -107t-93 -42v0z" />
    <glyph glyph-name="ugrave" unicode="&#xf9;" horiz-adv-x="643" 
d="M367 600l-51 150h-169l119 -150h101zM577 520h-148v-266q-1 -65 -31 -103q-31 -38 -86 -39q-48 1 -75 33t-27 89v286h-150v-294q0 -119 48 -181q48 -61 145 -61q62 0 106 25q44 24 70 66v-75h148v520z" />
    <glyph glyph-name="uacute" unicode="&#xfa;" horiz-adv-x="643" 
d="M283 600h101l119 150h-169zM577 520h-148v-266q-1 -65 -31 -103q-31 -38 -86 -39q-48 1 -75 33t-27 89v286h-150v-294q0 -119 48 -181q48 -61 145 -61q62 0 106 25q44 24 70 66v-75h148v520z" />
    <glyph glyph-name="ucircumflex" unicode="&#xfb;" horiz-adv-x="643" 
d="M152 600h115l54 84l54 -84h115l-107 150h-124zM577 520h-148v-266q-1 -65 -31 -103q-31 -38 -86 -39q-48 1 -75 33t-27 89v286h-150v-294q0 -119 48 -181q48 -61 145 -61q62 0 106 25q44 24 70 66v-75h148v520z" />
    <glyph glyph-name="udieresis" unicode="&#xfc;" horiz-adv-x="643" 
d="M212 578q41 1 67 27t27 67q-1 41 -26 67q-26 25 -68 26q-42 -1 -68 -26q-26 -26 -27 -67q1 -41 27 -67t68 -27v0zM437 578q41 1 67 27t27 67q-1 41 -26 67q-26 25 -68 26q-42 -1 -68 -26q-26 -26 -27 -67q1 -41 27 -67t68 -27v0zM577 520h-148v-266q-1 -65 -31 -103
q-31 -38 -86 -39q-48 1 -75 33t-27 89v286h-150v-294q0 -119 48 -181q48 -61 145 -61q62 0 106 25q44 24 70 66v-75h148v520z" />
    <glyph glyph-name="yacute" unicode="&#xfd;" horiz-adv-x="638" 
d="M284 600h101l119 150h-169zM74 -200h64q96 -2 163 33q66 36 106 129l213 558h-156l-129 -347l-148 347h-156l226 -528q-24 -35 -54 -48q-30 -14 -78 -13h-51v-131z" />
    <glyph glyph-name="thorn" unicode="&#xfe;" horiz-adv-x="661" 
d="M66 -200h148v268q27 -40 70 -62q44 -22 105 -22q100 2 161 77t63 197q-2 124 -63 200t-161 78q-61 0 -105 -22q-43 -22 -70 -62v338h-148v-990zM338 112q-56 1 -90 41t-35 106q1 66 35 107t90 42q56 -1 91 -42q34 -41 35 -107q-1 -66 -35 -106q-35 -40 -91 -41v0z" />
    <glyph glyph-name="ydieresis" unicode="&#xff;" horiz-adv-x="638" 
d="M213 578q41 1 67 27t27 67q-1 41 -26 67q-26 25 -68 26q-42 -1 -68 -26q-26 -26 -27 -67q1 -41 27 -67t68 -27v0zM438 578q41 1 67 27t27 67q-1 41 -26 67q-26 25 -68 26q-42 -1 -68 -26q-26 -26 -27 -67q1 -41 27 -67t68 -27v0zM74 -200h64q96 -2 163 33q66 36 106 129
l213 558h-156l-129 -347l-148 347h-156l226 -528q-24 -35 -54 -48q-30 -14 -78 -13h-51v-131z" />
    <glyph glyph-name="Amacron" unicode="&#x100;" horiz-adv-x="896" 
d="M234 880l420 1v100l-420 -1v-100zM16 0h168l72 165h385l71 -165h168l-345 780h-174zM321 316l128 292l127 -292h-255z" />
    <glyph glyph-name="amacron" unicode="&#x101;" horiz-adv-x="629" 
d="M144 610l346 1v100l-346 -1v-100zM244 -16q67 0 109 28q43 28 62 77q9 -54 54 -79q45 -24 131 -6v106q-30 -3 -40 9q-10 13 -9 45v176q-1 93 -62 144t-176 52q-113 -1 -175 -53t-63 -146h146q0 34 24 52q23 19 66 19q47 0 70 -18t22 -50v-16l-122 -14q-109 -13 -167 -56
q-59 -44 -60 -115q-1 -62 45 -107q45 -46 145 -48v0zM274 94q-35 0 -53 15q-18 14 -18 38q0 28 36 42t107 22l51 6q-7 -54 -38 -88q-32 -34 -85 -35v0z" />
    <glyph glyph-name="Abreve" unicode="&#x102;" horiz-adv-x="896" 
d="M444 874q67 1 103 36q37 36 37 100h-88q0 -27 -14 -42t-38 -15t-38 15t-14 42h-88q1 -64 37 -100q37 -35 103 -36v0zM16 0h168l72 165h385l71 -165h168l-345 780h-174zM321 316l128 292l127 -292h-255z" />
    <glyph glyph-name="abreve" unicode="&#x103;" horiz-adv-x="629" 
d="M317 604q67 1 103 36q37 36 37 100h-88q0 -27 -14 -42t-38 -15t-38 15t-14 42h-88q1 -64 37 -100q37 -35 103 -36v0zM244 -16q67 0 109 28q43 28 62 77q9 -54 54 -79q45 -24 131 -6v106q-30 -3 -40 9q-10 13 -9 45v176q-1 93 -62 144t-176 52q-113 -1 -175 -53t-63 -146
h146q0 34 24 52q23 19 66 19q47 0 70 -18t22 -50v-16l-122 -14q-109 -13 -167 -56q-59 -44 -60 -115q-1 -62 45 -107q45 -46 145 -48v0zM274 94q-35 0 -53 15q-18 14 -18 38q0 28 36 42t107 22l51 6q-7 -54 -38 -88q-32 -34 -85 -35v0z" />
    <glyph glyph-name="Aogonek" unicode="&#x104;" horiz-adv-x="896" 
d="M696 -76q0 22 14 41t35 35h135l-345 780h-174l-345 -780h168l72 165h385l59 -136q-50 -18 -81 -53q-32 -35 -33 -86q0 -57 52 -88q53 -31 164 -25v86q-53 1 -79 17q-27 17 -27 44v0zM321 316l128 292l127 -292h-255z" />
    <glyph glyph-name="aogonek" unicode="&#x105;" horiz-adv-x="629" 
d="M524 -4q16 -1 35 1t41 7v106q-30 -3 -40 9q-10 13 -9 45v176q-1 93 -62 144t-176 52q-113 -1 -175 -53t-63 -146h146q0 34 24 52q23 19 66 19q47 0 70 -18t22 -50v-16l-122 -14q-109 -13 -167 -56q-59 -44 -60 -115q-1 -62 45 -107q45 -46 145 -48q67 0 109 28
q43 28 62 77q4 -23 15 -41q10 -18 27 -31q-38 -20 -62 -51q-24 -32 -25 -76q0 -57 52 -88q53 -31 164 -25v86q-53 1 -79 17q-27 17 -27 44q0 21 13 39q12 18 31 33v0zM274 94q-35 0 -53 15q-18 14 -18 38q0 28 36 42t107 22l51 6q-7 -54 -38 -88q-32 -34 -85 -35v0z" />
    <glyph glyph-name="Cacute" unicode="&#x106;" horiz-adv-x="860" 
d="M407 870h101l119 150h-169zM450 -16q137 1 238 81q100 80 126 229h-161q-13 -76 -69 -117q-56 -42 -142 -42q-109 1 -172 70t-64 194q1 117 65 182q64 64 175 64q78 -1 131 -39q53 -37 67 -106h161q-21 142 -118 219q-98 76 -239 77q-179 -3 -289 -112t-113 -290
q3 -185 113 -296t291 -114v0z" />
    <glyph glyph-name="cacute" unicode="&#x107;" horiz-adv-x="598" 
d="M273 600h101l119 150h-169zM315 -16q98 2 163 58q66 55 79 147h-148q-4 -34 -31 -55t-69 -22q-52 1 -83 42q-30 41 -31 107q1 66 31 106q31 40 83 41q40 -1 67 -22q27 -22 33 -57h148q-13 92 -79 149q-65 56 -163 58q-122 -2 -194 -77q-73 -75 -75 -198q2 -124 75 -199
q72 -76 194 -78v0z" />
    <glyph glyph-name="Cdotaccent" unicode="&#x10a;" horiz-adv-x="860" 
d="M448 854q41 1 67 27t27 67q-1 41 -26 66q-26 25 -68 26q-42 -1 -68 -26t-27 -66q1 -41 27 -67t68 -27v0zM450 -16q137 1 238 81q100 80 126 229h-161q-13 -76 -69 -117q-56 -42 -142 -42q-109 1 -172 70t-64 194q1 117 65 182q64 64 175 64q78 -1 131 -39q53 -37 67 -106
h161q-21 142 -118 219q-98 76 -239 77q-179 -3 -289 -112t-113 -290q3 -185 113 -296t291 -114v0z" />
    <glyph glyph-name="cdotaccent" unicode="&#x10b;" horiz-adv-x="598" 
d="M314 584q41 1 67 27t27 67q-1 41 -26 66q-26 25 -68 26q-42 -1 -68 -26t-27 -66q1 -41 27 -67t68 -27v0zM315 -16q98 2 163 58q66 55 79 147h-148q-4 -34 -31 -55t-69 -22q-52 1 -83 42q-30 41 -31 107q1 66 31 106q31 40 83 41q40 -1 67 -22q27 -22 33 -57h148
q-13 92 -79 149q-65 56 -163 58q-122 -2 -194 -77q-73 -75 -75 -198q2 -124 75 -199q72 -76 194 -78v0z" />
    <glyph glyph-name="Ccaron" unicode="&#x10c;" horiz-adv-x="860" 
d="M383 870h124l107 150h-115l-54 -84l-54 84h-115zM450 -16q137 1 238 81q100 80 126 229h-161q-13 -76 -69 -117q-56 -42 -142 -42q-109 1 -172 70t-64 194q1 117 65 182q64 64 175 64q78 -1 131 -39q53 -37 67 -106h161q-21 142 -118 219q-98 76 -239 77
q-179 -3 -289 -112t-113 -290q3 -185 113 -296t291 -114v0z" />
    <glyph glyph-name="ccaron" unicode="&#x10d;" horiz-adv-x="598" 
d="M249 600h124l107 150h-115l-54 -84l-54 84h-115zM315 -16q98 2 163 58q66 55 79 147h-148q-4 -34 -31 -55t-69 -22q-52 1 -83 42q-30 41 -31 107q1 66 31 106q31 40 83 41q40 -1 67 -22q27 -22 33 -57h148q-13 92 -79 149q-65 56 -163 58q-122 -2 -194 -77
q-73 -75 -75 -198q2 -124 75 -199q72 -76 194 -78v0z" />
    <glyph glyph-name="Dcaron" unicode="&#x10e;" horiz-adv-x="862" 
d="M290 880h124l107 150h-115l-54 -84l-54 84h-115zM77 0h335q185 1 293 103q109 102 111 288q-2 188 -109 288q-108 100 -295 101h-335v-780zM233 140v500h179q116 -1 179 -64q64 -64 65 -184q-1 -122 -65 -187q-63 -64 -179 -65h-179z" />
    <glyph glyph-name="dcaron" unicode="&#x10f;" horiz-adv-x="850" 
d="M269 -16q61 0 105 22q43 22 70 62v-68h149v790h-149v-338q-27 40 -70 62q-44 22 -105 22q-100 -2 -161 -77q-60 -75 -62 -197q2 -124 62 -200q61 -76 161 -78v0zM613 640h101l119 150h-169zM320 112q-56 1 -91 42q-34 41 -35 107q1 66 35 106q35 40 91 41q56 -1 90 -41
t35 -106q-1 -66 -35 -107t-90 -42v0z" />
    <glyph glyph-name="Dcroat" unicode="&#x110;" horiz-adv-x="862" 
d="M412 780h-335v-329h-77v-112h77v-339h335q185 1 293 103q109 102 111 288q-2 188 -109 288q-108 100 -295 101v0zM412 140h-179v199l307 1v112l-307 -1v189h179q116 -1 179 -64q64 -64 65 -184q-1 -122 -65 -187q-63 -64 -179 -65v0z" />
    <glyph glyph-name="dcroat" unicode="&#x111;" horiz-adv-x="659" 
d="M646 703h-53v87h-149v-87l-288 -1v-111l288 1v-140q-27 40 -70 62q-44 22 -105 22q-100 -2 -161 -77q-60 -75 -62 -197q2 -124 62 -200q61 -76 161 -78q61 0 105 22q43 22 70 62v-68h149v592h53v111zM320 112q-56 1 -91 42q-34 41 -35 107q1 66 35 106q35 40 91 41
q56 -1 90 -41t35 -106q-1 -66 -35 -107t-90 -42v0z" />
    <glyph glyph-name="Emacron" unicode="&#x112;" horiz-adv-x="740" 
d="M185 880l420 1v100l-420 -1v-100zM77 0h597v151h-441v172h401v144h-401v162h436v151h-592v-780z" />
    <glyph glyph-name="emacron" unicode="&#x113;" horiz-adv-x="605" 
d="M137 610l346 1v100l-346 -1v-100zM315 -16q97 1 163 50q65 49 79 135h-149q-5 -28 -29 -45q-24 -18 -63 -19q-57 1 -86 30q-28 30 -33 81h362v48q-2 126 -70 198q-68 73 -174 74q-121 -2 -194 -77t-75 -198q2 -124 75 -199q73 -76 194 -78v0zM198 307q6 46 33 73
q26 27 78 28q47 -1 73 -29t28 -72h-212z" />
    <glyph glyph-name="Edotaccent" unicode="&#x116;" horiz-adv-x="740" 
d="M395 854q41 1 67 27t27 67q-1 41 -26 66q-26 25 -68 26q-42 -1 -68 -26t-27 -66q1 -41 27 -67t68 -27v0zM77 0h597v151h-441v172h401v144h-401v162h436v151h-592v-780z" />
    <glyph glyph-name="edotaccent" unicode="&#x117;" horiz-adv-x="605" 
d="M310 584q41 1 67 27t27 67q-1 41 -26 66q-26 25 -68 26q-42 -1 -68 -26t-27 -66q1 -41 27 -67t68 -27v0zM315 -16q97 1 163 50q65 49 79 135h-149q-5 -28 -29 -45q-24 -18 -63 -19q-57 1 -86 30q-28 30 -33 81h362v48q-2 126 -70 198q-68 73 -174 74q-121 -2 -194 -77
t-75 -198q2 -124 75 -199q73 -76 194 -78v0zM198 307q6 46 33 73q26 27 78 28q47 -1 73 -29t28 -72h-212z" />
    <glyph glyph-name="Eogonek" unicode="&#x118;" horiz-adv-x="740" 
d="M438 0h236v151h-441v172h401v144h-401v162h436v151h-592v-780h261q-27 -20 -43 -47q-16 -28 -16 -63q0 -57 52 -88q53 -31 164 -25v86q-53 1 -79 17q-27 17 -27 44q0 22 14 41t35 35v0z" />
    <glyph glyph-name="eogonek" unicode="&#x119;" horiz-adv-x="605" 
d="M559 264q-2 126 -70 198q-68 73 -174 74q-121 -2 -194 -77t-75 -198q1 -106 56 -177q55 -72 149 -93q-22 -19 -35 -44q-13 -26 -13 -57q0 -57 52 -88q53 -31 164 -25v86q-52 1 -78 17q-27 17 -27 44q0 17 8 33q9 15 23 28q85 9 142 57t70 127h-149q-5 -28 -29 -45
q-24 -18 -63 -19q-57 1 -86 30q-28 30 -33 81h362v48zM198 307q6 46 33 73q26 27 78 28q47 -1 73 -29t28 -72h-212z" />
    <glyph glyph-name="Ecaron" unicode="&#x11a;" horiz-adv-x="740" 
d="M330 870h124l107 150h-115l-54 -84l-54 84h-115zM77 0h597v151h-441v172h401v144h-401v162h436v151h-592v-780z" />
    <glyph glyph-name="ecaron" unicode="&#x11b;" horiz-adv-x="605" 
d="M245 600h124l107 150h-115l-54 -84l-54 84h-115zM315 -16q97 1 163 50q65 49 79 135h-149q-5 -28 -29 -45q-24 -18 -63 -19q-57 1 -86 30q-28 30 -33 81h362v48q-2 126 -70 198q-68 73 -174 74q-121 -2 -194 -77t-75 -198q2 -124 75 -199q73 -76 194 -78v0zM198 307
q6 46 33 73q26 27 78 28q47 -1 73 -29t28 -72h-212z" />
    <glyph glyph-name="Gbreve" unicode="&#x11e;" horiz-adv-x="884" 
d="M448 874q67 1 103 36q37 36 37 100h-88q0 -27 -14 -42t-38 -15t-38 15t-14 42h-88q1 -64 37 -100q37 -35 103 -36v0zM430 -16q100 0 161 30q61 31 95 93l3 -107h129v424h-383v-132h214q-3 -70 -58 -113t-149 -44q-110 1 -172 70q-63 69 -64 194q1 117 65 182
q64 64 175 64q78 -1 131 -34q53 -32 67 -91h161q-22 135 -120 205q-99 71 -237 71q-180 -3 -289 -112q-110 -109 -113 -290q2 -185 104 -296t280 -114v0z" />
    <glyph glyph-name="gbreve" unicode="&#x11f;" horiz-adv-x="665" 
d="M349 584q67 1 103 36q37 36 37 100h-88q0 -27 -14 -42t-38 -15t-38 15t-14 42h-88q1 -64 37 -100q37 -35 103 -36v0zM325 -216q135 0 205 62t70 189v485h-149v-66q-26 39 -69 61q-43 21 -105 21q-102 -2 -162 -77q-61 -76 -62 -200q1 -122 62 -191q60 -70 162 -71
q62 0 105 20q43 19 69 55v-37q1 -70 -28 -105q-30 -34 -91 -34q-47 0 -78 16q-30 16 -35 51h-149q9 -91 74 -135q64 -44 181 -44v0zM327 119q-56 1 -91 41q-34 39 -35 105q1 66 35 107q35 41 91 42q56 -1 90 -42t35 -107q-1 -66 -35 -105q-34 -40 -90 -41v0z" />
    <glyph glyph-name="Gdotaccent" unicode="&#x120;" horiz-adv-x="884" 
d="M448 854q41 1 67 27t27 67q-1 41 -26 66q-26 25 -68 26q-42 -1 -68 -26t-27 -66q1 -41 27 -67t68 -27v0zM430 -16q100 0 161 30q61 31 95 93l3 -107h129v424h-383v-132h214q-3 -70 -58 -113t-149 -44q-110 1 -172 70q-63 69 -64 194q1 117 65 182q64 64 175 64
q78 -1 131 -34q53 -32 67 -91h161q-22 135 -120 205q-99 71 -237 71q-180 -3 -289 -112q-110 -109 -113 -290q2 -185 104 -296t280 -114v0z" />
    <glyph glyph-name="gdotaccent" unicode="&#x121;" horiz-adv-x="665" 
d="M349 564q41 1 67 27t27 67q-1 41 -26 66q-26 25 -68 26q-42 -1 -68 -26t-27 -66q1 -41 27 -67t68 -27v0zM325 -216q135 0 205 62t70 189v485h-149v-66q-26 39 -69 61q-43 21 -105 21q-102 -2 -162 -77q-61 -76 -62 -200q1 -122 62 -191q60 -70 162 -71q62 0 105 20
q43 19 69 55v-37q1 -70 -28 -105q-30 -34 -91 -34q-47 0 -78 16q-30 16 -35 51h-149q9 -91 74 -135q64 -44 181 -44v0zM327 119q-56 1 -91 41q-34 39 -35 105q1 66 35 107q35 41 91 42q56 -1 90 -42t35 -107q-1 -66 -35 -105q-34 -40 -90 -41v0z" />
    <glyph glyph-name="uni0122" unicode="&#x122;" horiz-adv-x="884" 
d="M430 -16q100 0 161 30q61 31 95 93l3 -107h129v424h-383v-132h214q-3 -70 -58 -113t-149 -44q-110 1 -172 70q-63 69 -64 194q1 117 65 182q64 64 175 64q78 -1 131 -34q53 -32 67 -91h161q-22 135 -120 205q-99 71 -237 71q-180 -3 -289 -112q-110 -109 -113 -290
q2 -185 104 -296t280 -114v0zM331 -337h102l118 248h-159z" />
    <glyph glyph-name="uni0123" unicode="&#x123;" horiz-adv-x="665" 
d="M448 861h-102l-118 -248h159zM325 -216q135 0 205 62t70 189v485h-149v-66q-26 39 -69 61q-43 21 -105 21q-102 -2 -162 -77q-61 -76 -62 -200q1 -122 62 -191q60 -70 162 -71q62 0 105 20q43 19 69 55v-37q1 -70 -28 -105q-30 -34 -91 -34q-47 0 -78 16q-30 16 -35 51
h-149q9 -91 74 -135q64 -44 181 -44v0zM327 119q-56 1 -91 41q-34 39 -35 105q1 66 35 107q35 41 91 42q56 -1 90 -42t35 -107q-1 -66 -35 -105q-34 -40 -90 -41v0z" />
    <glyph glyph-name="Hbar" unicode="&#x126;" horiz-adv-x="844" 
d="M853 704h-86v76h-156v-76l-378 -1v77h-156v-77h-83v-133h83v-570h156v334h378v-334h156v571h86v133zM611 484h-378v86l378 1v-87z" />
    <glyph glyph-name="hbar" unicode="&#x127;" horiz-adv-x="643" 
d="M390 536q-62 0 -106 -24t-70 -66v145l284 1v111l-284 -1v88h-148v-88h-58v-111h58v-591h148v268q1 65 32 102q30 37 85 38q48 0 75 -31q27 -32 27 -89v-288h150v295q0 120 -48 181q-48 60 -145 60v0z" />
    <glyph glyph-name="Imacron" unicode="&#x12a;" horiz-adv-x="310" 
d="M-55 880l420 1v100l-420 -1v-100zM77 0h156v780h-156v-780z" />
    <glyph glyph-name="imacron" unicode="&#x12b;" horiz-adv-x="279" 
d="M-2 610l284 1v100l-284 -1v-100zM65 0h149v520h-149v-520z" />
    <glyph glyph-name="Iogonek" unicode="&#x12e;" horiz-adv-x="310" 
d="M151 -76q0 22 14 41q13 19 35 35h33v780h-156v-780h22q-27 -20 -43 -47q-16 -28 -16 -63q0 -57 52 -88q53 -31 164 -25v86q-52 1 -78 17q-27 17 -27 44v0z" />
    <glyph glyph-name="iogonek" unicode="&#x12f;" horiz-adv-x="279" 
d="M140 584q41 1 67 27t27 67q-1 41 -27 66t-67 26q-42 -1 -68 -26t-27 -66q1 -41 27 -67t68 -27v0zM137 -76q0 22 14 41t35 35h28v520h-149v-520h21q-27 -20 -43 -47q-16 -28 -16 -63q0 -57 52 -88q53 -31 164 -25v86q-53 1 -79 17q-27 17 -27 44v0z" />
    <glyph glyph-name="Idotaccent" unicode="&#x130;" horiz-adv-x="310" 
d="M155 854q41 1 67 27t27 67q-1 41 -26 66q-26 25 -68 26q-42 -1 -68 -26t-27 -66q1 -41 27 -67t68 -27v0zM77 0h156v780h-156v-780z" />
    <glyph glyph-name="dotlessi" unicode="&#x131;" horiz-adv-x="279" 
d="M65 0h149v520h-149v-520z" />
    <glyph glyph-name="uni0136" unicode="&#x136;" horiz-adv-x="818" 
d="M77 0h156v259l84 79l282 -338h207l-379 440l373 340h-213l-354 -327v327h-156v-780zM286 -337h102l118 248h-159z" />
    <glyph glyph-name="uni0137" unicode="&#x137;" horiz-adv-x="629" 
d="M66 0h148v193l40 33l184 -226h183l-266 312l246 208h-190l-197 -169v439h-148v-790zM198 -337h102l118 248h-159z" />
    <glyph glyph-name="Lacute" unicode="&#x139;" horiz-adv-x="662" 
d="M115 880h101l119 150h-169zM77 0h546v136h-390v644h-156v-780z" />
    <glyph glyph-name="lacute" unicode="&#x13a;" horiz-adv-x="280" 
d="M99 870h101l119 150h-169zM66 0h148v790h-148v-790z" />
    <glyph glyph-name="uni013B" unicode="&#x13b;" horiz-adv-x="662" 
d="M77 0h546v136h-390v644h-156v-780zM266 -337h102l118 248h-159z" />
    <glyph glyph-name="uni013C" unicode="&#x13c;" horiz-adv-x="280" 
d="M66 0h148v790h-148v-790zM27 -337h102l118 248h-159z" />
    <glyph glyph-name="Lcaron" unicode="&#x13d;" horiz-adv-x="662" 
d="M91 880h124l107 150h-115l-54 -84l-54 84h-115zM77 0h546v136h-390v644h-156v-780z" />
    <glyph glyph-name="lcaron" unicode="&#x13e;" horiz-adv-x="280" 
d="M75 870h124l107 150h-115l-54 -84l-54 84h-115zM66 0h148v790h-148v-790z" />
    <glyph glyph-name="Lslash" unicode="&#x141;" horiz-adv-x="662" 
d="M233 136v318l266 190l-77 104l-189 -135v167h-156v-279l-160 -114l78 -103l82 59v-343h546v136h-390z" />
    <glyph glyph-name="lslash" unicode="&#x142;" horiz-adv-x="280" 
d="M317 622l-47 64l-56 -40v144h-148v-250l-106 -76l48 -63l58 41v-442h148v548z" />
    <glyph glyph-name="Nacute" unicode="&#x143;" horiz-adv-x="879" 
d="M406 870h101l119 150h-169zM77 0h156v539l404 -539h164v780h-155v-533l-403 533h-166v-780z" />
    <glyph glyph-name="nacute" unicode="&#x144;" horiz-adv-x="643" 
d="M285 600h101l119 150h-169zM66 0h148v266q1 65 32 103q30 38 85 39q48 0 75 -32t27 -90v-286h150v294q0 119 -48 181q-48 61 -145 61q-62 0 -106 -24q-44 -25 -70 -67v75h-148v-520z" />
    <glyph glyph-name="uni0145" unicode="&#x145;" horiz-adv-x="879" 
d="M77 0h156v539l404 -539h164v780h-155v-533l-403 533h-166v-780zM328 -337h102l118 248h-159z" />
    <glyph glyph-name="uni0146" unicode="&#x146;" horiz-adv-x="643" 
d="M66 0h148v266q1 65 32 103q30 38 85 39q48 0 75 -32t27 -90v-286h150v294q0 119 -48 181q-48 61 -145 61q-62 0 -106 -24q-44 -25 -70 -67v75h-148v-520zM212 -337h102l118 248h-159z" />
    <glyph glyph-name="Ncaron" unicode="&#x147;" horiz-adv-x="879" 
d="M382 870h124l107 150h-115l-54 -84l-54 84h-115zM77 0h156v539l404 -539h164v780h-155v-533l-403 533h-166v-780z" />
    <glyph glyph-name="ncaron" unicode="&#x148;" horiz-adv-x="643" 
d="M261 600h124l107 150h-115l-54 -84l-54 84h-115zM66 0h148v266q1 65 32 103q30 38 85 39q48 0 75 -32t27 -90v-286h150v294q0 119 -48 181q-48 61 -145 61q-62 0 -106 -24q-44 -25 -70 -67v75h-148v-520z" />
    <glyph glyph-name="Eng" unicode="&#x14a;" horiz-adv-x="879" 
d="M646 780v-533l-403 533h-166v-780h156v539l404 -539h9q0 -58 -22 -75q-23 -17 -70 -15h-22v-109h50q113 -3 166 43q53 47 53 156v780h-155z" />
    <glyph glyph-name="eng" unicode="&#x14b;" horiz-adv-x="646" 
d="M390 536q-62 0 -106 -24q-44 -25 -70 -67v75h-148v-520h148v266q1 65 32 103q30 38 85 39q48 0 75 -32t27 -90v-286q0 -43 -23 -62q-24 -20 -73 -19h-26v-118h50q116 -3 170 43q53 46 52 156v294q0 119 -48 181q-48 61 -145 61v0z" />
    <glyph glyph-name="Omacron" unicode="&#x14c;" horiz-adv-x="890" 
d="M238 880l420 1v100l-420 -1v-100zM448 -16q182 3 288 114t108 296q-2 181 -108 290t-288 112q-185 -3 -292 -112q-108 -109 -110 -290q2 -185 110 -296q107 -111 292 -114v0zM448 135q-113 1 -177 70t-65 194q1 116 65 180q64 65 177 66q110 -1 172 -66q62 -64 63 -180
q-1 -125 -63 -194t-172 -70v0z" />
    <glyph glyph-name="omacron" unicode="&#x14d;" horiz-adv-x="647" 
d="M150 610l346 1v100l-346 -1v-100zM323 -16q124 2 200 78q76 75 78 199q-2 123 -78 198t-200 77q-124 -2 -200 -77q-75 -75 -77 -198q2 -124 77 -199q76 -76 200 -78v0zM323 112q-57 1 -92 42t-36 107q1 66 36 106t92 41q58 -1 93 -41t36 -106q-1 -66 -36 -107t-93 -42v0z
" />
    <glyph glyph-name="Ohungarumlaut" unicode="&#x150;" horiz-adv-x="890" 
d="M319 870h94l112 150h-148zM495 870h93l113 150h-148zM448 -16q182 3 288 114t108 296q-2 181 -108 290t-288 112q-185 -3 -292 -112q-108 -109 -110 -290q2 -185 110 -296q107 -111 292 -114v0zM448 135q-113 1 -177 70t-65 194q1 116 65 180q64 65 177 66
q110 -1 172 -66q62 -64 63 -180q-1 -125 -63 -194t-172 -70v0z" />
    <glyph glyph-name="ohungarumlaut" unicode="&#x151;" horiz-adv-x="647" 
d="M194 600h94l112 150h-148zM370 600h93l113 150h-148zM323 -16q124 2 200 78q76 75 78 199q-2 123 -78 198t-200 77q-124 -2 -200 -77q-75 -75 -77 -198q2 -124 77 -199q76 -76 200 -78v0zM323 112q-57 1 -92 42t-36 107q1 66 36 106t92 41q58 -1 93 -41t36 -106
q-1 -66 -36 -107t-93 -42v0z" />
    <glyph glyph-name="OE" unicode="&#x152;" horiz-adv-x="1377" 
d="M871 151v172h401v144h-401v162h436v151h-592v-76q-51 44 -118 68q-68 24 -149 24q-185 -3 -292 -112q-108 -109 -110 -290q2 -185 110 -296q107 -111 292 -114q81 0 149 25q67 24 118 69v-78h597v151h-441zM448 135q-113 1 -177 70t-65 194q1 116 65 180q64 65 177 66
q110 -1 172 -66q62 -64 63 -180q-1 -125 -63 -194t-172 -70v0z" />
    <glyph glyph-name="oe" unicode="&#x153;" horiz-adv-x="1013" 
d="M967 264q-2 126 -70 198q-68 73 -174 74q-61 0 -111 -21t-86 -59q-37 38 -89 59q-51 21 -114 21q-124 -2 -200 -77q-75 -75 -77 -198q2 -124 77 -199q76 -76 200 -78q63 0 114 21q52 21 89 60q36 -39 86 -60t111 -21q98 1 163 50t79 135h-149q-5 -28 -29 -45
q-23 -18 -62 -19q-58 1 -86 30q-28 30 -33 81h361v48zM323 112q-57 1 -92 42t-36 107q1 66 36 106t92 41q58 -1 93 -41t36 -106q-1 -66 -36 -107t-93 -42v0zM606 307q7 46 34 73q26 27 78 28q47 -1 72 -29q26 -28 28 -72h-212z" />
    <glyph glyph-name="Racute" unicode="&#x154;" horiz-adv-x="779" 
d="M344 870h101l119 150h-169zM77 0h156v290h171q72 2 94 -22q23 -24 30 -95q7 -54 13 -96q7 -42 21 -77h165v10q-22 50 -25 89t-14 119q-8 51 -30 80q-23 29 -63 41q56 25 87 74t31 122q-1 116 -70 180q-70 64 -200 65h-366v-780zM233 426v203h179q72 0 106 -27
q34 -26 34 -74t-33 -75t-102 -27h-184z" />
    <glyph glyph-name="racute" unicode="&#x155;" horiz-adv-x="433" 
d="M204 600h101l119 150h-169zM66 0h146v281q3 68 63 86q59 18 141 16v143q-76 0 -127 -26t-77 -78v98h-146v-520z" />
    <glyph glyph-name="uni0156" unicode="&#x156;" horiz-adv-x="779" 
d="M77 0h156v290h171q72 2 94 -22q23 -24 30 -95q7 -54 13 -96q7 -42 21 -77h165v10q-22 50 -25 89t-14 119q-8 51 -30 80q-23 29 -63 41q56 25 87 74t31 122q-1 116 -70 180q-70 64 -200 65h-366v-780zM233 426v203h179q72 0 106 -27q34 -26 34 -74t-33 -75t-102 -27h-184z
M266 -337h102l118 248h-159z" />
    <glyph glyph-name="uni0157" unicode="&#x157;" horiz-adv-x="433" 
d="M66 0h146v281q3 68 63 86q59 18 141 16v143q-76 0 -127 -26t-77 -78v98h-146v-520zM29 -337h102l118 248h-159z" />
    <glyph glyph-name="Rcaron" unicode="&#x158;" horiz-adv-x="779" 
d="M320 870h124l107 150h-115l-54 -84l-54 84h-115zM77 0h156v290h171q72 2 94 -22q23 -24 30 -95q7 -54 13 -96q7 -42 21 -77h165v10q-22 50 -25 89t-14 119q-8 51 -30 80q-23 29 -63 41q56 25 87 74t31 122q-1 116 -70 180q-70 64 -200 65h-366v-780zM233 426v203h179
q72 0 106 -27q34 -26 34 -74t-33 -75t-102 -27h-184z" />
    <glyph glyph-name="rcaron" unicode="&#x159;" horiz-adv-x="433" 
d="M180 600h124l107 150h-115l-54 -84l-54 84h-115zM66 0h146v281q3 68 63 86q59 18 141 16v143q-76 0 -127 -26t-77 -78v98h-146v-520z" />
    <glyph glyph-name="Sacute" unicode="&#x15a;" horiz-adv-x="777" 
d="M358 870h101l119 150h-169zM395 -16q155 2 240 71q85 68 86 181q-30 226 -240 220q-211 -6 -241 98q0 47 38 72q37 26 109 26q70 0 109 -31q39 -30 44 -85h172q-2 121 -90 190t-232 70q-145 -1 -227 -66q-82 -64 -84 -178q30 -220 240 -216q210 5 240 -102q0 -49 -41 -77
t-119 -29q-79 1 -122 37q-43 37 -46 103h-175q2 -135 95 -209q92 -74 244 -75v0z" />
    <glyph glyph-name="sacute" unicode="&#x15b;" horiz-adv-x="586" 
d="M256 600h101l119 150h-169zM298 -16q114 1 178 45q63 44 64 122q-21 153 -166 157t-166 63q0 28 23 45q22 17 64 17q45 0 71 -22q25 -21 28 -60h146q-8 87 -69 136q-62 48 -167 49q-116 -1 -180 -46t-65 -125q21 -148 167 -152q145 -4 166 -67q0 -24 -24 -41
q-23 -17 -66 -18q-47 0 -77 21q-30 20 -32 58h-147q3 -86 69 -134q66 -47 183 -48v0z" />
    <glyph glyph-name="Scedilla" unicode="&#x15e;" horiz-adv-x="777" 
d="M721 236q-30 226 -240 220q-211 -6 -241 98q0 47 38 72q37 26 109 26q70 0 109 -31q39 -30 44 -85h172q-2 121 -90 190t-232 70q-145 -1 -227 -66q-82 -64 -84 -178q30 -220 240 -216q210 5 240 -102q0 -49 -41 -77t-119 -29q-79 1 -122 37q-43 37 -46 103h-175
q2 -127 84 -200t220 -83l-51 -84l49 -51q8 8 20 12q11 5 25 5q23 0 36 -14q13 -13 13 -37q0 -22 -13 -35t-37 -13t-37 15q-13 14 -13 40h-91q1 -60 38 -93q36 -34 103 -34t104 32q36 31 37 88q-1 62 -38 92q-36 31 -95 20l38 58q131 14 201 81q71 66 72 169v0z" />
    <glyph glyph-name="scedilla" unicode="&#x15f;" horiz-adv-x="586" 
d="M208 371q0 28 23 45q22 17 64 17q45 0 71 -22q25 -21 28 -60h146q-8 87 -69 136q-62 48 -167 49q-116 -1 -180 -46t-65 -125q21 -148 167 -152q145 -4 166 -67q0 -24 -24 -41q-23 -17 -66 -18q-47 0 -77 21q-30 20 -32 58h-147q3 -79 59 -126q57 -47 157 -55l-51 -84
l49 -51q8 8 20 12q11 5 25 5q23 0 36 -14q13 -13 13 -37q0 -22 -13 -35t-37 -13t-37 15q-13 14 -13 40h-91q1 -60 38 -93q36 -34 103 -34t104 32q36 31 37 88q-1 62 -38 92q-36 31 -95 20l38 59q91 10 140 53t50 111q-21 153 -166 157t-166 63v0z" />
    <glyph glyph-name="Scaron" unicode="&#x160;" horiz-adv-x="777" 
d="M334 870h124l107 150h-115l-54 -84l-54 84h-115zM395 -16q155 2 240 71q85 68 86 181q-30 226 -240 220q-211 -6 -241 98q0 47 38 72q37 26 109 26q70 0 109 -31q39 -30 44 -85h172q-2 121 -90 190t-232 70q-145 -1 -227 -66q-82 -64 -84 -178q30 -220 240 -216
q210 5 240 -102q0 -49 -41 -77t-119 -29q-79 1 -122 37q-43 37 -46 103h-175q2 -135 95 -209q92 -74 244 -75v0z" />
    <glyph glyph-name="scaron" unicode="&#x161;" horiz-adv-x="586" 
d="M232 600h124l107 150h-115l-54 -84l-54 84h-115zM298 -16q114 1 178 45q63 44 64 122q-21 153 -166 157t-166 63q0 28 23 45q22 17 64 17q45 0 71 -22q25 -21 28 -60h146q-8 87 -69 136q-62 48 -167 49q-116 -1 -180 -46t-65 -125q21 -148 167 -152q145 -4 166 -67
q0 -24 -24 -41q-23 -17 -66 -18q-47 0 -77 21q-30 20 -32 58h-147q3 -86 69 -134q66 -47 183 -48v0z" />
    <glyph glyph-name="uni0162" unicode="&#x162;" horiz-adv-x="759" 
d="M457 0v628h278v152h-711v-152h277v-628h35l-60 -99l49 -51q8 8 20 12q12 5 26 5q22 0 35 -14q14 -13 14 -37q0 -22 -13 -35q-14 -13 -38 -13t-37 15q-13 14 -13 40h-90q1 -60 37 -93q37 -34 103 -34q67 0 104 32q36 31 37 88q-1 62 -37 92q-37 31 -95 20l47 72h32z" />
    <glyph glyph-name="uni0163" unicode="&#x163;" horiz-adv-x="471" 
d="M421 385v135h-136v140h-148v-140h-111v-135h111v-245q-2 -70 24 -102q25 -33 80 -39l-53 -98l45 -51q7 8 18 12q10 5 23 5q20 0 32 -14q12 -13 12 -37q0 -22 -12 -35q-11 -13 -33 -13t-34 15q-12 14 -12 40h-82q1 -60 34 -93q34 -34 94 -34t93 32q33 31 34 88
q-1 62 -34 92q-33 31 -86 20l41 68q36 2 79 5v131q-80 -9 -99 6t-16 78v169h136z" />
    <glyph glyph-name="Tcaron" unicode="&#x164;" horiz-adv-x="759" 
d="M314 880h124l107 150h-115l-54 -84l-54 84h-115zM301 0h156v628h278v152h-711v-152h277v-628z" />
    <glyph glyph-name="tcaron" unicode="&#x165;" horiz-adv-x="471" 
d="M320 640h101l119 150h-169zM400 1v131q-80 -9 -99 6t-16 78v169h136v135h-136v140h-148v-140h-111v-135h111v-245q-3 -106 60 -130q64 -23 203 -9v0z" />
    <glyph glyph-name="Tbar" unicode="&#x166;" horiz-adv-x="759" 
d="M735 628v152h-711v-152h277v-177h-191v-112h191v-339h156v340h193v112h-193v176h278z" />
    <glyph glyph-name="tbar" unicode="&#x167;" horiz-adv-x="471" 
d="M421 385v135h-136v140h-148v-140h-111v-135h111v-67h-99v-112h99v-66q-3 -106 60 -130q64 -23 203 -9v131q-77 -9 -98 5q-20 13 -17 70h113v112h-113v66h136z" />
    <glyph glyph-name="Umacron" unicode="&#x16a;" horiz-adv-x="824" 
d="M202 890l420 1v100l-420 -1v-100zM412 -13q163 0 252 90q90 89 91 254v449h-156v-448q-1 -92 -49 -143q-49 -50 -138 -51q-89 1 -138 51q-49 51 -50 143v448h-155v-449q1 -162 91 -251q89 -90 252 -93v0z" />
    <glyph glyph-name="umacron" unicode="&#x16b;" horiz-adv-x="643" 
d="M151 610l346 1v100l-346 -1v-100zM577 520h-148v-266q-1 -65 -31 -103q-31 -38 -86 -39q-48 1 -75 33t-27 89v286h-150v-294q0 -119 48 -181q48 -61 145 -61q62 0 106 25q44 24 70 66v-75h148v520z" />
    <glyph glyph-name="Uring" unicode="&#x16e;" horiz-adv-x="824" 
d="M412 857q58 1 95 38t38 95q-1 58 -38 95t-95 38q-58 -1 -95 -38t-38 -95q1 -58 38 -95t95 -38v0zM412 952q-15 1 -26 12t-12 26q1 16 12 27t26 11q16 0 27 -11t11 -27q0 -15 -11 -26t-27 -12v0zM412 -13q163 0 252 90q90 89 91 254v449h-156v-448q-1 -92 -49 -143
q-49 -50 -138 -51q-89 1 -138 51q-49 51 -50 143v448h-155v-449q1 -162 91 -251q89 -90 252 -93v0z" />
    <glyph glyph-name="uring" unicode="&#x16f;" horiz-adv-x="643" 
d="M324 577q58 1 95 38t38 95q-1 58 -38 95t-95 38q-58 -1 -95 -38t-38 -95q1 -58 38 -95t95 -38v0zM324 672q-15 1 -26 12t-12 26q1 16 12 27t26 11q16 0 27 -11t11 -27q0 -15 -11 -26t-27 -12v0zM577 520h-148v-266q-1 -65 -31 -103q-31 -38 -86 -39q-48 1 -75 33t-27 89
v286h-150v-294q0 -119 48 -181q48 -61 145 -61q62 0 106 25q44 24 70 66v-75h148v520z" />
    <glyph glyph-name="Uhungarumlaut" unicode="&#x170;" horiz-adv-x="824" 
d="M283 880h94l112 150h-148zM459 880h93l113 150h-148zM412 -13q163 0 252 90q90 89 91 254v449h-156v-448q-1 -92 -49 -143q-49 -50 -138 -51q-89 1 -138 51q-49 51 -50 143v448h-155v-449q1 -162 91 -251q89 -90 252 -93v0z" />
    <glyph glyph-name="uhungarumlaut" unicode="&#x171;" horiz-adv-x="643" 
d="M195 600h94l112 150h-148zM371 600h93l113 150h-148zM577 520h-148v-266q-1 -65 -31 -103q-31 -38 -86 -39q-48 1 -75 33t-27 89v286h-150v-294q0 -119 48 -181q48 -61 145 -61q62 0 106 25q44 24 70 66v-75h148v520z" />
    <glyph glyph-name="Uogonek" unicode="&#x172;" horiz-adv-x="824" 
d="M599 780v-448q-1 -92 -49 -143q-49 -50 -138 -51q-89 1 -138 51q-49 51 -50 143v448h-155v-449q1 -143 71 -230t201 -108q-23 -19 -36 -45q-14 -26 -14 -58q0 -57 52 -88q53 -31 164 -25v86q-53 1 -79 17q-27 17 -27 44q0 18 9 34t24 29q153 6 236 96q84 89 85 248v449
h-156z" />
    <glyph glyph-name="uogonek" unicode="&#x173;" horiz-adv-x="643" 
d="M509 0h68v520h-148v-266q-1 -65 -31 -103q-31 -38 -86 -39q-48 1 -75 33t-27 89v286h-150v-294q0 -119 48 -181q48 -61 145 -61q62 0 106 25q44 24 70 66v-62q-35 -20 -57 -51q-21 -31 -22 -72q0 -57 52 -88q53 -31 164 -25v86q-53 1 -79 17q-27 17 -27 44q0 22 14 41
t35 35v0z" />
    <glyph glyph-name="Wcircumflex" unicode="&#x174;" horiz-adv-x="1228" 
d="M433 880h115l54 84l54 -84h115l-107 150h-124zM263 0h172l177 556l181 -556h172l235 780h-172l-152 -574l-170 574h-190l-165 -573l-151 573h-172z" />
    <glyph glyph-name="wcircumflex" unicode="&#x175;" horiz-adv-x="936" 
d="M291 600h115l54 84l54 -84h115l-107 150h-124zM199 0h157l112 312l111 -312h157l178 520h-155l-103 -324l-112 324h-153l-111 -324l-103 324h-156z" />
    <glyph glyph-name="Ycircumflex" unicode="&#x176;" horiz-adv-x="780" 
d="M218 880h115l54 84l54 -84h115l-107 150h-124zM312 0h156v306l299 474h-172l-205 -333l-205 333h-172l299 -474v-306z" />
    <glyph glyph-name="ycircumflex" unicode="&#x177;" horiz-adv-x="638" 
d="M153 600h115l54 84l54 -84h115l-107 150h-124zM74 -200h64q96 -2 163 33q66 36 106 129l213 558h-156l-129 -347l-148 347h-156l226 -528q-24 -35 -54 -48q-30 -14 -78 -13h-51v-131z" />
    <glyph glyph-name="Ydieresis" unicode="&#x178;" horiz-adv-x="780" 
d="M278 858q41 1 67 27t27 67q-1 41 -26 67q-26 25 -68 26q-42 -1 -68 -26q-26 -26 -27 -67q1 -41 27 -67t68 -27v0zM503 858q41 1 67 27t27 67q-1 41 -26 67q-26 25 -68 26q-42 -1 -68 -26q-26 -26 -27 -67q1 -41 27 -67t68 -27v0zM312 0h156v306l299 474h-172l-205 -333
l-205 333h-172l299 -474v-306z" />
    <glyph glyph-name="Zacute" unicode="&#x179;" horiz-adv-x="730" 
d="M309 880h101l119 150h-169zM52 0h619v141h-392l405 554v85h-638v-141h404l-398 -532v-107z" />
    <glyph glyph-name="zacute" unicode="&#x17a;" horiz-adv-x="588" 
d="M259 600h101l119 150h-169zM43 0h496v142h-270l265 287v91h-472v-142h257l-276 -294v-84z" />
    <glyph glyph-name="Zdotaccent" unicode="&#x17b;" horiz-adv-x="730" 
d="M350 864q41 1 67 27t27 67q-1 41 -26 66q-26 25 -68 26q-42 -1 -68 -26t-27 -66q1 -41 27 -67t68 -27v0zM52 0h619v141h-392l405 554v85h-638v-141h404l-398 -532v-107z" />
    <glyph glyph-name="zdotaccent" unicode="&#x17c;" horiz-adv-x="588" 
d="M300 584q41 1 67 27t27 67q-1 41 -26 66q-26 25 -68 26q-42 -1 -68 -26t-27 -66q1 -41 27 -67t68 -27v0zM43 0h496v142h-270l265 287v91h-472v-142h257l-276 -294v-84z" />
    <glyph glyph-name="Zcaron" unicode="&#x17d;" horiz-adv-x="730" 
d="M285 880h124l107 150h-115l-54 -84l-54 84h-115zM52 0h619v141h-392l405 554v85h-638v-141h404l-398 -532v-107z" />
    <glyph glyph-name="zcaron" unicode="&#x17e;" horiz-adv-x="588" 
d="M235 600h124l107 150h-115l-54 -84l-54 84h-115zM43 0h496v142h-270l265 287v91h-472v-142h257l-276 -294v-84z" />
    <glyph glyph-name="uni0218" unicode="&#x218;" horiz-adv-x="777" 
d="M395 -16q155 2 240 71q85 68 86 181q-30 226 -240 220q-211 -6 -241 98q0 47 38 72q37 26 109 26q70 0 109 -31q39 -30 44 -85h172q-2 121 -90 190t-232 70q-145 -1 -227 -66q-82 -64 -84 -178q30 -220 240 -216q210 5 240 -102q0 -49 -41 -77t-119 -29q-79 1 -122 37
q-43 37 -46 103h-175q2 -135 95 -209q92 -74 244 -75v0zM287 -337h102l118 248h-159z" />
    <glyph glyph-name="uni0219" unicode="&#x219;" horiz-adv-x="586" 
d="M298 -16q114 1 178 45q63 44 64 122q-21 153 -166 157t-166 63q0 28 23 45q22 17 64 17q45 0 71 -22q25 -21 28 -60h146q-8 87 -69 136q-62 48 -167 49q-116 -1 -180 -46t-65 -125q21 -148 167 -152q145 -4 166 -67q0 -24 -24 -41q-23 -17 -66 -18q-47 0 -77 21
q-30 20 -32 58h-147q3 -86 69 -134q66 -47 183 -48v0zM189 -337h102l118 248h-159z" />
    <glyph glyph-name="uni021A" unicode="&#x21a;" horiz-adv-x="759" 
d="M301 0h156v628h278v152h-711v-152h277v-628zM269 -337h102l117 248h-158z" />
    <glyph glyph-name="uni021B" unicode="&#x21b;" horiz-adv-x="471" 
d="M400 1v131q-80 -9 -99 6t-16 78v169h136v135h-136v140h-148v-140h-111v-135h111v-245q-3 -106 60 -130q64 -23 203 -9v0zM158 -337h102l118 248h-159z" />
    <glyph glyph-name="circumflex" unicode="&#x2c6;" horiz-adv-x="600" 
d="M84 650h115l54 84l54 -84h115l-107 150h-124z" />
    <glyph glyph-name="caron" unicode="&#x2c7;" horiz-adv-x="600" 
d="M191 650h124l107 150h-115l-54 -84l-54 84h-115z" />
    <glyph glyph-name="breve" unicode="&#x2d8;" horiz-adv-x="600" 
d="M236 654q67 1 103 36q37 36 37 100h-88q0 -27 -14 -42t-38 -15t-38 15t-14 42h-88q1 -64 37 -100q37 -35 103 -36v0z" />
    <glyph glyph-name="dotaccent" unicode="&#x2d9;" horiz-adv-x="600" 
d="M170 584q41 1 67 27t27 67q-1 41 -26 66q-26 25 -68 26q-42 -1 -68 -26t-27 -66q1 -41 27 -67t68 -27v0z" />
    <glyph glyph-name="ring" unicode="&#x2da;" horiz-adv-x="600" 
d="M212 570q58 1 95 38t38 95q-1 58 -38 95t-95 38q-58 -1 -95 -38t-38 -95q1 -58 38 -95t95 -38v0zM212 665q-15 1 -26 12t-12 26q1 16 12 27t26 11q16 0 27 -11t11 -27q0 -15 -11 -26t-27 -12v0z" />
    <glyph glyph-name="ogonek" unicode="&#x2db;" horiz-adv-x="600" 
d="M286 -223v86q-53 1 -79 17q-27 17 -27 44q1 23 15 43q15 20 38 36l-26 33q-58 -15 -97 -52q-38 -37 -40 -94q0 -57 52 -88q53 -31 164 -25v0z" />
    <glyph glyph-name="tilde" unicode="&#x2dc;" horiz-adv-x="600" 
d="M351 672q61 1 92 35q32 35 27 98h-88q0 -24 -9 -37q-9 -14 -30 -14q-27 3 -55 26q-29 22 -73 25q-62 0 -94 -35q-32 -34 -27 -97h86q0 23 10 36q9 14 31 14q25 -3 55 -25q29 -23 75 -26v0z" />
    <glyph glyph-name="hungarumlaut" unicode="&#x2dd;" horiz-adv-x="600" 
d="M91 650h94l112 150h-148zM267 650h93l113 150h-148z" />
    <glyph glyph-name="gravecomb" unicode="&#x300;" 
d="M-91 650l-51 150h-169l119 -150h101z" />
    <glyph glyph-name="acutecomb" unicode="&#x301;" 
d="M-290 650h101l119 150h-169z" />
    <glyph glyph-name="uni0302" unicode="&#x302;" 
d="M-422 650h115l54 84l54 -84h115l-107 150h-124z" />
    <glyph glyph-name="tildecomb" unicode="&#x303;" 
d="M-216 672q61 1 92 35q32 35 27 98h-88q0 -24 -9 -37q-9 -14 -30 -14q-27 3 -55 26q-29 22 -73 25q-62 0 -94 -35q-32 -34 -27 -97h86q0 23 10 36q9 14 31 14q25 -3 55 -25q29 -23 75 -26v0z" />
    <glyph glyph-name="uni0304" unicode="&#x304;" 
d="M-520 660l420 1v100l-420 -1v-100z" />
    <glyph glyph-name="uni0306" unicode="&#x306;" 
d="M-236 654q67 1 103 36q37 36 37 100h-88q0 -27 -14 -42t-38 -15t-38 15t-14 42h-88q1 -64 37 -100q37 -35 103 -36v0z" />
    <glyph glyph-name="uni0307" unicode="&#x307;" 
d="M-169 584q41 1 67 27t27 67q-1 41 -26 66q-26 25 -68 26q-42 -1 -68 -26t-27 -66q1 -41 27 -67t68 -27v0z" />
    <glyph glyph-name="uni0308" unicode="&#x308;" 
d="M-364 578q41 1 67 27t27 67q-1 41 -26 67q-26 25 -68 26q-42 -1 -68 -26q-26 -26 -27 -67q1 -41 27 -67t68 -27v0zM-139 578q41 1 67 27t27 67q-1 41 -26 67q-26 25 -68 26q-42 -1 -68 -26q-26 -26 -27 -67q1 -41 27 -67t68 -27v0z" />
    <glyph glyph-name="uni030A" unicode="&#x30a;" 
d="M-212 570q58 1 95 38t38 95q-1 58 -38 95t-95 38q-58 -1 -95 -38t-38 -95q1 -58 38 -95t95 -38v0zM-212 665q-15 1 -26 12t-12 26q1 16 12 27t26 11q16 0 27 -11t11 -27q0 -15 -11 -26t-27 -12v0z" />
    <glyph glyph-name="uni030B" unicode="&#x30b;" 
d="M-452 650h94l112 150h-148zM-276 650h93l113 150h-148z" />
    <glyph glyph-name="uni030C" unicode="&#x30c;" 
d="M-315 650h124l107 150h-115l-54 -84l-54 84h-115z" />
    <glyph glyph-name="uni0312" unicode="&#x312;" 
d="M-84 867h-102l-118 -248h159z" />
    <glyph glyph-name="uni0326" unicode="&#x326;" 
d="M-295 -337h102l118 248h-159z" />
    <glyph glyph-name="uni0327" unicode="&#x327;" 
d="M-262 -304q67 0 104 32q36 31 37 88q-1 62 -38 92q-36 31 -95 20l47 72h-88l-60 -99l49 -51q8 8 20 12q11 5 25 5q23 0 36 -14q13 -13 13 -37q0 -22 -13 -35t-37 -13t-37 15q-13 14 -13 40h-91q1 -60 38 -93q36 -34 103 -34v0z" />
    <glyph glyph-name="uni0328" unicode="&#x328;" 
d="M-100 -223v86q-53 1 -79 17q-27 17 -27 44q1 23 15 43q15 20 38 36l-26 33q-58 -15 -97 -52q-38 -37 -40 -94q0 -57 52 -88q53 -31 164 -25v0z" />
    <glyph glyph-name="uni0335" unicode="&#x335;" 
d="M-640 339l540 1v112l-540 -1v-112z" />
    <glyph glyph-name="uni0336" unicode="&#x336;" 
d="M-959 347l859 1v132l-859 -1v-132z" />
    <glyph glyph-name="uni0337" unicode="&#x337;" 
d="M-536 8l423 451l-95 87l-425 -452z" />
    <glyph glyph-name="uni0338" unicode="&#x338;" 
d="M-785 -18l696 733l-96 86l-697 -734z" />
    <glyph glyph-name="Wgrave" unicode="&#x1e80;" horiz-adv-x="1228" 
d="M648 880l-51 150h-169l119 -150h101zM263 0h172l177 556l181 -556h172l235 780h-172l-152 -574l-170 574h-190l-165 -573l-151 573h-172z" />
    <glyph glyph-name="wgrave" unicode="&#x1e81;" horiz-adv-x="936" 
d="M506 600l-51 150h-169l119 -150h101zM199 0h157l112 312l111 -312h157l178 520h-155l-103 -324l-112 324h-153l-111 -324l-103 324h-156z" />
    <glyph glyph-name="Wacute" unicode="&#x1e82;" horiz-adv-x="1228" 
d="M564 880h101l119 150h-169zM263 0h172l177 556l181 -556h172l235 780h-172l-152 -574l-170 574h-190l-165 -573l-151 573h-172z" />
    <glyph glyph-name="wacute" unicode="&#x1e83;" horiz-adv-x="936" 
d="M422 600h101l119 150h-169zM199 0h157l112 312l111 -312h157l178 520h-155l-103 -324l-112 324h-153l-111 -324l-103 324h-156z" />
    <glyph glyph-name="Wdieresis" unicode="&#x1e84;" horiz-adv-x="1228" 
d="M493 858q41 1 67 27t27 67q-1 41 -26 67q-26 25 -68 26q-42 -1 -68 -26q-26 -26 -27 -67q1 -41 27 -67t68 -27v0zM718 858q41 1 67 27t27 67q-1 41 -26 67q-26 25 -68 26q-42 -1 -68 -26q-26 -26 -27 -67q1 -41 27 -67t68 -27v0zM263 0h172l177 556l181 -556h172l235 780
h-172l-152 -574l-170 574h-190l-165 -573l-151 573h-172z" />
    <glyph glyph-name="wdieresis" unicode="&#x1e85;" horiz-adv-x="936" 
d="M351 578q41 1 67 27t27 67q-1 41 -26 67q-26 25 -68 26q-42 -1 -68 -26q-26 -26 -27 -67q1 -41 27 -67t68 -27v0zM576 578q41 1 67 27t27 67q-1 41 -26 67q-26 25 -68 26q-42 -1 -68 -26q-26 -26 -27 -67q1 -41 27 -67t68 -27v0zM199 0h157l112 312l111 -312h157l178 520
h-155l-103 -324l-112 324h-153l-111 -324l-103 324h-156z" />
    <glyph glyph-name="Ygrave" unicode="&#x1ef2;" horiz-adv-x="780" 
d="M433 880l-51 150h-169l119 -150h101zM312 0h156v306l299 474h-172l-205 -333l-205 333h-172l299 -474v-306z" />
    <glyph glyph-name="ygrave" unicode="&#x1ef3;" horiz-adv-x="638" 
d="M368 600l-51 150h-169l119 -150h101zM74 -200h64q96 -2 163 33q66 36 106 129l213 558h-156l-129 -347l-148 347h-156l226 -528q-24 -35 -54 -48q-30 -14 -78 -13h-51v-131z" />
    <glyph glyph-name="endash" unicode="&#x2013;" horiz-adv-x="856" 
d="M93 288h670v148h-670v-148z" />
    <glyph glyph-name="emdash" unicode="&#x2014;" horiz-adv-x="1116" 
d="M93 288h930v148h-930v-148z" />
    <glyph glyph-name="quoteleft" unicode="&#x2018;" horiz-adv-x="296" 
d="M260 790h-103l-117 -248h158z" />
    <glyph glyph-name="quoteright" unicode="&#x2019;" horiz-adv-x="294" 
d="M37 542h102l118 248h-159z" />
    <glyph glyph-name="quotesinglbase" unicode="&#x201a;" horiz-adv-x="296" 
d="M37 -103h102l118 248h-159z" />
    <glyph glyph-name="quotedblleft" unicode="&#x201c;" horiz-adv-x="532" 
d="M260 790h-103l-117 -248h158zM494 790h-102l-118 -248h158z" />
    <glyph glyph-name="quotedblright" unicode="&#x201d;" horiz-adv-x="530" 
d="M37 542h102l118 248h-159zM271 542h102l118 248h-159z" />
    <glyph glyph-name="quotedblbase" unicode="&#x201e;" horiz-adv-x="531" 
d="M37 -103h102l118 248h-159zM271 -103h102l118 248h-159z" />
    <glyph glyph-name="dagger" unicode="&#x2020;" horiz-adv-x="740" 
d="M292 -200h156v553h192v147h-192v290h-156v-291h-192v-147h192v-552z" />
    <glyph glyph-name="daggerdbl" unicode="&#x2021;" horiz-adv-x="740" 
d="M292 -200h156v300h192v147h-192v106h192v147h-192v290h-156v-291h-192v-147h192v-106h-192v-147h192v-299z" />
    <glyph glyph-name="bullet" unicode="&#x2022;" horiz-adv-x="686" 
d="M350 117q119 2 193 76q75 74 77 192q-2 118 -76 190q-75 73 -194 75q-120 -2 -195 -75q-75 -72 -77 -190q2 -118 77 -192t195 -76v0z" />
    <glyph glyph-name="ellipsis" unicode="&#x2026;" horiz-adv-x="822" 
d="M147 -14q41 1 67 26q26 26 27 67q-1 41 -27 67q-26 25 -67 26q-42 -1 -69 -26q-26 -26 -27 -67q1 -41 27 -67q27 -25 69 -26v0zM412 -14q41 1 67 26q26 26 27 67q-1 41 -27 67q-26 25 -67 26q-42 -1 -68 -26q-26 -26 -27 -67q1 -41 27 -67q26 -25 68 -26v0zM676 -14
q41 1 67 26q26 26 27 67q-1 41 -26 67q-26 25 -68 26q-42 -1 -68 -26q-26 -26 -27 -67q1 -41 27 -67q26 -25 68 -26v0z" />
    <glyph glyph-name="perthousand" unicode="&#x2030;" horiz-adv-x="1509" 
d="M470 611q-2 88 -54 143q-53 54 -135 56q-81 -2 -134 -56q-52 -55 -54 -143q2 -89 54 -143q53 -54 134 -56q82 2 135 56q52 54 54 143v0zM798 790l-566 -790h191l566 790h-191zM209 611q1 37 21 59t51 23q31 -1 51 -23t21 -59q-1 -37 -21 -59t-51 -23q-31 1 -51 23t-21 59
v0zM1228 388q-38 0 -72 -14q-33 -13 -58 -38q-25 25 -58 38q-33 14 -72 14q-82 -2 -135 -56q-52 -54 -54 -143q2 -88 54 -143q53 -54 135 -56q39 0 72 14q33 13 58 38q26 -25 59 -38q33 -14 71 -14q81 2 134 56t55 143q-2 89 -55 143t-134 56v0zM968 107q-31 1 -51 23
t-21 59q1 37 21 59t51 23q31 -1 51 -23t21 -59q-1 -37 -21 -59t-51 -23v0zM1228 107q-31 1 -51 23t-21 59q1 37 21 59t51 23q31 -1 51 -23t21 -59q-1 -37 -21 -59t-51 -23v0z" />
    <glyph glyph-name="guilsinglleft" unicode="&#x2039;" horiz-adv-x="571" 
d="M313 0h166l-217 250l217 250h-166l-220 -250z" />
    <glyph glyph-name="guilsinglright" unicode="&#x203a;" horiz-adv-x="571" 
d="M259 0l220 250l-220 250h-166l217 -250l-217 -250h166z" />
    <glyph glyph-name="fraction" unicode="&#x2044;" horiz-adv-x="929" 
d="M270 0l566 790h-191l-566 -790h191z" />
    <glyph glyph-name="Euro" unicode="&#x20ac;" horiz-adv-x="957" 
d="M750 294q-13 -76 -69 -117q-56 -42 -142 -42q-63 0 -112 25q-48 24 -79 70h268v132l-311 -1q-1 10 -1 19q-1 9 -1 19q0 14 1 26l312 1v133h-267q31 42 81 64q49 23 113 22q78 -1 131 -39q53 -37 67 -106h161q-21 142 -118 219q-98 76 -239 77q-133 -1 -230 -64t-142 -174
h-131v-133h102q-1 -15 -1 -31t1 -33h-102v-132h130q45 -114 143 -179q97 -65 232 -66q137 1 238 81q100 80 126 229h-161z" />
    <glyph glyph-name="trademark" unicode="&#x2122;" horiz-adv-x="1270" 
d="M211 255h106v425h188v103h-482v-103h188v-425zM574 255h105v381l157 -381h95l157 381v-381h105v528h-160l-150 -375l-149 375h-160v-528z" />
    <glyph glyph-name="arrowleft" unicode="&#x2190;" horiz-adv-x="996" 
d="M903 457h-525l177 176l-105 105l-357 -358l357 -357l106 104l-178 178h525v152z" />
    <glyph glyph-name="arrowup" unicode="&#x2191;" horiz-adv-x="901" 
d="M374 0h152v524l177 -177l105 106l-358 357l-357 -357l105 -105l176 176v-524z" />
    <glyph glyph-name="arrowright" unicode="&#x2192;" horiz-adv-x="996" 
d="M93 457v-152h524l-177 -178l105 -104l358 357l-358 358l-104 -105l176 -176h-524z" />
    <glyph glyph-name="arrowdown" unicode="&#x2193;" horiz-adv-x="901" 
d="M374 790v-524l-176 176l-105 -105l357 -357l358 357l-105 106l-177 -177v524h-152z" />
    <glyph glyph-name="arrowboth" unicode="&#x2194;" horiz-adv-x="1210" 
d="M760 738l-106 -105l178 -177h-454l178 177l-106 105l-357 -358l357 -357l105 105l-177 176h454l-177 -176l105 -105l357 357z" />
    <glyph glyph-name="arrowupdn" unicode="&#x2195;" horiz-adv-x="901" 
d="M527 162v432l176 -176l105 105l-358 357l-357 -357l104 -106l178 177v-432l-178 177l-104 -105l357 -358l358 358l-105 104z" />
    <glyph glyph-name="uni2196" unicode="&#x2196;" horiz-adv-x="812" 
d="M711 272l-370 371l249 -1v149h-505v-506l148 -1v251l371 -370z" />
    <glyph glyph-name="uni2197" unicode="&#x2197;" horiz-adv-x="813" 
d="M93 271l107 -107l371 371v-251h149v506h-506l1 -148h249z" />
    <glyph glyph-name="uni2198" unicode="&#x2198;" horiz-adv-x="812" 
d="M197 627l-108 -108l371 -370h-251l1 -149h505v505h-148l1 -249z" />
    <glyph glyph-name="uni2199" unicode="&#x2199;" horiz-adv-x="813" 
d="M720 519l-107 107l-371 -371v251h-149v-506h506l-1 148h-249z" />
    <glyph glyph-name="partialdiff" unicode="&#x2202;" horiz-adv-x="706" 
d="M347 -16q157 3 231 111q75 107 74 287q-2 205 -87 314q-84 109 -224 110q-125 -1 -199 -64q-75 -63 -86 -177l161 -1q7 43 40 67q34 24 88 24q63 -1 104 -55t55 -156q-29 33 -74 52q-45 18 -98 18q-128 -1 -200 -69q-72 -69 -73 -189q3 -123 83 -197q81 -73 205 -75v0z
M347 135q-59 1 -94 34q-36 33 -37 87q1 54 36 88q35 33 93 34q59 -1 94 -34q35 -34 36 -89q-1 -53 -36 -86t-92 -34v0z" />
    <glyph glyph-name="emptyset" unicode="&#x2205;" horiz-adv-x="646" 
d="M547 432l33 36l-73 65l-33 -36q-32 19 -70 29t-81 10q-124 -2 -200 -77q-75 -75 -77 -198q0 -52 15 -96q15 -45 42 -80l-37 -40l74 -64l36 40q32 -18 69 -27q37 -10 78 -10q124 2 200 78q76 75 78 199q0 50 -14 93t-40 78v0zM195 261q1 66 36 106t92 41q33 0 58 -14
l-176 -195q-5 14 -7 30q-3 15 -3 32v0zM323 112q-30 0 -54 12l175 193q8 -26 8 -56q-1 -66 -36 -107t-93 -42v0z" />
    <glyph glyph-name="product" unicode="&#x220f;" horiz-adv-x="1119" 
d="M261 -200h156v839h284v-839h156v839h169v151h-933v-151h168v-839z" />
    <glyph glyph-name="summation" unicode="&#x2211;" horiz-adv-x="768" 
d="M93 -150h583v151h-400l309 289l-309 289h400v151h-583v-151l309 -289l-309 -289v-151z" />
    <glyph glyph-name="minus" unicode="&#x2212;" horiz-adv-x="706" 
d="M93 280l520 1v132l-520 -1v-132z" />
    <glyph glyph-name="radical" unicode="&#x221a;" horiz-adv-x="967" 
d="M281 -110h158l231 692h204v151h-306l-213 -630l-109 287h-153z" />
    <glyph glyph-name="infinity" unicode="&#x221e;" horiz-adv-x="1083" 
d="M316 151q61 0 114 35q54 34 109 97q105 -132 228 -132q96 2 158 60q63 57 65 147q-2 93 -65 151q-62 59 -158 61q-61 0 -115 -34q-55 -34 -109 -99q-52 65 -109 99q-56 34 -118 34q-96 -2 -158 -61q-63 -58 -65 -151q2 -90 65 -147q62 -58 158 -60v0zM323 274
q-44 0 -69 23q-25 22 -25 61q0 40 25 63t69 23q37 -1 71 -24q33 -23 66 -62q-31 -39 -66 -61q-35 -23 -71 -23v0zM760 274q-38 1 -72 24t-65 60q33 40 66 63t71 23q43 0 68 -23t26 -63q-1 -39 -26 -61q-25 -23 -68 -23v0z" />
    <glyph glyph-name="integral" unicode="&#x222b;" horiz-adv-x="619" 
d="M93 -261h79q112 -4 162 41q49 44 49 158v606q-1 65 28 88q28 24 94 22h22v146h-80q-112 4 -161 -41q-49 -44 -49 -158v-606q1 -65 -28 -88q-29 -24 -94 -22h-22v-146z" />
    <glyph glyph-name="approxequal" unicode="&#x2248;" horiz-adv-x="691" 
d="M438 353q82 1 124 43q42 43 36 119h-118q0 -28 -12 -44q-12 -17 -40 -17q-36 4 -75 31q-38 26 -97 30q-82 -1 -125 -42q-43 -42 -37 -118h115q0 27 13 44q14 17 42 17q33 -4 74 -31q40 -28 100 -32v0zM438 143q82 1 124 43q42 43 36 119h-118q0 -28 -12 -44
q-12 -17 -40 -17q-36 4 -75 31q-38 26 -97 30q-82 -1 -125 -42q-43 -42 -37 -118h115q0 27 13 44q14 17 42 17q33 -4 74 -31q40 -28 100 -32v0z" />
    <glyph glyph-name="notequal" unicode="&#x2260;" horiz-adv-x="706" 
d="M680 682h-165l-124 -173l-298 -1v-133h202l-46 -64h-156v-132h61l-128 -179h165l129 179l293 1v132h-199l46 64h153v133h-57z" />
    <glyph glyph-name="lessequal" unicode="&#x2264;" horiz-adv-x="691" 
d="M598 -1v154l-305 127l305 127v154l-500 -198v-166zM598 -134v133l-505 1v-133z" />
    <glyph glyph-name="greaterequal" unicode="&#x2265;" horiz-adv-x="691" 
d="M93 -1l500 198v166l-500 198v-154l305 -127l-305 -127v-154zM93 -134l505 1v133l-505 -1v-133z" />
    <glyph glyph-name="lozenge" unicode="&#x25ca;" horiz-adv-x="826" 
d="M297 0h234l209 395l-209 395h-234l-211 -395zM414 152l-158 243l158 244l156 -244z" />
    <glyph glyph-name="glyph114" horiz-adv-x="881" 
d="M452 -16q192 -1 284 107q93 108 92 330h-385v-132h213q-3 -69 -57 -111q-55 -42 -149 -43q-110 1 -172 70q-63 69 -64 194q1 117 65 182q63 64 175 64q78 -1 131 -34q52 -32 67 -91h160q-22 135 -120 205q-99 71 -236 71q-181 -3 -290 -112q-110 -109 -113 -290
q3 -185 111 -296q109 -111 288 -114v0z" />
    <glyph glyph-name="glyph115" horiz-adv-x="881" 
d="M456 874q67 1 103 36q37 36 37 100h-88q0 -27 -14 -42t-38 -15t-38 15t-14 42h-88q1 -64 37 -100q37 -35 103 -36v0zM452 -16q192 -1 284 107q93 108 92 330h-385v-132h213q-3 -69 -57 -111q-55 -42 -149 -43q-110 1 -172 70q-63 69 -64 194q1 117 65 182q63 64 175 64
q78 -1 131 -34q52 -32 67 -91h160q-22 135 -120 205q-99 71 -236 71q-181 -3 -290 -112q-110 -109 -113 -290q3 -185 111 -296q109 -111 288 -114v0z" />
    <glyph glyph-name="glyph116" horiz-adv-x="881" 
d="M452 -16q192 -1 284 107q93 108 92 330h-385v-132h213q-3 -69 -57 -111q-55 -42 -149 -43q-110 1 -172 70q-63 69 -64 194q1 117 65 182q63 64 175 64q78 -1 131 -34q52 -32 67 -91h160q-22 135 -120 205q-99 71 -236 71q-181 -3 -290 -112q-110 -109 -113 -290
q3 -185 111 -296q109 -111 288 -114v0zM338 -337h102l118 248h-159z" />
    <glyph glyph-name="glyph117" horiz-adv-x="881" 
d="M456 854q41 1 67 27t27 67q-1 41 -26 66q-26 25 -68 26q-42 -1 -68 -26t-27 -66q1 -41 27 -67t68 -27v0zM452 -16q192 -1 284 107q93 108 92 330h-385v-132h213q-3 -69 -57 -111q-55 -42 -149 -43q-110 1 -172 70q-63 69 -64 194q1 117 65 182q63 64 175 64
q78 -1 131 -34q52 -32 67 -91h160q-22 135 -120 205q-99 71 -236 71q-181 -3 -290 -112q-110 -109 -113 -290q3 -185 111 -296q109 -111 288 -114v0z" />
    <glyph glyph-name="glyph118" horiz-adv-x="818" 
d="M77 0h156v357l366 -357h210l-426 417l420 363h-216l-354 -308v308h-156v-780z" />
    <glyph glyph-name="glyph119" horiz-adv-x="818" 
d="M77 0h156v357l366 -357h210l-426 417l420 363h-216l-354 -308v308h-156v-780zM286 -337h102l118 248h-159z" />
    <glyph glyph-name="glyph120" horiz-adv-x="761" 
d="M77 0h156v283h164l150 -283h168l-164 307q72 26 110 85q39 59 39 143q-1 116 -73 180t-203 65h-347v-780zM233 426v203h154q75 0 114 -27q38 -26 38 -74t-37 -75t-110 -27h-159z" />
    <glyph glyph-name="glyph121" horiz-adv-x="761" 
d="M336 870h101l119 150h-169zM77 0h156v283h164l150 -283h168l-164 307q72 26 110 85q39 59 39 143q-1 116 -73 180t-203 65h-347v-780zM233 426v203h154q75 0 114 -27q38 -26 38 -74t-37 -75t-110 -27h-159z" />
    <glyph glyph-name="glyph122" horiz-adv-x="761" 
d="M312 870h124l107 150h-115l-54 -84l-54 84h-115zM77 0h156v283h164l150 -283h168l-164 307q72 26 110 85q39 59 39 143q-1 116 -73 180t-203 65h-347v-780zM233 426v203h154q75 0 114 -27q38 -26 38 -74t-37 -75t-110 -27h-159z" />
    <glyph glyph-name="glyph123" horiz-adv-x="761" 
d="M77 0h156v283h164l150 -283h168l-164 307q72 26 110 85q39 59 39 143q-1 116 -73 180t-203 65h-347v-780zM233 426v203h154q75 0 114 -27q38 -26 38 -74t-37 -75t-110 -27h-159zM258 -337h102l118 248h-159z" />
    <glyph glyph-name="glyph166" horiz-adv-x="279" 
d="M140 584q41 1 67 27t27 67q-1 41 -26 66q-26 25 -68 26q-42 -1 -68 -26t-27 -66q1 -41 27 -67t68 -27v0zM65 0h149v520h-149v-520z" />
    <glyph glyph-name="glyph238" horiz-adv-x="646" 
d="M272 -16q62 0 105 22q43 21 69 60v-66h149v520h-149v-66q-26 39 -69 60q-43 22 -105 22q-102 -2 -162 -77q-61 -74 -62 -197q1 -124 62 -200q60 -76 162 -78v0zM322 112q-56 1 -91 42q-34 41 -35 107q1 66 35 106q35 40 91 41q56 -1 90 -41t35 -106q-1 -66 -35 -107
t-90 -42v0z" />
    <glyph glyph-name="glyph239" horiz-adv-x="646" 
d="M301 600h101l119 150h-169zM272 -16q62 0 105 22q43 21 69 60v-66h149v520h-149v-66q-26 39 -69 60q-43 22 -105 22q-102 -2 -162 -77q-61 -74 -62 -197q1 -124 62 -200q60 -76 162 -78v0zM322 112q-56 1 -91 42q-34 41 -35 107q1 66 35 106q35 40 91 41q56 -1 90 -41
t35 -106q-1 -66 -35 -107t-90 -42v0z" />
    <glyph glyph-name="glyph240" horiz-adv-x="646" 
d="M342 604q67 1 103 36q37 36 37 100h-88q0 -27 -14 -42t-38 -15t-38 15t-14 42h-88q1 -64 37 -100q37 -35 103 -36v0zM272 -16q62 0 105 22q43 21 69 60v-66h149v520h-149v-66q-26 39 -69 60q-43 22 -105 22q-102 -2 -162 -77q-61 -74 -62 -197q1 -124 62 -200
q60 -76 162 -78v0zM322 112q-56 1 -91 42q-34 41 -35 107q1 66 35 106q35 40 91 41q56 -1 90 -41t35 -106q-1 -66 -35 -107t-90 -42v0z" />
    <glyph glyph-name="glyph241" horiz-adv-x="646" 
d="M170 600h115l54 84l54 -84h115l-107 150h-124zM272 -16q62 0 105 22q43 21 69 60v-66h149v520h-149v-66q-26 39 -69 60q-43 22 -105 22q-102 -2 -162 -77q-61 -74 -62 -197q1 -124 62 -200q60 -76 162 -78v0zM322 112q-56 1 -91 42q-34 41 -35 107q1 66 35 106
q35 40 91 41q56 -1 90 -41t35 -106q-1 -66 -35 -107t-90 -42v0z" />
    <glyph glyph-name="glyph242" horiz-adv-x="646" 
d="M230 578q41 1 67 27t27 67q-1 41 -26 67q-26 25 -68 26q-42 -1 -68 -26q-26 -26 -27 -67q1 -41 27 -67t68 -27v0zM455 578q41 1 67 27t27 67q-1 41 -26 67q-26 25 -68 26q-42 -1 -68 -26q-26 -26 -27 -67q1 -41 27 -67t68 -27v0zM272 -16q62 0 105 22q43 21 69 60v-66
h149v520h-149v-66q-26 39 -69 60q-43 22 -105 22q-102 -2 -162 -77q-61 -74 -62 -197q1 -124 62 -200q60 -76 162 -78v0zM322 112q-56 1 -91 42q-34 41 -35 107q1 66 35 106q35 40 91 41q56 -1 90 -41t35 -106q-1 -66 -35 -107t-90 -42v0z" />
    <glyph glyph-name="glyph243" horiz-adv-x="646" 
d="M385 600l-51 150h-169l119 -150h101zM272 -16q62 0 105 22q43 21 69 60v-66h149v520h-149v-66q-26 39 -69 60q-43 22 -105 22q-102 -2 -162 -77q-61 -74 -62 -197q1 -124 62 -200q60 -76 162 -78v0zM322 112q-56 1 -91 42q-34 41 -35 107q1 66 35 106q35 40 91 41
q56 -1 90 -41t35 -106q-1 -66 -35 -107t-90 -42v0z" />
    <glyph glyph-name="glyph244" horiz-adv-x="646" 
d="M169 610l346 1v100l-346 -1v-100zM272 -16q62 0 105 22q43 21 69 60v-66h149v520h-149v-66q-26 39 -69 60q-43 22 -105 22q-102 -2 -162 -77q-61 -74 -62 -197q1 -124 62 -200q60 -76 162 -78v0zM322 112q-56 1 -91 42q-34 41 -35 107q1 66 35 106q35 40 91 41
q56 -1 90 -41t35 -106q-1 -66 -35 -107t-90 -42v0z" />
    <glyph glyph-name="glyph245" horiz-adv-x="646" 
d="M490 -76q0 22 14 41t35 35h56v520h-149v-66q-26 39 -69 60q-43 22 -105 22q-102 -2 -162 -77q-61 -74 -62 -197q1 -124 62 -200q60 -76 162 -78q62 0 105 22q43 21 69 60v-61q-30 -20 -48 -48q-18 -29 -18 -67q0 -57 52 -88q53 -31 164 -25v86q-53 1 -79 17
q-27 17 -27 44v0zM322 112q-56 1 -91 42q-34 41 -35 107q1 66 35 106q35 40 91 41q56 -1 90 -41t35 -106q-1 -66 -35 -107t-90 -42v0z" />
    <glyph glyph-name="glyph246" horiz-adv-x="646" 
d="M342 577q58 1 95 38t38 95q-1 58 -38 95t-95 38q-58 -1 -95 -38t-38 -95q1 -58 38 -95t95 -38v0zM342 672q-15 1 -26 12t-12 26q1 16 12 27t26 11q16 0 27 -11t11 -27q0 -15 -11 -26t-27 -12v0zM272 -16q62 0 105 22q43 21 69 60v-66h149v520h-149v-66q-26 39 -69 60
q-43 22 -105 22q-102 -2 -162 -77q-61 -74 -62 -197q1 -124 62 -200q60 -76 162 -78v0zM322 112q-56 1 -91 42q-34 41 -35 107q1 66 35 106q35 40 91 41q56 -1 90 -41t35 -106q-1 -66 -35 -107t-90 -42v0z" />
    <glyph glyph-name="glyph247" horiz-adv-x="646" 
d="M410 622q61 1 92 35q32 35 27 98h-88q0 -24 -9 -37q-9 -14 -30 -14q-27 3 -55 26q-29 22 -73 25q-62 0 -94 -35q-32 -34 -27 -97h86q0 23 10 36q9 14 31 14q25 -3 55 -25q29 -23 75 -26v0zM272 -16q62 0 105 22q43 21 69 60v-66h149v520h-149v-66q-26 39 -69 60
q-43 22 -105 22q-102 -2 -162 -77q-61 -74 -62 -197q1 -124 62 -200q60 -76 162 -78v0zM322 112q-56 1 -91 42q-34 41 -35 107q1 66 35 106q35 40 91 41q56 -1 90 -41t35 -106q-1 -66 -35 -107t-90 -42v0z" />
    <glyph glyph-name="glyph248" horiz-adv-x="651" 
d="M66 0h148v219l230 -219h198l-311 292l291 228h-204l-204 -164v434h-148v-790z" />
    <glyph glyph-name="glyph249" horiz-adv-x="651" 
d="M66 0h148v219l230 -219h198l-311 292l291 228h-204l-204 -164v434h-148v-790zM206 -337h102l118 248h-159z" />
    <glyph glyph-name="glyph250" horiz-adv-x="474" 
d="M146 0h148v385h166v135h-166v177l-148 -57v-120h-126v-135h126v-385z" />
    <glyph glyph-name="glyph251" horiz-adv-x="474" 
d="M460 385v135h-166v177l-148 -57v-120h-126v-135h126v-87h-93v-112h93v-186h148v187h119v112h-119v86h166z" />
    <glyph glyph-name="glyph252" horiz-adv-x="474" 
d="M355 640h100l119 150h-168zM146 0h148v385h166v135h-166v177l-148 -57v-120h-126v-135h126v-385z" />
    <glyph glyph-name="glyph253" horiz-adv-x="474" 
d="M294 0v385h166v135h-166v177l-148 -57v-120h-126v-135h126v-385h38l-60 -99l49 -51q8 8 20 12q11 5 25 5q23 0 36 -14q13 -13 13 -37q0 -22 -13 -35t-37 -13t-37 15q-13 14 -13 40h-91q1 -60 38 -93q36 -34 103 -34t104 32q36 31 37 88q-1 62 -38 92q-36 31 -95 20l47 72
h22z" />
    <glyph glyph-name="glyph254" horiz-adv-x="474" 
d="M146 0h148v385h166v135h-166v177l-148 -57v-120h-126v-135h126v-385zM101 -337h102l118 248h-159z" />
    <glyph glyph-name="glyph265" horiz-adv-x="800" 
d="M385 806q-166 -1 -258 -107q-92 -107 -93 -300q1 -197 93 -305q92 -109 258 -110q164 1 254 110q90 108 91 305q-1 193 -91 300q-90 106 -254 107v0zM385 655q48 0 84 -20l-261 -343q-13 49 -13 112q1 119 50 185q50 65 140 66v0zM385 135q-51 0 -91 24l263 347
q12 -45 12 -102q-1 -128 -48 -198q-48 -70 -136 -71v0z" />
    <glyph glyph-name="glyph266" horiz-adv-x="800" 
d="M481 158v632h-108l-275 -148v-168l227 121v-437h-198v-158h528v158h-174z" />
    <glyph glyph-name="glyph267" horiz-adv-x="800" 
d="M99 0h590v152h-393q27 92 197 145q170 52 194 251q-1 125 -77 191t-215 67q-153 -1 -232 -80q-78 -80 -67 -224h160q-10 73 27 113q36 39 109 40q65 -1 99 -33q35 -33 35 -82q-27 -113 -213 -171q-187 -57 -214 -299v-70z" />
    <glyph glyph-name="glyph268" horiz-adv-x="800" 
d="M383 -16q137 2 220 72t85 185q-3 116 -71 172q-68 57 -162 63l225 214v100h-578v-151h325l-189 -199l80 -87q15 6 34 9t37 3q67 -1 105 -31q37 -30 38 -82q-1 -55 -40 -85q-40 -31 -110 -32q-68 1 -108 34q-39 34 -42 94h-159q2 -124 86 -201q85 -76 224 -78v0z" />
    <glyph glyph-name="glyph269" horiz-adv-x="800" 
d="M446 0h148v194h106v151h-106v445h-211l-351 -456v-140h414v-194zM234 345l212 283v-283h-212z" />
    <glyph glyph-name="glyph270" horiz-adv-x="800" 
d="M393 -16q141 1 225 74q83 74 85 214q-1 115 -72 185t-194 72q-47 0 -85 -11q-38 -12 -66 -32l19 153h361v151h-493l-39 -412l94 -50q31 27 72 42q40 16 83 16q75 -1 117 -33q41 -33 42 -91q-1 -58 -40 -92t-110 -35q-58 1 -95 31q-37 29 -45 81h-160q7 -123 88 -192
q80 -70 213 -71v0z" />
    <glyph glyph-name="glyph271" horiz-adv-x="800" 
d="M398 -16q124 2 204 75q80 74 83 197q-1 120 -73 189q-72 68 -199 69q-53 0 -98 -18q-45 -19 -75 -52q14 102 55 156t105 55q54 0 87 -24q34 -24 41 -67l161 1q-12 114 -86 177t-199 64q-140 -1 -225 -110t-87 -314q-1 -180 74 -287q75 -108 232 -111v0zM398 135
q-57 1 -93 34q-35 33 -36 86q1 55 37 89q35 33 94 34q57 -1 92 -34q35 -34 36 -88q-1 -54 -36 -87q-36 -33 -94 -34v0z" />
    <glyph glyph-name="glyph272" horiz-adv-x="800" 
d="M203 0h188l313 705v85h-613v-151h409z" />
    <glyph glyph-name="glyph273" horiz-adv-x="800" 
d="M397 -16q140 1 222 63q81 62 83 172q-2 81 -45 135q-44 54 -100 70q41 14 78 62q36 47 39 117q-2 95 -77 148q-75 54 -200 55q-125 -1 -200 -55q-75 -53 -77 -148q3 -70 39 -117q37 -48 78 -62q-56 -16 -99 -70q-44 -54 -46 -135q2 -110 83 -172q82 -62 222 -63v0z
M397 485q-50 1 -82 25q-33 24 -34 66q1 40 34 63q32 23 82 23t82 -23q33 -23 34 -63q-1 -42 -34 -66q-32 -24 -82 -25v0zM397 128q-64 1 -101 29q-38 28 -39 77q1 51 39 80q37 29 101 30q64 -1 102 -30q37 -29 38 -80q-1 -49 -38 -77q-38 -28 -102 -29v0z" />
    <glyph glyph-name="glyph274" horiz-adv-x="800" 
d="M386 -16q139 1 227 114t91 323q0 175 -78 279q-77 104 -234 106q-124 -2 -205 -74q-80 -73 -83 -192q1 -125 73 -194t200 -70q52 0 97 19q45 18 75 51q-14 -100 -55 -155q-42 -55 -104 -56q-54 0 -88 24t-41 67l-160 -1q11 -114 86 -177q74 -63 199 -64v0zM390 412
q-58 1 -93 34q-35 34 -36 88q1 54 37 87q35 33 94 34q57 -1 92 -34t36 -86q-1 -55 -36 -88q-36 -34 -94 -35v0z" />
    <glyph glyph-name="glyph398" horiz-adv-x="941" 
d="M471 -15q171 4 288 119t122 292q-5 173 -122 289t-288 121q-173 -5 -290 -122q-116 -117 -121 -288q4 -171 119 -289q115 -117 292 -122v0zM471 70q-139 3 -231 95t-95 231q3 139 95 230q92 92 231 95q138 -3 230 -95q92 -91 95 -230q-3 -139 -95 -231t-230 -95v0z
M365 445q31 1 52 21t22 52q-1 30 -22 50t-52 21q-32 -1 -52 -21q-21 -20 -22 -50q1 -32 22 -52q20 -20 52 -21v0zM584 445q31 1 52 21q20 20 21 52q-1 30 -21 50q-21 20 -52 21q-31 -1 -51 -21t-21 -50q1 -32 21 -52t51 -21v0zM471 158q103 1 173 56q70 56 73 157l-72 10
q0 -46 -39 -86q-40 -40 -135 -43q-96 3 -135 43t-40 86l-72 -10q3 -99 72 -156q69 -56 175 -57v0z" />
  </font>
</defs>
</svg>
