<svg width="50" height="50" viewBox="0 0 50 50" fill="none" xmlns="http://www.w3.org/2000/svg">
    <circle cx="25" cy="25" r="25" fill="#F6EDEB"/>
    <path d="M23.472 41.306c-4.817 0-8.735-3.917-8.735-8.734 0-1.94.775-3.588 1.523-5.18.761-1.624 1.482-3.16 1.482-5.036 0-3.16 2.57-5.73 5.73-5.73 3.16 0 5.73 2.57 5.73 5.73 0 1.876.72 3.408 1.481 5.035.748 1.594 1.523 3.24 1.523 5.18 0 4.814-3.918 8.735-8.734 8.735zm0-22.995a4.051 4.051 0 0 0-4.046 4.045c0 2.25-.835 4.032-1.644 5.75-.7 1.492-1.36 2.9-1.36 4.463a7.058 7.058 0 0 0 7.05 7.05c3.887 0 7.05-3.163 7.05-7.05 0-1.566-.66-2.974-1.361-4.463-.809-1.721-1.644-3.5-1.644-5.75a4.048 4.048 0 0 0-4.045-4.046z" fill="#3565FF"/>
    <path d="M27.426 32.915a3.944 3.944 0 1 1-7.889 0 3.944 3.944 0 0 1 7.889 0zM23.485 17.7a.706.706 0 0 1-.704-.703v-1.97c0-.388.317-.705.704-.705.387 0 .704.317.704.704v1.97a.706.706 0 0 1-.704.705z" fill="#3565FF"/>
    <path d="M27.217 18.546c-1.721 0-3.035-.367-3.129-.394l-.781-.226.198-.788c.044-.179 1.129-4.382 4.47-6.313 3.342-1.93 7.526-.764 7.7-.714l.782.226-.202.788c-.044.179-1.129 4.382-4.47 6.313-1.499.865-3.166 1.108-4.567 1.108zm-1.805-1.836c1.25.202 3.62.37 5.53-.73 1.92-1.11 2.955-3.245 3.403-4.427-1.25-.202-3.621-.37-5.534.73-1.91 1.106-2.948 3.245-3.4 4.427z" fill="#3565FF"/>
</svg>
