<svg width="50" height="50" viewBox="0 0 50 50" fill="none" xmlns="http://www.w3.org/2000/svg">
    <circle cx="25" cy="25" r="25" fill="#F6EDEB"/>
    <path d="M20.358 11.867a.992.992 0 0 0-.299.061c-5.33 1.975-8.391 7.154-8.391 13.046 0 7.67 6.23 13.91 13.9 13.91 5.892 0 11.08-3.072 13.055-8.401a.989.989 0 0 0-1.297-1.256c-1.349.542-2.832.823-4.396.823-6.457 0-12.428-5.981-12.428-12.438 0-1.564.27-3.047.813-4.396a.988.988 0 0 0-.957-1.35zm-1.534 2.872c-.192.93-.299 1.89-.299 2.873 0 7.647 6.757 14.414 14.404 14.414.983 0 1.942-.117 2.873-.309-2.065 3.311-5.813 5.19-10.235 5.19-6.6 0-11.922-5.333-11.922-11.933 0-4.422 1.867-8.17 5.178-10.235z" fill="#3565FF"/>
</svg>
