<svg width="50" height="50" viewBox="0 0 50 50" fill="none" xmlns="http://www.w3.org/2000/svg">
    <circle cx="25" cy="25" r="25" fill="#F6EDEB"/>
    <path d="M25.4 12C18.009 12 12 18.009 12 25.4s6.009 13.4 13.4 13.4 13.4-6.009 13.4-13.4S32.791 12 25.4 12zm0 1.576c6.54 0 11.824 5.285 11.824 11.824 0 6.54-5.285 11.823-11.824 11.823A11.812 11.812 0 0 1 13.577 25.4c0-6.54 5.284-11.824 11.823-11.824zm-4.73 5.912a1.97 1.97 0 1 0 0 3.941 1.97 1.97 0 0 0 0-3.94zm9.46 0a1.97 1.97 0 1 0 0 3.941 1.97 1.97 0 0 0 0-3.94zm-10.284 8.659a.788.788 0 0 0-.604 1.256c1.364 1.87 3.622 3.091 6.159 3.091 2.536 0 4.794-1.221 6.158-3.091a.79.79 0 1 0-1.281-.924c-1.068 1.464-2.843 2.439-4.877 2.439s-3.81-.975-4.878-2.439a.788.788 0 0 0-.677-.332z" fill="#3565FF"/>
</svg>
