<svg width="50" height="50" viewBox="0 0 50 50" fill="none" xmlns="http://www.w3.org/2000/svg">
    <circle cx="25" cy="25" r="25" fill="#F6EDEB"/>
    <path fill-rule="evenodd" clip-rule="evenodd" d="M24.87 10.944c-.813 0-1.675.526-1.984 1.414l-2.454 7.216-7.333-.047c-.955 0-1.738.666-1.995 1.445-.257.78-.023 1.779.743 2.35.027.019.055.038.084.055l6.04 3.634-2.193 7.915c-.294.906.09 1.853.75 2.341.66.488 1.684.575 2.462.025l5.867-4.08 5.915 4.08c.779.55 1.802.464 2.462-.025.66-.488 1.044-1.434.75-2.34l-2.216-7.47 6.108-4.108a.667.667 0 0 0 .04-.03c.765-.57 1-1.569.742-2.348-.257-.78-1.04-1.446-1.995-1.446l-7.333.047-2.454-7.216a2.138 2.138 0 0 0-1.984-1.413l-.023.001zm0 2.056c.032 0 .02-.04.045.034l2.69 7.91c.144.418.538.698.98.695l8.067-.052c.078 0 .033 0 .046.038.02.033.029.02-.02.05l-6.695 4.498c-.373.25-.54.714-.413 1.145l2.441 8.216v.025c.025.078.02.034-.02.055-.03.02.02.045-.052 0l-6.513-4.493a1.026 1.026 0 0 0-1.169 0l-6.46 4.493c-.067.045-.023.02-.052 0-.03-.02-.042.023-.021-.055l.02-.041 2.418-8.71a1.028 1.028 0 0 0-.462-1.157l-6.634-3.988c-.02-.02-.02-.02-.02-.045.02-.035-.035-.037.045-.037l8.068.05v.001c.442.004.836-.276.98-.694l2.69-7.911c.027-.074.02-.033.046-.033l-.006.006z" fill="#3565FF"/>
</svg>
