<svg width="69" height="12" viewBox="0 0 69 12" fill="none" xmlns="http://www.w3.org/2000/svg">
    <path d="M5.782 0 7.08 3.995h4.2l-3.398 2.47L9.18 10.46 5.782 7.99l-3.399 2.47 1.298-3.996L.283 3.995h4.2L5.783 0zM34.46 0l1.298 3.995h4.201l-3.399 2.47 1.299 3.995-3.399-2.47-3.398 2.47 1.298-3.996-3.399-2.469h4.201L34.46 0zM20.12 0l1.299 3.995h4.2l-3.398 2.47 1.298 3.995-3.398-2.47-3.399 2.47 1.298-3.996-3.398-2.469h4.2L20.122 0zM48.799 0l1.298 3.995h4.2L50.9 6.465l1.298 3.995L48.8 7.99l-3.398 2.47 1.298-3.996L43.3 3.995h4.2L48.8 0zM63.138 0l1.298 3.995h4.2l-3.398 2.47 1.298 3.995-3.398-2.47-3.399 2.47 1.298-3.996-3.398-2.469h4.2L63.139 0z" fill="#3565FF"/>
</svg>
