<svg width="149" height="25" viewBox="0 0 149 25" fill="none" xmlns="http://www.w3.org/2000/svg">
    <path d="m12.5 0 2.806 8.637h9.082l-7.347 5.338 2.806 8.638-7.347-5.338-7.347 5.338 2.806-8.638L.612 8.637h9.082L12.5 0zM74.5 0l2.806 8.637h9.082l-7.347 5.338 2.806 8.638-7.347-5.338-7.347 5.338 2.806-8.638-7.347-5.338h9.082L74.5 0zM43.5 0l2.806 8.637h9.082l-7.347 5.338 2.806 8.638-7.347-5.338-7.347 5.338 2.806-8.638-7.347-5.338h9.082L43.5 0zM105.5 0l2.806 8.637h9.082l-7.347 5.338 2.806 8.638-7.347-5.338-7.347 5.338 2.806-8.638-7.347-5.338h9.082L105.5 0zM136.5 0l2.806 8.637h9.082l-7.347 5.338 2.806 8.638-7.347-5.338-7.347 5.338 2.806-8.638-7.347-5.338h9.082L136.5 0z" fill="#fff"/>
</svg>
